<?xml version="1.0" encoding="utf-8"?>
<!-- Generator: Adobe Illustrator 27.5.0, SVG Export Plug-In . SVG Version: 6.00 Build 0)  -->
<svg version="1.1" id="Layer_1" xmlns="http://www.w3.org/2000/svg" xmlns:xlink="http://www.w3.org/1999/xlink" x="0px" y="0px"
	 viewBox="0 0 162 44" style="enable-background:new 0 0 162 44;" xml:space="preserve">
<style type="text/css">
	.st0{fill:#FFFFFF;}
</style>
<path class="st0" d="M24.8,14.9v0.5c0,8.2,0,16.4,0,24.6c0,0.6,0,0.6-0.5,0.6c-1.5,0-3,0-4.6,0c-0.3,0-0.4-0.1-0.4-0.4
	c0-12.8,0-25.7,0-38.5c0,0,0-0.1,0-0.2C28.3,10.7,37.1,20,46,29.3l0.1,0c0-0.2,0-0.3,0-0.5c0-8.2,0-16.3,0-24.5c0-0.5,0-0.5,0.5-0.5
	c1.5,0,3,0,4.6,0c0.3,0,0.4,0.1,0.4,0.4c0,12.7,0,25.4,0,38.1c0,0.1,0,0.2,0,0.3c-8.9-9.3-17.8-18.6-26.7-27.8L24.8,14.9z"/>
<path class="st0" d="M86,17.4c0.2,0,0.3,0,0.5,0c1.7,0,3.3,0,5,0c0.3,0,0.5,0.1,0.6,0.4c1.8,4,3.7,8,5.5,12c0.1,0.2,0.2,0.3,0.3,0.6
	c0.1-0.2,0.2-0.3,0.2-0.4c1.9-4.1,3.7-8.1,5.6-12.2c0.1-0.3,0.2-0.4,0.5-0.4c1.7,0,3.5,0,5.2,0c0.1,0,0.2,0,0.4,0
	c-4,8.2-8,16.4-12,24.6C93.9,33.8,90,25.6,86,17.4z"/>
<path class="st0" d="M133,19.4c1.5-1.6,3.2-2.8,5.4-2.7c1.5,0.1,2.9,0.6,4.3,1.4c-0.8,1.6-1.6,3.2-2.4,4.8c-0.2-0.1-0.3-0.2-0.5-0.3
	c-0.8-0.5-1.6-0.8-2.5-0.8c-1.7,0-3,0.8-3.7,2.4c-0.5,1-0.7,2.1-0.7,3.2c0,4.2,0,8.3-0.1,12.5c0,0.5,0,0.5-0.5,0.5
	c-1.4,0-2.9,0-4.3,0c-0.3,0-0.4-0.1-0.4-0.4c0-7.4,0-14.8,0-22.3c0-0.3,0.1-0.4,0.4-0.4c1.5,0,2.9,0,4.4,0c0.3,0,0.4,0.1,0.4,0.4
	c0,0.4,0,0.8,0,1.2c0,0.1,0,0.2,0,0.3C132.9,19.3,133,19.4,133,19.4z"/>
<path class="st0" d="M119.8,29c0,3.7,0,7.4,0,11c0,0.5,0,0.5-0.5,0.5c-1.5,0-2.9,0-4.4,0c-0.3,0-0.4-0.1-0.4-0.4
	c0-7.4,0-14.9,0-22.3c0-0.3,0.1-0.4,0.4-0.4c1.5,0,2.9,0,4.4,0c0.3,0,0.5,0.1,0.5,0.4C119.8,21.5,119.8,25.2,119.8,29z"/>
<path class="st0" d="M117.1,4.3c1.7-0.1,3.5,1.4,3.5,3.4c0,1.9-1.5,3.4-3.4,3.4c-2,0-3.4-1.5-3.5-3.5C113.7,5.9,115.4,4.2,117.1,4.3
	z"/>
<path class="st0" d="M71.1,16.5c-6.6,0-12.2,5.2-12.3,12.1c-0.1,6.9,5.4,12.4,12.1,12.4c6.9,0.1,12.4-5.4,12.4-12.2
	C83.4,22,77.9,16.6,71.1,16.5z M63.2,22C63.2,22,63.2,22,63.2,22L63.2,22c0.3-0.3,0.5-0.6,0.8-0.8c0.3-0.3,0.6-0.6,0.9-1l0,0l0,0
	c1.4,1.5,2.7,2.9,4.2,4.4c0-0.2,0-0.3,0-0.4c0-1.2,0-2.4,0-3.6c0-0.1,0-0.1,0-0.2c0,0,0,0,0-0.1c0,0,0,0,0-0.1
	c0.1-0.1,0.1-0.1,0.3-0.1c0.7,0,1.4,0,2.1,0v9h0v0h-7.9v-2.5h0v0h3.9l0,0l0-0.1C66.2,25.1,64.7,23.5,63.2,22z M77.4,36.9
	c-0.1-0.1-0.2-0.1-0.3-0.2c-1.2-1.2-2.3-2.3-3.5-3.5c-0.2-0.2-0.4-0.3-0.7-0.3c-1.8,0-3.6,0-5.4,0h-0.4v-2.6c0.2,0,0.3,0,0.5,0
	c0,0,0,0,0,0c1.5,0,3.1,0,4.6,0c0.1,0,0.2,0,0.2,0c0.1-0.1,0.1-0.2,0.1-0.3c0-1.8,0-3.6,0-5.4c0-0.3,0.1-0.4,0.4-0.4
	c0.4,0,0.7,0,1.1,0c0.4,0,0.7,0,1.1,0v0v0.4c0,2.1,0,4.1,0,6.2c0,0.3,0.1,0.5,0.3,0.7c1.1,1.1,2.3,2.3,3.4,3.4
	c0.1,0.1,0.2,0.2,0.3,0.2C78.6,35.7,78,36.3,77.4,36.9z"/>
</svg>
