<?xml version="1.0" encoding="utf-8"?>
<!-- Generator: Adobe Illustrator 27.5.0, SVG Export Plug-In . SVG Version: 6.00 Build 0)  -->
<svg version="1.1" id="Layer_1" xmlns="http://www.w3.org/2000/svg" xmlns:xlink="http://www.w3.org/1999/xlink" x="0px" y="0px"
	 viewBox="0 0 133.6 44.6" style="enable-background:new 0 0 133.6 44.6;" xml:space="preserve">
<style type="text/css">
	.st0{fill:#FFFFFF;}
</style>
<path class="st0" d="M6,14.5V15c0,8.9,0,17.7,0,26.7c0,0.7,0,0.7-0.5,0.7c-1.6,0-3.2,0-5,0c-0.3,0-0.4-0.1-0.4-0.5
	C0,28.1,0,14,0,0.2c0,0,0-0.1,0-0.2c9.7,9.9,19.3,20.1,28.9,30.1h0.1c0-0.2,0-0.3,0-0.5c0-8.9,0-17.7,0-26.6c0-0.5,0-0.5,0.5-0.5
	c1.6,0,3.2,0,5,0c0.3,0,0.5,0.1,0.5,0.5c0,13.8,0,27.5,0,41.3c0,0.1,0,0.2,0,0.3c-9.7-10-19.3-20.1-28.9-30.1L6,14.5z"/>
<path class="st0" d="M72.3,17.2c0.2,0,0.3,0,0.5,0c1.9,0,3.6,0,5.4,0c0.3,0,0.5,0.1,0.7,0.5c1.9,4.4,4,8.7,6,13
	c0.1,0.2,0.2,0.3,0.3,0.7c0.1-0.2,0.2-0.3,0.2-0.5c2.1-4.4,4-8.7,6-13.2c0.1-0.3,0.2-0.5,0.5-0.5c1.9,0,3.8,0,5.6,0
	c0.1,0,0.2,0,0.5,0c-4.4,8.9-8.7,17.7-13,26.7C80.8,35,76.6,26.1,72.3,17.2z"/>
<path class="st0" d="M123.1,19.4c1.6-1.7,3.4-3,5.8-2.9c1.6,0.1,3.2,0.7,4.6,1.5c-0.9,1.7-1.7,3.4-2.6,5.2c-0.2-0.1-0.3-0.2-0.5-0.3
	c-0.9-0.5-1.7-0.9-2.7-0.9c-1.9,0-3.2,0.9-4,2.6c-0.5,1.1-0.7,2.3-0.7,3.4c0,4.6,0,9-0.1,13.6c0,0.5,0,0.5-0.5,0.5
	c-1.5,0-3.2,0-4.6,0c-0.3,0-0.5-0.1-0.5-0.5c0-8,0-16,0-24.2c0-0.3,0.1-0.5,0.5-0.5c1.6,0,3.2,0,4.8,0c0.3,0,0.5,0.1,0.5,0.5
	c0,0.5,0,0.9,0,1.3c0,0.1,0,0.2,0,0.3C123.1,19.3,123.1,19.4,123.1,19.4z"/>
<path class="st0" d="M108.8,29.8c0,4,0,8,0,11.9c0,0.5,0,0.5-0.5,0.5c-1.6,0-3.2,0-4.8,0c-0.3,0-0.5-0.1-0.5-0.5c0-8,0-16.2,0-24.2
	c0-0.3,0.1-0.5,0.5-0.5c1.6,0,3.2,0,4.8,0c0.3,0,0.5,0.1,0.5,0.5C108.8,21.7,108.8,25.6,108.8,29.8z"/>
<path class="st0" d="M106,3c1.9-0.1,3.8,1.5,3.8,3.7c0,2.1-1.6,3.7-3.7,3.7s-3.7-1.6-3.8-3.8C102.3,4.8,104.1,2.9,106,3z"/>
<path class="st0" d="M56.1,16.2c-7.2,0-13.2,5.6-13.3,13.1s5.8,13.4,13.1,13.4c7.5,0.1,13.4-5.8,13.4-13.2
	C69.4,22.2,63.4,16.4,56.1,16.2z M47.6,22.2L47.6,22.2L47.6,22.2c0.3-0.3,0.5-0.7,0.9-0.9c0.3-0.3,0.7-0.7,0.9-1.1l0,0l0,0
	c1.5,1.6,2.9,3.2,4.6,4.8c0-0.2,0-0.3,0-0.5c0-1.3,0-2.6,0-3.9c0-0.1,0-0.1,0-0.2c0,0,0,0,0-0.1c0,0,0,0,0-0.1C54,20,54,20,54.2,20
	c0.7,0,1.5,0,2.3,0v9.7l0,0l0,0H48v-2.5l0,0l0,0h4.2l0,0V27C50.8,25.6,49.1,23.8,47.6,22.2z M62.9,38.3c-0.1-0.1-0.2-0.1-0.3-0.2
	c-1.3-1.3-2.5-2.5-3.8-3.8c-0.2-0.2-0.5-0.3-0.7-0.3c-1.9,0-3.9,0-5.8,0h-0.5v-2.8c0.2,0,0.3,0,0.5,0l0,0c1.6,0,3.4,0,5,0
	c0.1,0,0.2,0,0.2,0c0.1-0.1,0.1-0.2,0.1-0.3c0-1.9,0-3.9,0-5.8c0-0.3,0.1-0.5,0.5-0.5c0.5,0,0.7,0,1.2,0s0.7,0,1.2,0l0,0V25
	c0,2.3,0,4.4,0,6.7c0,0.3,0.1,0.5,0.3,0.7c1.2,1.2,2.5,2.5,3.7,3.7c0.1,0.1,0.2,0.2,0.3,0.2C64.2,37,63.6,37.7,62.9,38.3z"/>
</svg>
