<?xml version="1.0" encoding="utf-8"?>
<!-- Generator: Adobe Illustrator 27.5.0, SVG Export Plug-In . SVG Version: 6.00 Build 0)  -->
<svg version="1.1" id="Layer_1" xmlns="http://www.w3.org/2000/svg" xmlns:xlink="http://www.w3.org/1999/xlink" x="0px" y="0px"
	 viewBox="0 0 90 25" style="enable-background:new 0 0 90 25;" xml:space="preserve">
<style type="text/css">
	.st0{fill:#3B6DAB;}
	.st1{fill:#29417A;}
	.st2{fill:#FFFFFF;}
</style>
<g>
	<path class="st0" d="M14.4,8.6v0.3c0,4.5,0,8.9,0,13.4c0,0.3,0,0.3-0.3,0.3c-0.8,0-1.7,0-2.5,0c-0.1,0-0.2,0-0.2-0.2c0-7,0-14,0-21
		c0,0,0,0,0-0.1c4.9,5.1,9.7,10.1,14.5,15.2l0.1,0c0-0.1,0-0.2,0-0.3c0-4.4,0-8.9,0-13.3c0-0.3,0-0.3,0.3-0.3c0.8,0,1.7,0,2.5,0
		c0.2,0,0.2,0,0.2,0.2c0,6.9,0,13.8,0,20.8c0,0,0,0.1,0,0.2C24.1,18.7,19.3,13.6,14.4,8.6L14.4,8.6z"/>
	<path class="st1" d="M46.3,16.2c0,3.7-3,6.7-6.8,6.7c-3.7,0-6.6-3-6.6-6.8c0-3.7,3.1-6.6,6.7-6.6C43.3,9.5,46.3,12.5,46.3,16.2z
		 M37.7,15L37.7,15l-2.2,0v1.4h4.3v-4.9c-0.4,0-0.8,0-1.1,0c-0.2,0-0.2,0-0.2,0.2c0,0.7,0,1.3,0,2c0,0.1,0,0.1,0,0.2
		c-0.8-0.8-1.5-1.6-2.3-2.4c-0.3,0.3-0.6,0.7-0.9,1C36.1,13.3,36.9,14.2,37.7,15z M37.4,17v1.4h0.2c1,0,1.9,0,2.9,0
		c0.2,0,0.3,0,0.4,0.1c0.6,0.6,1.3,1.3,1.9,1.9c0.1,0.1,0.1,0.1,0.1,0.1c0.3-0.3,0.7-0.7,1-1c0,0-0.1-0.1-0.2-0.1
		c-0.6-0.6-1.2-1.2-1.9-1.9c-0.1-0.1-0.2-0.2-0.2-0.4c0-1.1,0-2.2,0-3.4v-0.2c-0.4,0-0.8,0-1.2,0c-0.2,0-0.2,0-0.2,0.2
		c0,1,0,2,0,2.9c0,0.2,0,0.2-0.2,0.2c-0.8,0-1.7,0-2.5,0C37.6,17,37.5,17,37.4,17z"/>
	<path class="st0" d="M47.7,10c0.1,0,0.2,0,0.2,0c0.9,0,1.8,0,2.7,0c0.2,0,0.3,0.1,0.3,0.2c1,2.2,2,4.4,3,6.6c0,0.1,0.1,0.2,0.2,0.3
		c0.1-0.1,0.1-0.2,0.1-0.2c1-2.2,2-4.4,3.1-6.7c0.1-0.1,0.1-0.2,0.3-0.2c0.9,0,1.9,0,2.8,0c0.1,0,0.1,0,0.2,0
		c-2.2,4.5-4.3,8.9-6.5,13.4C52,18.9,49.9,14.5,47.7,10z"/>
	<path class="st0" d="M73.4,11.1c0.8-0.9,1.7-1.5,3-1.5c0.8,0,1.6,0.3,2.3,0.7c-0.4,0.9-0.9,1.7-1.3,2.6c-0.1-0.1-0.2-0.1-0.3-0.2
		c-0.4-0.3-0.9-0.4-1.4-0.4c-0.9,0-1.6,0.4-2,1.3c-0.2,0.6-0.4,1.2-0.4,1.8c0,2.3,0,4.5,0,6.8c0,0.3,0,0.3-0.3,0.3
		c-0.8,0-1.6,0-2.4,0c-0.2,0-0.2-0.1-0.2-0.2c0-4,0-8.1,0-12.1c0-0.2,0.1-0.2,0.2-0.2c0.8,0,1.6,0,2.4,0c0.2,0,0.2,0.1,0.2,0.2
		c0,0.2,0,0.4,0,0.6C73.3,10.9,73.3,11,73.4,11.1C73.3,11.1,73.3,11.1,73.4,11.1z"/>
	<path class="st0" d="M66.1,16.3c0,2,0,4,0,6c0,0.3,0,0.3-0.2,0.3c-0.8,0-1.6,0-2.4,0c-0.2,0-0.2,0-0.2-0.2c0-4.1,0-8.1,0-12.2
		c0-0.2,0.1-0.2,0.2-0.2c0.8,0,1.6,0,2.4,0c0.2,0,0.2,0,0.2,0.2C66.1,12.2,66.1,14.3,66.1,16.3z"/>
	<path class="st0" d="M64.7,2.8c0.9-0.1,1.9,0.7,1.9,1.9c0,1-0.8,1.9-1.9,1.9c-1.1,0-1.9-0.8-1.9-1.9C62.8,3.7,63.7,2.8,64.7,2.8z"
		/>
	<path class="st2" d="M37.7,15c-0.8-0.8-1.6-1.7-2.4-2.5c0.3-0.3,0.6-0.7,0.9-1c0.8,0.8,1.5,1.6,2.3,2.4c0-0.1,0-0.2,0-0.2
		c0-0.7,0-1.3,0-2c0-0.1,0-0.2,0.2-0.2c0.4,0,0.7,0,1.1,0v4.9h-4.3v-1.4L37.7,15L37.7,15z"/>
	<path class="st2" d="M37.4,17c0.1,0,0.2,0,0.3,0c0.8,0,1.7,0,2.5,0c0.2,0,0.2,0,0.2-0.2c0-1,0-2,0-2.9c0-0.2,0.1-0.2,0.2-0.2
		c0.4,0,0.8,0,1.2,0v0.2c0,1.1,0,2.2,0,3.4c0,0.2,0,0.3,0.2,0.4c0.6,0.6,1.2,1.2,1.9,1.9c0.1,0.1,0.1,0.1,0.2,0.1
		c-0.4,0.4-0.7,0.7-1,1c0,0-0.1-0.1-0.1-0.1c-0.6-0.6-1.3-1.3-1.9-1.9c-0.1-0.1-0.2-0.1-0.4-0.1c-1,0-1.9,0-2.9,0h-0.2V17z"/>
</g>
</svg>
