<?xml version="1.0" encoding="utf-8"?>
<!-- Generator: Adobe Illustrator 27.5.0, SVG Export Plug-In . SVG Version: 6.00 Build 0)  -->
<svg version="1.1" id="Layer_1" xmlns="http://www.w3.org/2000/svg" xmlns:xlink="http://www.w3.org/1999/xlink" x="0px" y="0px"
	 viewBox="0 0 26.26 8.78" style="enable-background:new 0 0 26.26 8.78;" xml:space="preserve">
<style type="text/css">
	.st0{fill:#3B6DAB;}
	.st1{fill:#29417A;}
	.st2{fill:#FFFFFF;}
</style>
<g>
	<path class="st0" d="M1.17,2.85v0.12c0,1.76,0,3.47,0,5.23c0,0.12,0,0.12-0.12,0.12c-0.31,0-0.66,0-0.98,0C0.04,8.31,0,8.31,0,8.23
		C0,5.5,0,2.77,0,0.04c0,0,0,0,0-0.04c1.91,1.99,3.78,3.94,5.66,5.93H5.7c0-0.04,0-0.08,0-0.12c0-1.72,0-3.47,0-5.19
		c0-0.12,0-0.12,0.12-0.12c0.31,0,0.66,0,0.98,0c0.08,0,0.08,0,0.08,0.08c0,2.69,0,5.38,0,8.12c0,0,0,0.04,0,0.08
		C4.96,6.79,3.08,4.8,1.17,2.85L1.17,2.85z"/>
	<path class="st1" d="M13.62,5.81c0,1.44-1.17,2.61-2.65,2.61c-1.44,0-2.58-1.17-2.58-2.65C8.39,4.33,9.6,3.2,11,3.2
		C12.45,3.2,13.62,4.37,13.62,5.81z M10.26,5.35L10.26,5.35H9.4v0.55h1.68V3.98c-0.16,0-0.31,0-0.43,0c-0.08,0-0.08,0-0.08,0.08
		c0,0.27,0,0.51,0,0.78c0,0.04,0,0.04,0,0.08c-0.31-0.31-0.59-0.62-0.9-0.94C9.56,4.1,9.44,4.25,9.33,4.37
		C9.64,4.68,9.95,5.03,10.26,5.35z M10.14,6.13v0.55h0.08c0.39,0,0.74,0,1.13,0c0.08,0,0.12,0,0.16,0.04
		c0.23,0.23,0.51,0.51,0.74,0.74c0.04,0.04,0.04,0.04,0.04,0.04c0.12-0.12,0.27-0.27,0.39-0.39c0,0-0.04-0.04-0.08-0.04
		c-0.23-0.23-0.47-0.47-0.74-0.74c-0.04-0.04-0.08-0.08-0.08-0.16c0-0.43,0-0.86,0-1.33V4.76c-0.16,0-0.31,0-0.47,0
		c-0.08,0-0.08,0-0.08,0.08c0,0.39,0,0.78,0,1.13c0,0.08,0,0.08-0.08,0.08c-0.31,0-0.66,0-0.98,0C10.22,6.13,10.18,6.13,10.14,6.13z
		"/>
	<path class="st0" d="M14.16,3.39c0.04,0,0.08,0,0.08,0c0.35,0,0.7,0,1.05,0c0.08,0,0.12,0.04,0.12,0.08
		c0.39,0.86,0.78,1.72,1.17,2.58c0,0.04,0.04,0.08,0.08,0.12c0.04-0.04,0.04-0.08,0.04-0.08c0.39-0.86,0.78-1.72,1.21-2.61
		c0.04-0.04,0.04-0.08,0.12-0.08c0.35,0,0.74,0,1.09,0c0.04,0,0.04,0,0.08,0c-0.86,1.76-1.68,3.47-2.54,5.23
		C15.84,6.87,15.02,5.15,14.16,3.39z"/>
	<path class="st0" d="M24.19,3.82c0.31-0.35,0.66-0.59,1.17-0.59c0.31,0,0.62,0.12,0.9,0.27c-0.16,0.35-0.35,0.66-0.51,1.01
		c-0.04-0.04-0.08-0.04-0.12-0.08c-0.16-0.12-0.35-0.16-0.55-0.16c-0.35,0-0.62,0.16-0.78,0.51c-0.08,0.23-0.16,0.47-0.16,0.7
		c0,0.9,0,1.76,0,2.65c0,0.12,0,0.12-0.12,0.12c-0.31,0-0.62,0-0.94,0c-0.08,0-0.08-0.04-0.08-0.08c0-1.56,0-3.16,0-4.72
		c0-0.08,0.04-0.08,0.08-0.08c0.31,0,0.62,0,0.94,0c0.08,0,0.08,0.04,0.08,0.08c0,0.08,0,0.16,0,0.23
		C24.15,3.75,24.15,3.78,24.19,3.82C24.15,3.82,24.15,3.82,24.19,3.82z"/>
	<path class="st0" d="M21.34,5.85c0,0.78,0,1.56,0,2.34c0,0.12,0,0.12-0.08,0.12c-0.31,0-0.62,0-0.94,0c-0.08,0-0.08,0-0.08-0.08
		c0-1.6,0-3.16,0-4.76c0-0.08,0.04-0.08,0.08-0.08c0.31,0,0.62,0,0.94,0c0.08,0,0.08,0,0.08,0.08C21.34,4.25,21.34,5.07,21.34,5.85z
		"/>
	<path class="st0" d="M20.8,0.59c0.35-0.04,0.74,0.27,0.74,0.74c0,0.39-0.31,0.74-0.74,0.74c-0.43,0-0.74-0.31-0.74-0.74
		C20.06,0.94,20.41,0.59,20.8,0.59z"/>
	<path class="st2" d="M10.26,5.35C9.95,5.03,9.64,4.68,9.33,4.37C9.44,4.25,9.56,4.1,9.68,3.98c0.31,0.31,0.59,0.62,0.9,0.94
		c0-0.04,0-0.08,0-0.08c0-0.27,0-0.51,0-0.78c0-0.04,0-0.08,0.08-0.08c0.16,0,0.27,0,0.43,0v1.91H9.4V5.35H10.26L10.26,5.35z"/>
	<path class="st2" d="M10.14,6.13c0.04,0,0.08,0,0.12,0c0.31,0,0.66,0,0.98,0c0.08,0,0.08,0,0.08-0.08c0-0.39,0-0.78,0-1.13
		c0-0.08,0.04-0.08,0.08-0.08c0.16,0,0.31,0,0.47,0v0.08c0,0.43,0,0.86,0,1.33c0,0.08,0,0.12,0.08,0.16
		c0.23,0.23,0.47,0.47,0.74,0.74c0.04,0.04,0.04,0.04,0.08,0.04c-0.16,0.16-0.27,0.27-0.39,0.39l-0.04-0.04
		c-0.23-0.23-0.51-0.51-0.74-0.74c-0.04-0.04-0.08-0.04-0.16-0.04c-0.39,0-0.74,0-1.13,0h-0.08V6.13H10.14z"/>
</g>
</svg>
