<?xml version="1.0" encoding="utf-8"?>
<!-- Generator: Adobe Illustrator 27.5.0, SVG Export Plug-In . SVG Version: 6.00 Build 0)  -->
<svg version="1.1" id="Layer_1" xmlns="http://www.w3.org/2000/svg" xmlns:xlink="http://www.w3.org/1999/xlink" x="0px" y="0px"
	 viewBox="0 0 26.72 8.9" style="enable-background:new 0 0 26.72 8.9;" xml:space="preserve">
<style type="text/css">
	.st0{fill:#FFFFFF;}
</style>
<path class="st0" d="M1.19,2.9v0.11c0,1.78,0,3.55,0,5.33c0,0.13,0,0.13-0.11,0.13c-0.32,0-0.65,0-1,0C0.02,8.47,0,8.45,0,8.38
	c0-2.77,0-5.57,0-8.34c0,0,0-0.02,0-0.04c1.95,1.99,3.85,4.01,5.78,6.02H5.8c0-0.04,0-0.06,0-0.11c0-1.78,0-3.53,0-5.31
	c0-0.11,0-0.11,0.11-0.11c0.32,0,0.65,0,1,0c0.06,0,0.09,0.02,0.09,0.09c0,2.75,0,5.5,0,8.25c0,0.02,0,0.04,0,0.06
	C5.07,6.89,3.14,4.87,1.21,2.88L1.19,2.9z"/>
<path class="st0" d="M14.44,3.44c0.04,0,0.06,0,0.11,0c0.37,0,0.71,0,1.08,0c0.06,0,0.11,0.02,0.13,0.09
	c0.39,0.87,0.8,1.73,1.19,2.6c0.02,0.04,0.04,0.06,0.06,0.13c0.02-0.04,0.04-0.06,0.04-0.09c0.41-0.89,0.8-1.75,1.21-2.64
	c0.02-0.06,0.04-0.09,0.11-0.09c0.37,0,0.76,0,1.13,0c0.02,0,0.04,0,0.09,0c-0.87,1.78-1.73,3.55-2.6,5.33
	C16.15,6.99,15.31,5.22,14.44,3.44z"/>
<path class="st0" d="M24.62,3.88c0.32-0.35,0.69-0.61,1.17-0.58c0.32,0.02,0.63,0.13,0.93,0.3c-0.17,0.35-0.35,0.69-0.52,1.04
	c-0.04-0.02-0.06-0.04-0.11-0.06c-0.17-0.11-0.35-0.17-0.54-0.17c-0.37,0-0.65,0.17-0.8,0.52c-0.11,0.22-0.15,0.45-0.15,0.69
	c0,0.91,0,1.8-0.02,2.71c0,0.11,0,0.11-0.11,0.11c-0.3,0-0.63,0-0.93,0c-0.06,0-0.09-0.02-0.09-0.09c0-1.6,0-3.2,0-4.83
	c0-0.06,0.02-0.09,0.09-0.09c0.32,0,0.63,0,0.95,0c0.06,0,0.09,0.02,0.09,0.09c0,0.09,0,0.17,0,0.26c0,0.02,0,0.04,0,0.06
	C24.6,3.85,24.62,3.88,24.62,3.88z"/>
<path class="st0" d="M21.76,5.96c0,0.8,0,1.6,0,2.38c0,0.11,0,0.11-0.11,0.11c-0.32,0-0.63,0-0.95,0c-0.06,0-0.09-0.02-0.09-0.09
	c0-1.6,0-3.23,0-4.83c0-0.06,0.02-0.09,0.09-0.09c0.32,0,0.63,0,0.95,0c0.06,0,0.11,0.02,0.11,0.09
	C21.76,4.33,21.76,5.13,21.76,5.96z"/>
<path class="st0" d="M21.18,0.61c0.37-0.02,0.76,0.3,0.76,0.74c0,0.41-0.32,0.74-0.74,0.74c-0.43,0-0.74-0.32-0.76-0.76
	C20.44,0.95,20.81,0.58,21.18,0.61z"/>
<path class="st0" d="M11.22,3.25c-1.43,0-2.64,1.13-2.66,2.62c-0.02,1.49,1.17,2.69,2.62,2.69c1.49,0.02,2.69-1.17,2.69-2.64
	C13.88,4.44,12.69,3.27,11.22,3.25z M9.51,4.44L9.51,4.44L9.51,4.44c0.06-0.06,0.11-0.13,0.17-0.17C9.74,4.2,9.81,4.14,9.87,4.05
	l0,0l0,0c0.3,0.32,0.58,0.63,0.91,0.95c0-0.04,0-0.06,0-0.09c0-0.26,0-0.52,0-0.78c0-0.02,0-0.02,0-0.04c0,0,0,0,0-0.02
	c0,0,0,0,0-0.02c0.02-0.02,0.02-0.02,0.06-0.02c0.15,0,0.3,0,0.45,0v1.95l0,0l0,0H9.59V5.44l0,0l0,0h0.84l0,0V5.41
	C10.16,5.11,9.83,4.76,9.51,4.44z M12.58,7.67c-0.02-0.02-0.04-0.02-0.06-0.04c-0.26-0.26-0.5-0.5-0.76-0.76
	c-0.04-0.04-0.09-0.06-0.15-0.06c-0.39,0-0.78,0-1.17,0h-0.09V6.24c0.04,0,0.06,0,0.11,0l0,0c0.32,0,0.67,0,1,0
	c0.02,0,0.04,0,0.04,0c0.02-0.02,0.02-0.04,0.02-0.06c0-0.39,0-0.78,0-1.17c0-0.06,0.02-0.09,0.09-0.09c0.09,0,0.15,0,0.24,0
	s0.15,0,0.24,0l0,0V5c0,0.45,0,0.89,0,1.34c0,0.06,0.02,0.11,0.06,0.15c0.24,0.24,0.5,0.5,0.74,0.74c0.02,0.02,0.04,0.04,0.06,0.04
	C12.84,7.41,12.71,7.54,12.58,7.67z"/>
</svg>
