<?xml version="1.0" encoding="utf-8"?>
<!-- Generator: Adobe Illustrator 27.5.0, SVG Export Plug-In . SVG Version: 6.00 Build 0)  -->
<svg version="1.1" id="Layer_1" xmlns="http://www.w3.org/2000/svg" xmlns:xlink="http://www.w3.org/1999/xlink" x="0px" y="0px"
	 viewBox="0 0 26.3 8.8" style="enable-background:new 0 0 26.3 8.8;" xml:space="preserve">
<style type="text/css">
	.st0{fill:#3B6DAB;}
	.st1{fill:#29417A;}
	.st2{fill:#FFFFFF;}
</style>
<g>
	<path class="st0" d="M1.2,2.8V3c0,1.8,0,3.5,0,5.2c0,0.1,0,0.1-0.1,0.1c-0.3,0-0.7,0-1,0c0,0-0.1,0-0.1-0.1C0,5.5,0,2.8,0,0
		c0,0,0,0,0,0c1.9,2,3.8,3.9,5.7,5.9h0c0,0,0-0.1,0-0.1c0-1.7,0-3.5,0-5.2c0-0.1,0-0.1,0.1-0.1c0.3,0,0.7,0,1,0c0.1,0,0.1,0,0.1,0.1
		c0,2.7,0,5.4,0,8.1c0,0,0,0,0,0.1C5,6.8,3.1,4.8,1.2,2.8L1.2,2.8z"/>
	<path class="st1" d="M13.6,5.8c0,1.4-1.2,2.6-2.7,2.6c-1.4,0-2.6-1.2-2.6-2.7c0-1.4,1.2-2.6,2.6-2.6C12.4,3.2,13.6,4.4,13.6,5.8z
		 M10.3,5.3L10.3,5.3H9.4v0.6h1.7V4c-0.2,0-0.3,0-0.4,0c-0.1,0-0.1,0-0.1,0.1c0,0.3,0,0.5,0,0.8c0,0,0,0,0,0.1
		C10.3,4.6,10,4.3,9.7,4C9.6,4.1,9.4,4.2,9.3,4.4C9.6,4.7,9.9,5,10.3,5.3z"/>
	<path class="st0" d="M14.2,3.4C14.2,3.4,14.2,3.4,14.2,3.4c0.4,0,0.8,0,1.1,0c0.1,0,0.1,0,0.1,0.1c0.4,0.9,0.8,1.7,1.2,2.6
		c0,0,0,0.1,0.1,0.1c0,0,0-0.1,0-0.1c0.4-0.9,0.8-1.7,1.2-2.6c0,0,0-0.1,0.1-0.1c0.4,0,0.7,0,1.1,0c0,0,0,0,0.1,0
		c-0.9,1.8-1.7,3.5-2.5,5.2C15.8,6.9,15,5.2,14.2,3.4z"/>
	<path class="st0" d="M24.2,3.8c0.3-0.3,0.7-0.6,1.2-0.6c0.3,0,0.6,0.1,0.9,0.3c-0.2,0.3-0.4,0.7-0.5,1c0,0-0.1,0-0.1-0.1
		c-0.2-0.1-0.4-0.2-0.5-0.2c-0.4,0-0.6,0.2-0.8,0.5c-0.1,0.2-0.2,0.5-0.2,0.7c0,0.9,0,1.8,0,2.7c0,0.1,0,0.1-0.1,0.1
		c-0.3,0-0.6,0-0.9,0c-0.1,0-0.1,0-0.1-0.1c0-1.6,0-3.2,0-4.7c0-0.1,0-0.1,0.1-0.1c0.3,0,0.6,0,0.9,0c0.1,0,0.1,0,0.1,0.1
		c0,0.1,0,0.2,0,0.2C24.1,3.8,24.1,3.8,24.2,3.8C24.1,3.8,24.1,3.8,24.2,3.8z"/>
	<path class="st0" d="M21.3,5.8c0,0.8,0,1.6,0,2.3c0,0.1,0,0.1-0.1,0.1c-0.3,0-0.6,0-0.9,0c-0.1,0-0.1,0-0.1-0.1c0-1.6,0-3.2,0-4.8
		c0-0.1,0-0.1,0.1-0.1c0.3,0,0.6,0,0.9,0c0.1,0,0.1,0,0.1,0.1C21.3,4.2,21.3,5.1,21.3,5.8z"/>
	<path class="st0" d="M20.8,0.6c0.4,0,0.7,0.3,0.7,0.7c0,0.4-0.3,0.7-0.7,0.7s-0.7-0.3-0.7-0.7C20.1,0.9,20.4,0.6,20.8,0.6z"/>
</g>
<path class="st2" d="M10.1,6.1c0,0,0.1,0,0.1,0c0.3,0,0.7,0,1,0c0.1,0,0.1,0,0.1-0.1c0-0.4,0-0.8,0-1.1c0-0.1,0-0.1,0.1-0.1
	c0.2,0,0.3,0,0.5,0v0.1c0,0.4,0,0.9,0,1.3c0,0.1,0,0.1,0.1,0.2c0.2,0.2,0.5,0.5,0.7,0.7c0,0,0,0,0.1,0c-0.2,0.2-0.3,0.3-0.4,0.4l0,0
	c-0.2-0.2-0.5-0.5-0.7-0.7c0,0-0.1,0-0.2,0c-0.4,0-0.7,0-1.1,0h-0.1L10.1,6.1L10.1,6.1z"/>
</svg>
