<?xml version="1.0" encoding="utf-8"?>
<!-- Generator: Adobe Illustrator 27.5.0, SVG Export Plug-In . SVG Version: 6.00 Build 0)  -->
<svg version="1.1" id="Layer_1" xmlns="http://www.w3.org/2000/svg" xmlns:xlink="http://www.w3.org/1999/xlink" x="0px" y="0px"
	 viewBox="0 0 150.92 12.8" style="enable-background:new 0 0 150.92 12.8;" xml:space="preserve">
<style type="text/css">
	.st0{fill:#FFFFFF;}
</style>
<path class="st0" d="M66.27,5.23v0.08c0,1.34,0,2.68,0,4.03c0,0.1,0,0.1-0.08,0.1c-0.24,0-0.49,0-0.76,0
	c-0.05,0-0.06-0.02-0.06-0.07c0-2.09,0-4.21,0-6.3c0,0,0-0.02,0-0.03c1.47,1.5,2.91,3.03,4.37,4.55h0.02c0-0.03,0-0.05,0-0.08
	c0-1.34,0-2.67,0-4.01c0-0.08,0-0.08,0.08-0.08c0.24,0,0.49,0,0.76,0c0.05,0,0.07,0.02,0.07,0.07c0,2.08,0,4.15,0,6.23
	c0,0.02,0,0.03,0,0.05c-1.46-1.51-2.92-3.04-4.37-4.54L66.27,5.23z"/>
<path class="st0" d="M76.28,5.64c0.03,0,0.05,0,0.08,0c0.28,0,0.54,0,0.82,0c0.05,0,0.08,0.02,0.1,0.07c0.29,0.66,0.6,1.31,0.9,1.96
	c0.02,0.03,0.03,0.05,0.05,0.1c0.02-0.03,0.03-0.05,0.03-0.07c0.31-0.67,0.6-1.32,0.91-1.99c0.02-0.05,0.03-0.07,0.08-0.07
	c0.28,0,0.57,0,0.85,0c0.02,0,0.03,0,0.07,0c-0.66,1.34-1.31,2.68-1.96,4.03C77.57,8.32,76.93,6.98,76.28,5.64z"/>
<path class="st0" d="M83.96,5.97c0.24-0.26,0.52-0.46,0.88-0.44c0.24,0.02,0.48,0.1,0.7,0.23c-0.13,0.26-0.26,0.52-0.39,0.79
	c-0.03-0.02-0.05-0.03-0.08-0.05c-0.13-0.08-0.26-0.13-0.41-0.13c-0.28,0-0.49,0.13-0.6,0.39c-0.08,0.17-0.11,0.34-0.11,0.52
	c0,0.69,0,1.36-0.02,2.05c0,0.08,0,0.08-0.08,0.08c-0.23,0-0.48,0-0.7,0c-0.05,0-0.07-0.02-0.07-0.07c0-1.21,0-2.42,0-3.65
	c0-0.05,0.02-0.07,0.07-0.07c0.24,0,0.48,0,0.72,0c0.05,0,0.07,0.02,0.07,0.07c0,0.07,0,0.13,0,0.2c0,0.02,0,0.03,0,0.05
	C83.95,5.95,83.96,5.97,83.96,5.97z"/>
<path class="st0" d="M81.8,7.54c0,0.6,0,1.21,0,1.8c0,0.08,0,0.08-0.08,0.08c-0.24,0-0.48,0-0.72,0c-0.05,0-0.07-0.02-0.07-0.07
	c0-1.21,0-2.44,0-3.65c0-0.05,0.02-0.07,0.07-0.07c0.24,0,0.48,0,0.72,0c0.05,0,0.08,0.02,0.08,0.07C81.8,6.31,81.8,6.91,81.8,7.54z
	"/>
<path class="st0" d="M81.37,3.5c0.28-0.02,0.57,0.23,0.57,0.56c0,0.31-0.24,0.56-0.56,0.56c-0.32,0-0.56-0.24-0.57-0.57
	C80.81,3.76,81.09,3.48,81.37,3.5z"/>
<path class="st0" d="M73.84,5.49c-1.08,0-1.99,0.85-2.01,1.98s0.88,2.03,1.98,2.03c1.13,0.02,2.03-0.88,2.03-1.99
	C75.85,6.39,74.95,5.51,73.84,5.49z M72.55,6.39L72.55,6.39L72.55,6.39c0.05-0.05,0.08-0.1,0.13-0.13c0.05-0.05,0.1-0.1,0.14-0.17
	l0,0l0,0c0.23,0.24,0.44,0.48,0.69,0.72c0-0.03,0-0.05,0-0.07c0-0.2,0-0.39,0-0.59c0-0.02,0-0.02,0-0.03c0,0,0,0,0-0.02
	c0,0,0,0,0-0.02c0.02-0.02,0.02-0.02,0.05-0.02c0.11,0,0.23,0,0.34,0v1.47l0,0l0,0h-1.28V7.15l0,0l0,0h0.63l0,0V7.12
	C73.04,6.9,72.79,6.63,72.55,6.39z M74.87,8.83c-0.02-0.02-0.03-0.02-0.05-0.03c-0.2-0.2-0.38-0.38-0.57-0.57
	c-0.03-0.03-0.07-0.05-0.11-0.05c-0.29,0-0.59,0-0.88,0h-0.07V7.75c0.03,0,0.05,0,0.08,0l0,0c0.24,0,0.51,0,0.76,0
	c0.02,0,0.03,0,0.03,0c0.02-0.02,0.02-0.03,0.02-0.05c0-0.29,0-0.59,0-0.88c0-0.05,0.02-0.07,0.07-0.07c0.07,0,0.11,0,0.18,0
	c0.07,0,0.11,0,0.18,0l0,0v0.06c0,0.34,0,0.67,0,1.01c0,0.05,0.02,0.08,0.05,0.11c0.18,0.18,0.38,0.38,0.56,0.56
	c0.02,0.02,0.03,0.03,0.05,0.03C75.07,8.63,74.97,8.73,74.87,8.83z"/>
</svg>
