<?xml version="1.0" encoding="utf-8"?>
<!-- Generator: Adobe Illustrator 27.5.0, SVG Export Plug-In . SVG Version: 6.00 Build 0)  -->
<svg version="1.1" id="Layer_1" xmlns="http://www.w3.org/2000/svg" xmlns:xlink="http://www.w3.org/1999/xlink" x="0px" y="0px"
	 viewBox="0 0 246.2 82.3" style="enable-background:new 0 0 246.2 82.3;" xml:space="preserve">
<style type="text/css">
	.st0{fill:#396CAB;}
	.st1{fill:#214185;}
	.st2{fill:#FFFFFF;}
</style>
<g>
	<path class="st0" d="M11,26.7v1.1c0,16.5,0,32.5,0,49C11,78,11,78,9.8,78c-2.9,0-6.2,0-9.2,0C0.4,77.9,0,77.9,0,77.2
		C0,51.6,0,26,0,0.4c0,0,0,0,0-0.4c17.9,18.7,35.4,36.9,53.1,55.6h0.4c0-0.4,0-0.8,0-1.1c0-16.1,0-32.5,0-48.7c0-1.1,0-1.1,1.1-1.1
		c2.9,0,6.2,0,9.2,0c0.8,0,0.8,0,0.8,0.7c0,25.2,0,50.4,0,76.1c0,0,0,0.4,0,0.8C46.5,63.7,28.9,45,11,26.7L11,26.7z"/>
	<path class="st1" d="M127.7,54.5c0,13.5-11,24.5-24.8,24.5c-13.5,0-24.2-11-24.2-24.8C78.7,40.6,90,30,103.1,30
		C116.7,30,127.7,41,127.7,54.5z"/>
	<path class="st0" d="M132.8,31.8c0.4,0,0.8,0,0.8,0c3.3,0,6.6,0,9.8,0c0.8,0,1.1,0.4,1.1,0.7c3.7,8.1,7.3,16.1,11,24.2
		c0,0.4,0.4,0.8,0.8,1.1c0.4-0.4,0.4-0.8,0.4-0.8c3.7-8.1,7.3-16.1,11.3-24.5c0.4-0.4,0.4-0.8,1.1-0.8c3.3,0,6.9,0,10.2,0
		c0.4,0,0.4,0,0.7,0c-8.1,16.5-15.8,32.5-23.8,49C148.5,64.4,140.8,48.3,132.8,31.8z"/>
	<path class="st0" d="M226.8,35.8c2.9-3.3,6.2-5.5,11-5.5c2.9,0,5.8,1.1,8.4,2.5c-1.5,3.3-3.3,6.2-4.8,9.5c-0.4-0.4-0.8-0.4-1.1-0.8
		c-1.5-1.1-3.3-1.5-5.2-1.5c-3.3,0-5.8,1.5-7.3,4.8c-0.8,2.2-1.5,4.4-1.5,6.6c0,8.4,0,16.5,0,24.8c0,1.1,0,1.1-1.1,1.1
		c-2.9,0-5.8,0-8.8,0c-0.8,0-0.8-0.4-0.8-0.8c0-14.6,0-29.6,0-44.2c0-0.8,0.4-0.8,0.8-0.8c2.9,0,5.8,0,8.8,0c0.8,0,0.8,0.4,0.8,0.8
		c0,0.8,0,1.5,0,2.2C226.4,35.2,226.4,35.4,226.8,35.8C226.4,35.8,226.4,35.8,226.8,35.8z"/>
	<path class="st0" d="M200.1,54.8c0,7.3,0,14.6,0,21.9c0,1.1,0,1.1-0.8,1.1c-2.9,0-5.8,0-8.8,0c-0.8,0-0.8,0-0.8-0.8
		c0-15,0-29.6,0-44.6c0-0.7,0.4-0.7,0.8-0.7c2.9,0,5.8,0,8.8,0c0.8,0,0.8,0,0.8,0.7C200.1,39.8,200.1,47.5,200.1,54.8z"/>
	<path class="st0" d="M195,5.5c3.3-0.4,6.9,2.5,6.9,6.9c0,3.7-2.9,6.9-6.9,6.9c-4,0-6.9-2.9-6.9-6.9C188.1,8.8,191.3,5.5,195,5.5z"
		/>
	<path class="st2" d="M96.2,50.2c-2.9-3-5.8-6.3-8.7-9.2c1-1.1,2.2-2.5,3.3-3.7c2.9,2.9,5.5,5.8,8.4,8.8c0-0.4,0-0.8,0-0.8
		c0-2.5,0-4.8,0-7.3c0-0.4,0-0.8,0.8-0.8c1.5,0,2.5,0,4,0v17.9H88.1v-5.1H96.2L96.2,50.2z"/>
	<path class="st2" d="M94.2,56.7c0.4,0,0.8,0,1.1,0c2.9,0,6.2,0,9.2,0c0.8,0,0.8,0,0.8-0.8c0-3.7,0-7.3,0-10.6
		c0-0.8,0.4-0.8,0.8-0.8c1.5,0,2.9,0,4.4,0v0.8c0,4,0,8.1,0,12.5c0,0.8,0,1.1,0.8,1.5c2.2,2.2,4.4,4.4,6.9,6.9
		c0.4,0.4,0.4,0.4,0.8,0.4c-1.5,1.5-2.5,2.5-3.7,3.7l-0.4-0.4c-2.2-2.2-4.8-4.8-6.9-6.9c-0.4-0.4-0.8-0.4-1.5-0.4
		c-3.7,0-6.9,0-10.6,0h-0.8v-5.9H94.2z"/>
</g>
</svg>
