<?xml version="1.0" encoding="utf-8"?>
<!-- Generator: Adobe Illustrator 27.5.0, SVG Export Plug-In . SVG Version: 6.00 Build 0)  -->
<svg version="1.1" id="Layer_1" xmlns="http://www.w3.org/2000/svg" xmlns:xlink="http://www.w3.org/1999/xlink" x="0px" y="0px"
	 viewBox="0 0 259.4 87.2" style="enable-background:new 0 0 259.4 87.2;" xml:space="preserve">
<style type="text/css">
	.st0{fill:#396CAB;}
	.st1{fill:#214185;}
	.st2{fill:#FFFFFF;}
</style>
<path class="st0" d="M17.2,28.8v50.1c0,0.8-0.4,1.2-1.2,1.2H6.8C6.6,80,6.2,80,6.2,79.3V2.1C24.1,20.8,41.6,39,59.3,57.7h0.4V7.9
	c0-0.7,0.4-1.1,1.1-1.1H70c0.5,0,0.8,0.2,0.8,0.7v76.9C52.7,65.8,35.1,47.1,17.2,28.8z"/>
<path class="st1" d="M133.9,56.6c0,13.5-11,24.5-24.8,24.5s-24.2-11-24.2-24.8s11.3-24.2,24.4-24.2S133.9,43.1,133.9,56.6z"/>
<path class="st0" d="M139,33.9h10.6c0.8,0,1.1,0.4,1.1,0.7c3.7,8.1,7.3,16.1,11,24.2c0,0.4,0.4,0.8,0.8,1.1c0.4-0.4,0.4-0.8,0.4-0.8
	c3.7-8.1,7.3-16.1,11.3-24.5c0.4-0.4,0.4-0.8,1.1-0.8h10.9c-8.1,16.5-15.8,32.5-23.8,49C154.7,66.5,147,50.4,139,33.9z"/>
<path class="st0" d="M233,37.9c2.9-3.3,6.2-5.5,11-5.5c2.9,0,5.8,1.1,8.4,2.5c-1.5,3.3-3.3,6.2-4.8,9.5c-0.4-0.4-0.8-0.4-1.1-0.8
	c-1.5-1.1-3.3-1.5-5.2-1.5c-3.3,0-5.8,1.5-7.3,4.8c-0.8,2.2-1.5,4.4-1.5,6.6v24.8c0,0.7-0.4,1.1-1.1,1.1h-8.8
	c-0.8,0-0.8-0.4-0.8-0.8V34.4c0-0.8,0.4-0.8,0.8-0.8h8.8c0.8,0,0.8,0.4,0.8,0.8v2.2C232.6,37.3,232.6,37.5,233,37.9
	C232.7,37.9,232.7,37.9,233,37.9z"/>
<path class="st0" d="M206.3,56.9v21.9c0,0.7-0.3,1.1-0.8,1.1h-8.8c-0.5,0-0.8-0.3-0.8-0.8V34.5c0-0.7,0.4-0.7,0.8-0.7h8.8
	c0.5,0,0.8,0.2,0.8,0.7V56.9z"/>
<path class="st0" d="M201.2,7.6c3.3-0.4,6.9,2.5,6.9,6.9c0,3.7-2.9,6.9-6.9,6.9s-6.9-2.9-6.9-6.9C194.3,10.9,197.5,7.6,201.2,7.6z"
	/>
<path class="st2" d="M102.4,52.3c-2.9-3-5.8-6.3-8.7-9.2c1-1.1,2.2-2.5,3.3-3.7c2.9,2.9,5.5,5.8,8.4,8.8v-8.1c0-0.4,0-0.8,0.8-0.8h4
	v17.9H94.3v-5.1h8.1V52.3z"/>
<path class="st2" d="M100.4,58.8h10.3c0.5,0,0.8-0.3,0.8-0.8V47.4c0-0.8,0.4-0.8,0.8-0.8h4.4v13.3c0,0.8,0,1.1,0.8,1.5
	c2.2,2.2,4.4,4.4,6.9,6.9c0.3,0.3,0.5,0.4,0.8,0.4l-3.7,3.7l-0.4-0.4l-6.9-6.9c-0.4-0.4-0.8-0.4-1.5-0.4h-11.4v-5.9
	C101.3,58.8,100.4,58.8,100.4,58.8z"/>
</svg>
