<?xml version="1.0" encoding="utf-8"?>
<!-- Generator: Adobe Illustrator 27.5.0, SVG Export Plug-In . SVG Version: 6.00 Build 0)  -->
<svg version="1.1" id="Layer_1" xmlns="http://www.w3.org/2000/svg" xmlns:xlink="http://www.w3.org/1999/xlink" x="0px" y="0px"
	 viewBox="0 0 104.94 8.9" style="enable-background:new 0 0 104.94 8.9;" xml:space="preserve">
<style type="text/css">
	.st0{fill:#FFFFFF;}
</style>
<path class="st0" d="M43.28,3.28v0.08c0,1.34,0,2.68,0,4.03c0,0.1,0,0.1-0.08,0.1c-0.24,0-0.49,0-0.76,0
	c-0.05,0-0.06-0.02-0.06-0.07c0-2.09,0-4.21,0-6.3c0,0,0-0.02,0-0.03c1.47,1.5,2.91,3.03,4.37,4.55h0.02c0-0.03,0-0.05,0-0.08
	c0-1.34,0-2.67,0-4.01c0-0.08,0-0.08,0.08-0.08c0.24,0,0.49,0,0.76,0c0.05,0,0.07,0.02,0.07,0.07c0,2.08,0,4.15,0,6.23
	c0,0.02,0,0.03,0,0.05c-1.46-1.51-2.92-3.04-4.37-4.54L43.28,3.28z"/>
<path class="st0" d="M53.28,3.69c0.03,0,0.05,0,0.08,0c0.28,0,0.54,0,0.82,0c0.05,0,0.08,0.02,0.1,0.07c0.29,0.66,0.6,1.31,0.9,1.96
	c0.02,0.03,0.03,0.05,0.05,0.1c0.02-0.03,0.03-0.05,0.03-0.07c0.31-0.67,0.6-1.32,0.91-1.99c0.02-0.05,0.03-0.07,0.08-0.07
	c0.28,0,0.57,0,0.85,0c0.02,0,0.03,0,0.07,0c-0.66,1.34-1.31,2.68-1.96,4.03C54.58,6.37,53.94,5.03,53.28,3.69z"/>
<path class="st0" d="M60.97,4.02c0.24-0.26,0.52-0.46,0.88-0.44c0.24,0.02,0.48,0.1,0.7,0.23c-0.13,0.26-0.26,0.52-0.39,0.79
	c-0.03-0.02-0.05-0.03-0.08-0.05c-0.13-0.08-0.26-0.13-0.41-0.13c-0.28,0-0.49,0.13-0.6,0.39c-0.08,0.17-0.11,0.34-0.11,0.52
	c0,0.69,0,1.36-0.02,2.05c0,0.08,0,0.08-0.08,0.08c-0.23,0-0.48,0-0.7,0c-0.05,0-0.07-0.02-0.07-0.07c0-1.21,0-2.42,0-3.65
	c0-0.05,0.02-0.07,0.07-0.07c0.24,0,0.48,0,0.72,0c0.05,0,0.07,0.02,0.07,0.07c0,0.07,0,0.13,0,0.2c0,0.02,0,0.03,0,0.05
	C60.96,4,60.97,4.02,60.97,4.02z"/>
<path class="st0" d="M58.81,5.59c0,0.6,0,1.21,0,1.8c0,0.08,0,0.08-0.08,0.08c-0.24,0-0.48,0-0.72,0c-0.05,0-0.07-0.02-0.07-0.07
	c0-1.21,0-2.44,0-3.65c0-0.05,0.02-0.07,0.07-0.07c0.24,0,0.48,0,0.72,0c0.05,0,0.08,0.02,0.08,0.07
	C58.81,4.36,58.81,4.96,58.81,5.59z"/>
<path class="st0" d="M58.37,1.55c0.28-0.02,0.57,0.23,0.57,0.56c0,0.31-0.24,0.56-0.56,0.56c-0.32,0-0.56-0.24-0.57-0.57
	C57.82,1.81,58.09,1.53,58.37,1.55z"/>
<path class="st0" d="M50.85,3.54c-1.08,0-1.99,0.85-2.01,1.98s0.88,2.03,1.98,2.03c1.13,0.02,2.03-0.88,2.03-1.99
	C52.86,4.44,51.96,3.56,50.85,3.54z M49.56,4.44L49.56,4.44L49.56,4.44c0.05-0.05,0.08-0.1,0.13-0.13c0.05-0.05,0.1-0.1,0.14-0.17
	l0,0l0,0c0.23,0.24,0.44,0.48,0.69,0.72c0-0.03,0-0.05,0-0.07c0-0.2,0-0.39,0-0.59c0-0.02,0-0.02,0-0.03c0,0,0,0,0-0.02
	c0,0,0,0,0-0.02c0.02-0.02,0.02-0.02,0.05-0.02c0.11,0,0.23,0,0.34,0V5.6l0,0l0,0h-1.28V5.2l0,0l0,0h0.63l0,0V5.17
	C50.05,4.95,49.8,4.68,49.56,4.44z M51.88,6.88c-0.02-0.02-0.03-0.02-0.05-0.03c-0.2-0.2-0.38-0.38-0.57-0.57
	c-0.03-0.03-0.07-0.05-0.11-0.05c-0.29,0-0.59,0-0.88,0h-0.07V5.8c0.03,0,0.05,0,0.08,0l0,0c0.24,0,0.51,0,0.76,0
	c0.02,0,0.03,0,0.03,0c0.02-0.02,0.02-0.03,0.02-0.05c0-0.29,0-0.59,0-0.88c0-0.05,0.02-0.07,0.07-0.07c0.07,0,0.11,0,0.18,0
	s0.11,0,0.18,0l0,0v0.06c0,0.34,0,0.67,0,1.01c0,0.05,0.02,0.08,0.05,0.11c0.18,0.18,0.38,0.38,0.56,0.56
	c0.02,0.02,0.03,0.03,0.05,0.03C52.08,6.68,51.98,6.78,51.88,6.88z"/>
</svg>
