<?xml version="1.0" encoding="utf-8"?>
<!-- Generator: Adobe Illustrator 27.5.0, SVG Export Plug-In . SVG Version: 6.00 Build 0)  -->
<svg version="1.1" id="Layer_1" xmlns="http://www.w3.org/2000/svg" xmlns:xlink="http://www.w3.org/1999/xlink" x="0px" y="0px"
	 viewBox="0 0 22 22" style="enable-background:new 0 0 22 22;" xml:space="preserve">
<style type="text/css">
	.st0{filter:url(#Adobe_OpacityMaskFilter);}
	.st1{fill-rule:evenodd;clip-rule:evenodd;fill:#FFFFFF;}
	.st2{mask:url(#_x38_1urcbl2xb_00000134955135021007462670000006108771323544894637_);fill:#236DB0;}
</style>
<g>
	<g>
		<path id="_x39_2bizkxkva_00000127724891481544635340000013369479757080795807_" d="M8.7,3.2C9,3.5,9,4,8.7,4.4L3.5,9.9H20
			c0.4,0,0.8,0.4,0.8,0.9c0,0.5-0.4,0.9-0.8,0.9H3.5L8.7,17c0.3,0.3,0.3,0.9,0,1.2c-0.3,0.3-0.8,0.3-1.1,0c0,0,0,0,0,0l-6.6-6.9
			c-0.3-0.3-0.3-0.9,0-1.2l6.6-6.9C7.8,2.8,8.4,2.8,8.7,3.2C8.7,3.1,8.7,3.2,8.7,3.2z"/>
	</g>
	<defs>
		<filter id="Adobe_OpacityMaskFilter" filterUnits="userSpaceOnUse" x="0" y="0" width="22" height="22">
			<feColorMatrix  type="matrix" values="1 0 0 0 0  0 1 0 0 0  0 0 1 0 0  0 0 0 1 0"/>
		</filter>
	</defs>
	
		<mask maskUnits="userSpaceOnUse" x="0" y="0" width="22" height="22" id="_x38_1urcbl2xb_00000134955135021007462670000006108771323544894637_">
		<g class="st0">
			<path id="_x39_2bizkxkva_00000116199823898338144940000017101998263290037137_" class="st1" d="M8.7,3.2C9,3.5,9,4,8.7,4.4
				L3.5,9.9H20c0.4,0,0.8,0.4,0.8,0.9c0,0.5-0.4,0.9-0.8,0.9H3.5L8.7,17c0.3,0.3,0.3,0.9,0,1.2c-0.3,0.3-0.8,0.3-1.1,0c0,0,0,0,0,0
				l-6.6-6.9c-0.3-0.3-0.3-0.9,0-1.2l6.6-6.9C7.8,2.8,8.4,2.8,8.7,3.2C8.7,3.1,8.7,3.2,8.7,3.2z"/>
		</g>
	</mask>
	<path class="st2" d="M0,0h22v22H0V0z"/>
</g>
</svg>
