<?xml version="1.0" encoding="utf-8"?>
<!-- Generator: Adobe Illustrator 27.5.0, SVG Export Plug-In . SVG Version: 6.00 Build 0)  -->
<svg version="1.1" id="Layer_1" xmlns="http://www.w3.org/2000/svg" xmlns:xlink="http://www.w3.org/1999/xlink" x="0px" y="0px"
	 viewBox="0 0 170 176" style="enable-background:new 0 0 170 176;" xml:space="preserve">
<style type="text/css">
	.st0{fill-rule:evenodd;clip-rule:evenodd;fill:#F87A53;}
	.st1{filter:url(#Adobe_OpacityMaskFilter);}
	.st2{fill-rule:evenodd;clip-rule:evenodd;fill:#FFFFFF;}
	
		.st3{mask:url(#_x31_vb5rwyckb_00000049938480956499442480000016862226197599489453_);fill-rule:evenodd;clip-rule:evenodd;fill:#FFFFFF;}
	.st4{filter:url(#Adobe_OpacityMaskFilter_00000006679063366171134290000018154145129244939952_);}
	.st5{mask:url(#byvec8dtad_00000029768544069360406110000005273473431800507564_);}
	.st6{fill-rule:evenodd;clip-rule:evenodd;fill:#002554;}
	.st7{fill-rule:evenodd;clip-rule:evenodd;fill:#F4AD97;}
	.st8{fill-rule:evenodd;clip-rule:evenodd;fill:#D08D78;}
	.st9{fill-rule:evenodd;clip-rule:evenodd;fill:#236DB0;}
	.st10{filter:url(#Adobe_OpacityMaskFilter_00000119104136778923830290000000847473299921265574_);}
	
		.st11{mask:url(#_x32_qqqscmzdf_00000037660739180199914500000009301660077912332702_);fill-rule:evenodd;clip-rule:evenodd;fill:#D08D78;}
	.st12{filter:url(#Adobe_OpacityMaskFilter_00000029744622164558357230000012907129305173301377_);}
	.st13{mask:url(#_x32_qqqscmzdf_00000119809413802561083410000000467317497049312931_);}
	.st14{filter:url(#Adobe_OpacityMaskFilter_00000029009406914042731410000012191023847492572343_);}
	
		.st15{mask:url(#j71wah221h_00000000934416464365049230000001548757847912085392_);fill-rule:evenodd;clip-rule:evenodd;fill:#13428A;}
	.st16{filter:url(#Adobe_OpacityMaskFilter_00000128472764349233369590000014236229678464068747_);}
	
		.st17{mask:url(#_x32_qqqscmzdf_00000182494966422765561850000002640437911602294430_);fill-rule:evenodd;clip-rule:evenodd;fill:#236DB0;}
	.st18{fill:#3B6DAB;}
	.st19{fill:#29417A;}
	.st20{fill:#FFFFFF;}
</style>
<g>
	<g transform="translate(0 6)">
		<g>
			<circle id="_x34_jv1rkz7sa_00000128449306692921831860000000303448723991889812_" class="st0" cx="85" cy="85" r="85"/>
		</g>
		<defs>
			<filter id="Adobe_OpacityMaskFilter" filterUnits="userSpaceOnUse" x="28.2" y="137.3" width="64.6" height="40.9">
				<feColorMatrix  type="matrix" values="1 0 0 0 0  0 1 0 0 0  0 0 1 0 0  0 0 0 1 0"/>
			</filter>
		</defs>
		
			<mask maskUnits="userSpaceOnUse" x="28.2" y="137.3" width="64.6" height="40.9" id="_x31_vb5rwyckb_00000049938480956499442480000016862226197599489453_">
			<g class="st1">
				<circle id="_x34_jv1rkz7sa_00000069370591086879388570000016466520331890020755_" class="st2" cx="85" cy="85" r="85"/>
			</g>
		</mask>
		<path class="st3" d="M92.8,170l-3.6,8.3l-61-11.9l6.2-13.1l25.4-15.9L92.8,170L92.8,170z"/>
	</g>
	<defs>
		
			<filter id="Adobe_OpacityMaskFilter_00000183929965752527370720000013281383809475933629_" filterUnits="userSpaceOnUse" x="2.2" y="-5.5" width="197.5" height="293.5">
			<feColorMatrix  type="matrix" values="1 0 0 0 0  0 1 0 0 0  0 0 1 0 0  0 0 0 1 0"/>
		</filter>
	</defs>
	
		<mask maskUnits="userSpaceOnUse" x="2.2" y="-5.5" width="197.5" height="293.5" id="byvec8dtad_00000029768544069360406110000005273473431800507564_">
		<g style="filter:url(#Adobe_OpacityMaskFilter_00000183929965752527370720000013281383809475933629_);">
			<path id="ribsz5xcvc_00000157283721044260859050000008572847454030159527_" class="st2" d="M85,176c3.8,0,7.6-0.2,11-0.7
				c7.9-1.1,22-0.9,42.3,0.7c21.1-38.4,31.7-66.7,31.7-84.7c0-13.3-6.1-43.5-18.4-90.7L85,0H15.1C5,48.9,0,79.3,0,91.3
				C0,138.1,38,176,85,176z"/>
		</g>
	</mask>
	<g class="st5">
		<path class="st6" d="M32.7,176.8c1.8-7.7,21.7-31.7,32-26.2c10.2,5.6,4.9,35.8-5.7,71.4c-0.2,0.5-0.3,1.1-0.5,1.6
			c21.5-3.5,47-4.6,47-4.6l2.7,12.4c-19.3,5.3-56.9,23.9-72.7,31.9c-6,2.7-13.1,2.7-14.5-2.6C16.1,243.1,32.7,176.8,32.7,176.8"/>
		<path class="st7" d="M36.3,5.5c-1.5,3.5-2.7,8-1.7,10.4c1.2,2.7,0.8,4.7,0.8,4.7l2.5,0.6l2.9,0.7c0,0,0.2-0.3,0.4-0.7
			c0.3-0.6,0.6-1.1,0.9-1.7c0,0,0.1-1.3,1.4-1.9c1.2-0.6,2.6-2.1,2.8-3.6c0.2-1.5,1.7-4.2,1.3-4.5c-2-1.2-2.6,3.5-3.5,3.7
			c-0.8,0.2-1.1-0.4-1.1-0.5l0,0C41.5,9.2,44.2,0.1,42.1,0C38-0.2,36.9,4,36.3,5.5"/>
		<path class="st6" d="M83.8,182.6c11.3,2.9,8.4,16.5,6.8,53.6c-0.2,4.1-0.6,8.1-1.1,12.1c16.5-3.3,41.9-3.8,54.2-3.8
			c0,0,2,4.5,2,8.2c-0.2,7.7-4.1,12.8-4.1,12.8c-27.8,8.3-70.6,22.4-70.6,22.4l0,0c-2.9,0.7-5.5-0.7-7.7-4.8
			C54.6,266.7,40,158.3,40,158.3C39.9,150.3,72.5,179.6,83.8,182.6"/>
		<path class="st7" d="M105.9,74.9L95,77.4L87.5,79c0,0-1.2,2.5-2.8,7.2c-0.4,1.2-2,6.2-2.5,7.8c-2.2,0.1-3.7,8,0.3,9.4
			c0.8,0.3,2.9,1.3,3.8,1.5c0.8,0.1,4.3-1,5.1-0.9c5.4,0.5,10.8-4.6,10.8-4.6S98.2,89.3,105.9,74.9L105.9,74.9z"/>
		<path class="st8" d="M87.5,79c0,0-1.2,2.5-2.8,7.2c6.4,1.9,17.8-4.3,17.8-4.3c-2.6-2.3-5.1-3.8-7.5-4.6L87.5,79"/>
		<path class="st7" d="M82.6,75.3c0,0,12.7,14,21.3,6c8.6-8,16.1-11.6,8.3-20.9s-12.6-7.9-16.1-6C92.6,56.4,79.5,71.4,82.6,75.3"/>
		<path class="st9" d="M104.6,80.4c0,0-1.3-1.4,0.6-3.3c1.9-1.9,4-4.6,1.9-5.4c-2.1-0.8-3.2,0.4-3.3-0.9c-0.1-1.3,2.5-4.6-2.3-8.8
			c-4.8-4.2-8.2-4.1-9.7-6.9c-1.5-2.9,1.2-6.5,1.2-6.5s-0.3,1.8,0.3,3c0,0,0.3-8.4,7.7-8.4c7.4-0.1,10.1,5.9,12.5,8.2
			c5.4,4.9,8.9,8.2,7.8,13.4C120.2,69.9,111.2,79.7,104.6,80.4"/>
		<path class="st2" d="M90.5,72.4l-4.7-4.4c0,0-1.9,2.9-0.6,4.2C86.6,73.4,90.5,72.4,90.5,72.4"/>
		<g transform="matrix(-1 0 0 1 182.25 19.4)">
			<g>
				<path id="_x30_lkvgi7xke_00000042706550217569229150000011474417501082502839_" class="st7" d="M146.8,0.3L140.2,0
					c0,0,0.7,16.9,0.6,28.7c-0.1,5.7-0.9,12.8-1.6,13.7c-0.5,0.7-2.8,3.3-6.2,6.6c-9.5,9.4-27.9,23.4-28.7,24.1l-4.3,1.6
					c-0.3,2.6-1,4.5-4.7,5.7c-3.4,1.2-9.9-1.9-15.3-0.5c-0.1,0.2-0.2,0.2-0.4,0.3c-0.2,0.1-0.5,0.2-1,0.2c0,0-12.3,2.2-24.4,1.6
					c-9-0.4-18.2-3.2-20.7-4.4c-6-2.9-29.2-20-29.2-20l-4.3,5c0,0,16,30.7,28.6,36.2c6.9,3,22,6.6,34.4,9.3
					c4.9,1.1,19,5.4,20.5,10.2c11.6,37.5,3.7,67.7,3.7,67.7s3,1.9,16.9-2c18-5,24.9-12,24.9-12c5.1-6.2,5.7-22.6,5.7-22.6
					s3.4-2.2,4.5,4.1c0.8,4.6,4.1,5.8,4.4,7.4c0.3,1.5,2,2.2,3.2,1.3c2.6-1.9-0.3-2.8,0.8-5c4.1-7.7-2.1-38.8-14.6-60.7
					c-2.2-3.9,1.7-11.1,4.1-15c7.7-12.3,19.5-31.8,19.6-35.7c0.1-2.1-0.6-12.3-1.8-19.5C152.9,14,146.8,0.3,146.8,0.3z"/>
			</g>
			<defs>
				<filter id="Adobe_OpacityMaskFilter_00000058568803291520877160000009945577345596039053_" filterUnits="userSpaceOnUse">
					<feColorMatrix  type="matrix" values="1 0 0 0 0  0 1 0 0 0  0 0 1 0 0  0 0 0 1 0"/>
				</filter>
			</defs>
			<mask maskUnits="userSpaceOnUse" id="_x32_qqqscmzdf_00000037660739180199914500000009301660077912332702_">
				<g style="filter:url(#Adobe_OpacityMaskFilter_00000058568803291520877160000009945577345596039053_);">
					<path id="_x30_lkvgi7xke_00000085958897586770301980000009522020570343757491_" class="st2" d="M146.8,0.3L140.2,0
						c0,0,0.7,16.9,0.6,28.7c-0.1,5.7-0.9,12.8-1.6,13.7c-0.5,0.7-2.8,3.3-6.2,6.6c-9.5,9.4-27.9,23.4-28.7,24.1l-4.3,1.6
						c-0.3,2.6-1,4.5-4.7,5.7c-3.4,1.2-9.9-1.9-15.3-0.5c-0.1,0.2-0.2,0.2-0.4,0.3c-0.2,0.1-0.5,0.2-1,0.2c0,0-12.3,2.2-24.4,1.6
						c-9-0.4-18.2-3.2-20.7-4.4c-6-2.9-29.2-20-29.2-20l-4.3,5c0,0,16,30.7,28.6,36.2c6.9,3,22,6.6,34.4,9.3
						c4.9,1.1,19,5.4,20.5,10.2c11.6,37.5,3.7,67.7,3.7,67.7s3,1.9,16.9-2c18-5,24.9-12,24.9-12c5.1-6.2,5.7-22.6,5.7-22.6
						s3.4-2.2,4.5,4.1c0.8,4.6,4.1,5.8,4.4,7.4c0.3,1.5,2,2.2,3.2,1.3c2.6-1.9-0.3-2.8,0.8-5c4.1-7.7-2.1-38.8-14.6-60.7
						c-2.2-3.9,1.7-11.1,4.1-15c7.7-12.3,19.5-31.8,19.6-35.7c0.1-2.1-0.6-12.3-1.8-19.5C152.9,14,146.8,0.3,146.8,0.3z"/>
				</g>
			</mask>
			<path class="st11" d="M56.7,82c2.4,12.6,3,20.7,1.8,24.2c-1.7,5.3-1.7,6.9-1.4,6.9s11.3-9.4,11.3-10c0-0.4-3.5-8.6-10.4-24.7
				L56.7,82z"/>
			<defs>
				<filter id="Adobe_OpacityMaskFilter_00000069378569576861478040000015836449238515380098_" filterUnits="userSpaceOnUse">
					<feColorMatrix  type="matrix" values="1 0 0 0 0  0 1 0 0 0  0 0 1 0 0  0 0 0 1 0"/>
				</filter>
			</defs>
			<mask maskUnits="userSpaceOnUse" id="_x32_qqqscmzdf_00000119809413802561083410000000467317497049312931_">
				<g style="filter:url(#Adobe_OpacityMaskFilter_00000069378569576861478040000015836449238515380098_);">
					<path id="_x30_lkvgi7xke_00000039832921248951291620000003877473449908388016_" class="st2" d="M146.8,0.3L140.2,0
						c0,0,0.7,16.9,0.6,28.7c-0.1,5.7-0.9,12.8-1.6,13.7c-0.5,0.7-2.8,3.3-6.2,6.6c-9.5,9.4-27.9,23.4-28.7,24.1l-4.3,1.6
						c-0.3,2.6-1,4.5-4.7,5.7c-3.4,1.2-9.9-1.9-15.3-0.5c-0.1,0.2-0.2,0.2-0.4,0.3c-0.2,0.1-0.5,0.2-1,0.2c0,0-12.3,2.2-24.4,1.6
						c-9-0.4-18.2-3.2-20.7-4.4c-6-2.9-29.2-20-29.2-20l-4.3,5c0,0,16,30.7,28.6,36.2c6.9,3,22,6.6,34.4,9.3
						c4.9,1.1,19,5.4,20.5,10.2c11.6,37.5,3.7,67.7,3.7,67.7s3,1.9,16.9-2c18-5,24.9-12,24.9-12c5.1-6.2,5.7-22.6,5.7-22.6
						s3.4-2.2,4.5,4.1c0.8,4.6,4.1,5.8,4.4,7.4c0.3,1.5,2,2.2,3.2,1.3c2.6-1.9-0.3-2.8,0.8-5c4.1-7.7-2.1-38.8-14.6-60.7
						c-2.2-3.9,1.7-11.1,4.1-15c7.7-12.3,19.5-31.8,19.6-35.7c0.1-2.1-0.6-12.3-1.8-19.5C152.9,14,146.8,0.3,146.8,0.3z"/>
				</g>
			</mask>
			<g class="st13">
				<g transform="translate(-17.388 -24.893)">
					<g>
						<path id="c9uybuz5jg_00000079470468979078214910000005925735415616324238_" class="st2" d="M32.9,80.4
							c-11.7,14-22.2,22.8-31.6,26.5c-14.1,5.4,87.8,102.8,89.8,102.8c1.4,0,36.8-11.6,106.3-34.8C191.6,65.1,184.4,16.8,176,30
							c-12.7,19.9-43-6.9-45.6-26.7C128.7-9.8,96.2,15.8,32.9,80.4L32.9,80.4z"/>
					</g>
					<defs>
						<filter id="Adobe_OpacityMaskFilter_00000061431935122780569520000002453125270504604093_" filterUnits="userSpaceOnUse">
							<feColorMatrix  type="matrix" values="1 0 0 0 0  0 1 0 0 0  0 0 1 0 0  0 0 0 1 0"/>
						</filter>
					</defs>
					<mask maskUnits="userSpaceOnUse" id="j71wah221h_00000000934416464365049230000001548757847912085392_">
						<g style="filter:url(#Adobe_OpacityMaskFilter_00000061431935122780569520000002453125270504604093_);">
							<path id="c9uybuz5jg_00000030468645342902555460000005685687457299531949_" class="st2" d="M32.9,80.4
								c-11.7,14-22.2,22.8-31.6,26.5c-14.1,5.4,87.8,102.8,89.8,102.8c1.4,0,36.8-11.6,106.3-34.8C191.6,65.1,184.4,16.8,176,30
								c-12.7,19.9-43-6.9-45.6-26.7C128.7-9.8,96.2,15.8,32.9,80.4L32.9,80.4z"/>
						</g>
					</mask>
					<path class="st15" d="M99.6,105.3c-1.6,29.5,0.3,48.5,5.7,57.1l-76.7-20.1l-4.1-75.1C24.5,67.2,99.6,105.3,99.6,105.3z
						 M114.9,99.4c16.4-0.9,31.3,11.3,44.7,36.5c2.5,6.8,12.5-33.9,30.2-122.1c-33.1,2.5-51.9,3.3-56.6,2.5
						c-4.7-0.8-8.4,22.8-11.3,70.7C122,87.1,114.9,99.4,114.9,99.4z"/>
				</g>
			</g>
			<defs>
				<filter id="Adobe_OpacityMaskFilter_00000093892271251574381760000018102951656214271933_" filterUnits="userSpaceOnUse">
					<feColorMatrix  type="matrix" values="1 0 0 0 0  0 1 0 0 0  0 0 1 0 0  0 0 0 1 0"/>
				</filter>
			</defs>
			<mask maskUnits="userSpaceOnUse" id="_x32_qqqscmzdf_00000182494966422765561850000002640437911602294430_">
				<g style="filter:url(#Adobe_OpacityMaskFilter_00000093892271251574381760000018102951656214271933_);">
					<path id="_x30_lkvgi7xke_00000071517445739350346190000000149830798732603312_" class="st2" d="M146.8,0.3L140.2,0
						c0,0,0.7,16.9,0.6,28.7c-0.1,5.7-0.9,12.8-1.6,13.7c-0.5,0.7-2.8,3.3-6.2,6.6c-9.5,9.4-27.9,23.4-28.7,24.1l-4.3,1.6
						c-0.3,2.6-1,4.5-4.7,5.7c-3.4,1.2-9.9-1.9-15.3-0.5c-0.1,0.2-0.2,0.2-0.4,0.3c-0.2,0.1-0.5,0.2-1,0.2c0,0-12.3,2.2-24.4,1.6
						c-9-0.4-18.2-3.2-20.7-4.4c-6-2.9-29.2-20-29.2-20l-4.3,5c0,0,16,30.7,28.6,36.2c6.9,3,22,6.6,34.4,9.3
						c4.9,1.1,19,5.4,20.5,10.2c11.6,37.5,3.7,67.7,3.7,67.7s3,1.9,16.9-2c18-5,24.9-12,24.9-12c5.1-6.2,5.7-22.6,5.7-22.6
						s3.4-2.2,4.5,4.1c0.8,4.6,4.1,5.8,4.4,7.4c0.3,1.5,2,2.2,3.2,1.3c2.6-1.9-0.3-2.8,0.8-5c4.1-7.7-2.1-38.8-14.6-60.7
						c-2.2-3.9,1.7-11.1,4.1-15c7.7-12.3,19.5-31.8,19.6-35.7c0.1-2.1-0.6-12.3-1.8-19.5C152.9,14,146.8,0.3,146.8,0.3z"/>
				</g>
			</mask>
			<path class="st17" d="M80.2,79.2c1.5-0.3,3.7-0.3,6.5,0c0.2,0,0.5,0.1,0.8,0.1l0.5,0.1l0.8,0.2c2,0.4,3.3,0.5,5.2,0.3
				c3.3-0.3,5.5-2.3,5.1-4.9L99,74.1l-0.1-0.8L98.8,73l0-0.2l0.1,0.1c0.1,0.1,0.2,0.2,0.3,0.3c0.5,0.3,1.1,0.2,1.3-0.3c0,0,0,0,0,0
				l0.1-0.1l-1.9,0l0-0.3c0-0.3,0-0.4,0.1-0.6l0.1-0.1c0.3-0.4,0.9-0.6,1.4-0.3c0.2,0.1,0.3,0.3,0.4,0.5c0.1,0.1,0.1,0.2,0.1,0.4
				l0,0.2l0.1,0.4l0.1,0.6c-0.6,0.6-0.9,0.9-0.9,0.9c1.8,3.9-1.5,7.1-5.8,7.5c-1.9,0.2-3.3,0.1-5.2-0.3l-1.5-0.3
				c-0.1,0-0.3-0.1-0.4-0.1l-0.4-0.1l-0.2,0c-4.7-0.8-5.3-0.6-6.5-1.3c-1.9-1.1-5.5-0.7-5-1.8c0.3-0.8,1.3-1.4,3-2.1l0.3-0.1
				l0.7,1.9c-0.7,0.3-1.3,0.5-1.7,0.8l-0.2,0.1l0.1,0c0.4,0.1,0.9,0.2,1.5,0.3l0.3,0c0.2,0,0.3,0,0.4,0.1l0.5,0l0.1,0l0,0l-0.1,0
				L80.2,79.2L80.2,79.2z"/>
		</g>
	</g>
</g>
<path class="st18" d="M67.9,110.9l0,0.1c-0.6,1.9-1.1,3.7-1.7,5.6c0,0.1,0,0.1-0.2,0.1c-0.3-0.1-0.7-0.2-1-0.3c-0.1,0-0.1,0-0.1-0.1
	c0.9-2.9,1.7-5.8,2.6-8.8c0,0,0,0,0-0.1c1.4,2.7,2.8,5.4,4.2,8.2l0,0c0,0,0-0.1,0-0.1c0.6-1.9,1.1-3.7,1.7-5.6c0-0.1,0-0.1,0.1-0.1
	c0.3,0.1,0.7,0.2,1,0.3c0.1,0,0.1,0,0.1,0.1c-0.9,2.9-1.7,5.8-2.6,8.7c0,0,0,0,0,0.1C70.7,116.3,69.3,113.6,67.9,110.9L67.9,110.9z"
	/>
<path class="st19" d="M80.3,118c-0.5,1.6-2.1,2.4-3.7,1.9c-1.5-0.5-2.4-2.1-1.9-3.6c0.5-1.6,2.1-2.4,3.6-1.9
	C79.9,114.9,80.8,116.5,80.3,118z M76.9,116.5L76.9,116.5l-0.9-0.2l-0.2,0.6l1.8,0.5l0.6-2.1c-0.2,0-0.3-0.1-0.5-0.1
	c-0.1,0-0.1,0-0.1,0.1c-0.1,0.3-0.2,0.5-0.2,0.8c0,0,0,0.1,0,0.1c-0.2-0.4-0.4-0.9-0.7-1.3c-0.2,0.1-0.3,0.2-0.5,0.3
	C76.4,115.6,76.7,116,76.9,116.5z M76.5,117.3l-0.2,0.6l0.1,0c0.4,0.1,0.8,0.2,1.2,0.4c0.1,0,0.1,0,0.1,0.1c0.2,0.3,0.4,0.7,0.6,1
	c0,0,0,0.1,0,0.1c0.2-0.1,0.4-0.2,0.6-0.3c0,0,0,0-0.1-0.1c-0.2-0.3-0.4-0.7-0.5-1c0-0.1,0-0.1,0-0.2c0.1-0.5,0.3-0.9,0.4-1.4l0-0.1
	c-0.2-0.1-0.3-0.1-0.5-0.1c-0.1,0-0.1,0-0.1,0.1c-0.1,0.4-0.2,0.8-0.4,1.2c0,0.1,0,0.1-0.1,0.1c-0.4-0.1-0.7-0.2-1.1-0.3
	C76.6,117.3,76.6,117.3,76.5,117.3z"/>
<path class="st18" d="M81.7,115.6c0,0,0.1,0,0.1,0c0.4,0.1,0.8,0.2,1.1,0.3c0.1,0,0.1,0.1,0.1,0.1c0.1,1,0.3,2.1,0.4,3.1
	c0,0,0,0.1,0,0.1c0,0,0.1-0.1,0.1-0.1c0.7-0.8,1.4-1.6,2.1-2.4c0,0,0.1-0.1,0.1,0c0.4,0.1,0.8,0.2,1.2,0.4c0,0,0,0,0.1,0
	c-1.5,1.6-2.9,3.2-4.4,4.8C82.4,119.9,82,117.8,81.7,115.6z"/>
<path class="st18" d="M92.3,119.2c0.4-0.3,0.9-0.4,1.4-0.2c0.3,0.1,0.6,0.3,0.9,0.6c-0.3,0.3-0.6,0.6-0.9,0.9c0,0-0.1-0.1-0.1-0.1
	c-0.1-0.2-0.3-0.3-0.5-0.3c-0.4-0.1-0.7,0-1,0.3c-0.2,0.2-0.3,0.4-0.4,0.7c-0.3,0.9-0.6,1.9-0.9,2.8c0,0.1,0,0.1-0.2,0.1
	c-0.3-0.1-0.7-0.2-1-0.3c-0.1,0-0.1,0-0.1-0.1c0.5-1.7,1-3.4,1.5-5.1c0-0.1,0.1-0.1,0.1-0.1c0.3,0.1,0.7,0.2,1,0.3
	c0.1,0,0.1,0.1,0.1,0.1C92.3,119,92.3,119.1,92.3,119.2C92.3,119.2,92.3,119.2,92.3,119.2C92.3,119.2,92.3,119.2,92.3,119.2z"/>
<path class="st18" d="M88.6,120.5c-0.2,0.8-0.5,1.7-0.7,2.5c0,0.1,0,0.1-0.1,0.1c-0.3-0.1-0.7-0.2-1-0.3c-0.1,0-0.1,0-0.1-0.1
	c0.5-1.7,1-3.4,1.5-5.1c0-0.1,0.1-0.1,0.1-0.1c0.3,0.1,0.7,0.2,1,0.3c0.1,0,0.1,0.1,0.1,0.1C89.1,118.8,88.9,119.7,88.6,120.5z"/>
<path class="st18" d="M89.7,114.7c0.4,0.1,0.7,0.5,0.6,1c-0.1,0.4-0.6,0.7-1,0.6c-0.4-0.1-0.7-0.6-0.6-1
	C88.8,114.9,89.3,114.6,89.7,114.7z"/>
<path class="st20" d="M76.9,116.5c-0.2-0.4-0.5-0.9-0.7-1.4c0.2-0.1,0.3-0.2,0.5-0.3c0.2,0.4,0.4,0.8,0.7,1.3c0,0,0-0.1,0-0.1
	c0.1-0.3,0.2-0.5,0.2-0.8c0-0.1,0-0.1,0.1-0.1c0.2,0.1,0.3,0.1,0.5,0.1l-0.6,2.1l-1.8-0.5l0.2-0.6L76.9,116.5L76.9,116.5z"/>
<path class="st20" d="M76.5,117.3c0,0,0.1,0,0.1,0c0.4,0.1,0.7,0.2,1.1,0.3c0.1,0,0.1,0,0.1-0.1c0.1-0.4,0.2-0.8,0.4-1.2
	c0-0.1,0.1-0.1,0.1-0.1c0.2,0.1,0.3,0.1,0.5,0.1l0,0.1c-0.1,0.5-0.3,0.9-0.4,1.4c0,0.1,0,0.1,0,0.2c0.2,0.3,0.4,0.7,0.5,1
	c0,0,0,0.1,0.1,0.1c-0.2,0.1-0.4,0.2-0.6,0.3c0,0,0,0,0-0.1c-0.2-0.3-0.4-0.7-0.6-1c0-0.1-0.1-0.1-0.1-0.1c-0.4-0.1-0.8-0.2-1.2-0.4
	l-0.1,0L76.5,117.3z"/>
</svg>
