<?xml version="1.0" encoding="utf-8"?>
<!-- Generator: Adobe Illustrator 27.5.0, SVG Export Plug-In . SVG Version: 6.00 Build 0)  -->
<svg version="1.1" id="Layer_1" xmlns="http://www.w3.org/2000/svg" xmlns:xlink="http://www.w3.org/1999/xlink" x="0px" y="0px"
	 viewBox="0 0 24 24" style="enable-background:new 0 0 24 24;" xml:space="preserve">
<style type="text/css">
	.st0{fill-rule:evenodd;clip-rule:evenodd;fill:#13428A;}
</style>
<path class="st0" d="M12,1.2c3.7,0,8,2.2,9.1,7.1c1.2,5.4-2,9.9-5,12.8c-1.1,1.1-2.6,1.7-4.1,1.7c-1.5,0-3-0.6-4.1-1.7
	c-2.9-2.8-6.2-7.4-5-12.8C4,3.4,8.3,1.2,12,1.2L12,1.2z M12,2.8c-2.9,0-6.7,1.6-7.6,5.9C3.3,13.4,6.2,17.4,8.9,20
	c1.7,1.7,4.5,1.7,6.2,0c2.7-2.6,5.6-6.6,4.6-11.3C18.7,4.3,14.9,2.8,12,2.8z M12,6.4c2.1,0,3.9,1.7,3.9,3.9s-1.7,3.9-3.9,3.9
	s-3.9-1.7-3.9-3.9S9.9,6.4,12,6.4z M12,7.9c-1.3,0-2.4,1.1-2.4,2.4s1.1,2.4,2.4,2.4s2.4-1.1,2.4-2.4S13.3,7.9,12,7.9z"/>
</svg>
