<?xml version="1.0" encoding="utf-8"?>
<!-- Generator: Adobe Illustrator 27.5.0, SVG Export Plug-In . SVG Version: 6.00 Build 0)  -->
<svg version="1.1" id="Layer_1" xmlns="http://www.w3.org/2000/svg" xmlns:xlink="http://www.w3.org/1999/xlink" x="0px" y="0px"
	 viewBox="0 0 24 24" style="enable-background:new 0 0 24 24;" xml:space="preserve">
<style type="text/css">
	.st0{fill-rule:evenodd;clip-rule:evenodd;fill:#13428A;}
</style>
<path class="st0" d="M15,1.2c5.4,0,7.8,2.3,7.8,7.8v6c0,5.4-2.3,7.8-7.8,7.8H9c-5.4,0-7.8-2.3-7.8-7.8V9c0-5.4,2.3-7.8,7.8-7.8H15z
	 M15,2.8H9C4.4,2.8,2.8,4.4,2.8,9v6c0,4.6,1.6,6.2,6.2,6.2h6c4.6,0,6.2-1.6,6.2-6.2V9C21.2,4.4,19.6,2.8,15,2.8z M5.8,18.7L5.8,18.7
	c-0.1-0.1-0.2-0.1-0.3-0.2c-0.1-0.1-0.1-0.2-0.2-0.3c0-0.1,0-0.2,0-0.2v-4c0-0.4,0.3-0.8,0.8-0.8s0.8,0.3,0.8,0.8v2.2l9.4-9.4H14
	c-0.4,0-0.8-0.3-0.8-0.8s0.3-0.8,0.8-0.8h4c0.1,0,0.2,0,0.2,0l0,0c0,0,0.1,0,0.1,0l0,0c0.1,0.1,0.2,0.1,0.2,0.2l0,0c0,0,0,0.1,0,0.1
	l0,0c0,0.1,0,0.2,0,0.2v4c0,0.4-0.3,0.8-0.8,0.8s-0.8-0.3-0.8-0.8V7.8l-9.4,9.4H10c0.4,0,0.8,0.3,0.8,0.8s-0.3,0.8-0.8,0.8H6
	c0,0-0.1,0-0.1,0l0.1,0C5.9,18.7,5.9,18.7,5.8,18.7L5.8,18.7L5.8,18.7z"/>
</svg>
