<?xml version="1.0" encoding="utf-8"?>
<!-- Generator: Adobe Illustrator 27.5.0, SVG Export Plug-In . SVG Version: 6.00 Build 0)  -->
<svg version="1.1" id="Layer_1" xmlns="http://www.w3.org/2000/svg" xmlns:xlink="http://www.w3.org/1999/xlink" x="0px" y="0px"
	 viewBox="0 0 720 1342" style="enable-background:new 0 0 720 1342;" xml:space="preserve">
<style type="text/css">
	.st0{fill:#E9EFF7;}
	.st1{opacity:0.4;}
	.st2{fill:#FFFFFF;}
</style>
<rect class="st0" width="720" height="1342"/>
<g class="st1">
	<path class="st2" d="M-362.8,27.9c-14-14.9-28.1-29.7-42.4-44.9c5.5-5.9,10.9-11.5,16.6-17.6c13.3,14.1,26.5,28,40.4,42.6
		c0-2,0-3.1,0-4.3c0-11.6,0.1-23.3,0-34.9c0-2.6,0.7-3.5,3.4-3.5c6.6,0.2,13.2,0.1,20.1,0.1v87.4h-76.4V28.8h38.1L-362.8,27.9z"/>
	<path class="st2" d="M-367.5,64c1.7,0,3.2,0,4.6,0c14.9,0,29.8-0.1,44.7,0.1c3,0,3.8-0.8,3.8-3.8c-0.1-17.4,0-34.7-0.1-52.1
		c0-3.3,1-4.2,4.2-4.1c6.8,0.2,13.6,0.1,20.9,0.1v4.3c0,19.9,0,39.9-0.1,59.8c0,2.7,0.8,4.5,2.7,6.4c11.1,10.9,22,22,33.1,32.9
		c0.9,0.9,2.2,1.5,3.1,2c-6.4,6.4-12.1,12.1-18.1,18c-0.5-0.5-1.5-1.3-2.4-2.3c-11.3-11.3-22.7-22.6-33.9-34
		c-1.9-1.9-3.8-2.6-6.5-2.6c-17.2,0.1-34.5,0.1-51.7,0.1h-4.2L-367.5,64L-367.5,64z"/>
	<path class="st2" d="M-1025,27.9c-14-14.9-28.1-29.7-42.4-44.9c5.5-5.9,10.9-11.5,16.6-17.6c13.3,14.1,26.5,28,40.4,42.6
		c0-2,0-3.1,0-4.3c0-11.6,0.1-23.3,0-34.9c0-2.6,0.7-3.5,3.4-3.5c6.6,0.2,13.2,0.1,20.1,0.1v87.4h-76.4V28.8h38.1L-1025,27.9z"/>
	<path class="st2" d="M-1029.7,64c1.7,0,3.2,0,4.6,0c14.9,0,29.8-0.1,44.7,0.1c3,0,3.8-0.8,3.7-3.8c-0.1-17.4,0-34.7-0.1-52.1
		c0-3.3,1-4.2,4.2-4.1c6.8,0.2,13.6,0.1,20.9,0.1v4.3c0,19.9,0,39.9-0.1,59.8c0,2.7,0.8,4.5,2.7,6.4c11.1,10.9,22,22,33.1,32.9
		c0.9,0.9,2.2,1.5,3.1,2c-6.4,6.4-12.1,12.1-18,18c-0.5-0.5-1.5-1.3-2.4-2.3c-11.3-11.3-22.7-22.6-33.9-34c-1.9-1.9-3.8-2.6-6.5-2.6
		c-17.2,0.1-34.5,0.1-51.7,0.1h-4.2L-1029.7,64L-1029.7,64z"/>
	<path class="st2" d="M-693.9,27.9c-14-14.9-28.1-29.7-42.4-44.9c5.5-5.9,10.9-11.5,16.6-17.6c13.3,14.1,26.5,28,40.4,42.6
		c0-2,0-3.1,0-4.3c0-11.6,0.1-23.3,0-34.9c0-2.6,0.7-3.5,3.4-3.5c6.6,0.2,13.2,0.1,20.1,0.1v87.4h-76.4V28.8h38.1L-693.9,27.9z"/>
	<path class="st2" d="M-698.6,64c1.7,0,3.2,0,4.6,0c14.9,0,29.8-0.1,44.7,0.1c3,0,3.8-0.8,3.8-3.8c-0.1-17.4,0-34.7-0.1-52.1
		c0-3.3,1-4.2,4.2-4.1c6.8,0.2,13.6,0.1,20.9,0.1v4.3c0,19.9,0,39.9-0.1,59.8c0,2.7,0.8,4.5,2.7,6.4c11.1,10.9,22,22,33.1,32.9
		c0.9,0.9,2.2,1.5,3.1,2c-6.4,6.4-12.1,12.1-18,18c-0.5-0.5-1.5-1.3-2.4-2.3c-11.3-11.3-22.7-22.6-33.9-34c-1.9-1.9-3.8-2.6-6.5-2.6
		c-17.2,0.1-34.5,0.1-51.7,0.1h-4.2L-698.6,64L-698.6,64z"/>
	<path class="st2" d="M-1356.1,27.9c-14-14.9-28.1-29.7-42.4-44.9c5.5-5.9,10.9-11.5,16.6-17.6c13.3,14.1,26.5,28,40.4,42.6
		c0-2,0-3.1,0-4.3c0-11.6,0.1-23.3-0.1-34.9c0-2.6,0.7-3.5,3.4-3.5c6.6,0.2,13.2,0.1,20.1,0.1v87.4h-76.4V28.8h38.1L-1356.1,27.9z"
		/>
	<path class="st2" d="M-1360.8,64c1.7,0,3.2,0,4.6,0c14.9,0,29.8-0.1,44.7,0.1c3,0,3.8-0.8,3.8-3.8c-0.1-17.4,0-34.7-0.1-52.1
		c0-3.3,1-4.2,4.2-4.1c6.8,0.2,13.6,0.1,20.9,0.1v4.3c0,19.9,0.1,39.9-0.1,59.8c0,2.7,0.8,4.5,2.7,6.4c11.1,10.9,22,22,33.1,32.9
		c0.9,0.9,2.2,1.5,3.1,2c-6.4,6.4-12.1,12.1-18.1,18c-0.5-0.5-1.5-1.3-2.4-2.3c-11.3-11.3-22.7-22.6-33.9-34
		c-1.9-1.9-3.8-2.6-6.5-2.6c-17.2,0.1-34.5,0.1-51.7,0.1h-4.2L-1360.8,64L-1360.8,64z"/>
	<path class="st2" d="M-528.3,27.9c-14-14.9-28.1-29.7-42.4-44.9c5.5-5.9,10.9-11.5,16.6-17.6c13.3,14.1,26.5,28,40.4,42.6
		c0-2,0-3.1,0-4.3c0-11.6,0.1-23.3,0-34.9c0-2.6,0.7-3.5,3.4-3.5c6.6,0.2,13.2,0.1,20.1,0.1v87.4h-76.4V28.8h38.1L-528.3,27.9z"/>
	<path class="st2" d="M-533,64c1.7,0,3.2,0,4.6,0c14.9,0,29.8-0.1,44.7,0.1c3,0,3.8-0.8,3.8-3.8c-0.1-17.4,0-34.7-0.1-52.1
		c0-3.3,1-4.2,4.2-4.1c6.8,0.2,13.6,0.1,20.9,0.1v4.3c0,19.9,0,39.9-0.1,59.8c0,2.7,0.8,4.5,2.7,6.4c11.1,10.9,22,22,33.1,32.9
		c0.9,0.9,2.2,1.5,3.1,2c-6.4,6.4-12.1,12.1-18,18c-0.5-0.5-1.5-1.3-2.4-2.3c-11.3-11.3-22.7-22.6-33.9-34c-1.9-1.9-3.8-2.6-6.5-2.6
		c-17.2,0.1-34.5,0.1-51.7,0.1h-4.2L-533,64L-533,64z"/>
	<path class="st2" d="M-1190.5,27.9c-14-14.9-28.1-29.7-42.4-44.9c5.5-5.9,10.9-11.5,16.6-17.6c13.3,14.1,26.5,28,40.4,42.6
		c0-2,0-3.1,0-4.3c0-11.6,0.1-23.3-0.1-34.9c0-2.6,0.7-3.5,3.4-3.5c6.6,0.2,13.2,0.1,20.1,0.1v87.4h-76.4V28.8h38.1L-1190.5,27.9z"
		/>
	<path class="st2" d="M-1195.2,64c1.7,0,3.2,0,4.6,0c14.9,0,29.8-0.1,44.7,0.1c3,0,3.8-0.8,3.7-3.8c-0.1-17.4,0-34.7-0.1-52.1
		c0-3.3,1-4.2,4.2-4.1c6.8,0.2,13.6,0.1,20.9,0.1v4.3c0,19.9,0.1,39.9-0.1,59.8c0,2.7,0.8,4.5,2.7,6.4c11.1,10.9,22,22,33.1,32.9
		c0.9,0.9,2.2,1.5,3.1,2c-6.4,6.4-12.1,12.1-18.1,18c-0.5-0.5-1.5-1.3-2.4-2.3c-11.3-11.3-22.7-22.6-33.9-34
		c-1.9-1.9-3.8-2.6-6.5-2.6c-17.2,0.1-34.5,0.1-51.7,0.1h-4.2L-1195.2,64L-1195.2,64z"/>
	<path class="st2" d="M-859.4,27.9c-14-14.9-28.1-29.7-42.4-44.9c5.5-5.9,10.9-11.5,16.6-17.6c13.3,14.1,26.5,28,40.4,42.6
		c0-2,0-3.1,0-4.3c0-11.6,0.1-23.3,0-34.9c0-2.6,0.7-3.5,3.4-3.5c6.6,0.2,13.2,0.1,20.1,0.1v87.4h-76.4V28.8h38.1L-859.4,27.9z"/>
	<path class="st2" d="M-864.1,64c1.7,0,3.2,0,4.6,0c14.9,0,29.8-0.1,44.7,0.1c3,0,3.8-0.8,3.8-3.8c-0.1-17.4,0-34.7-0.1-52.1
		c0-3.3,1-4.2,4.2-4.1c6.8,0.2,13.6,0.1,20.9,0.1v4.3c0,19.9,0,39.9-0.1,59.8c0,2.7,0.8,4.5,2.7,6.4c11.1,10.9,22,22,33.1,32.9
		c0.9,0.9,2.2,1.5,3.1,2c-6.4,6.4-12.1,12.1-18,18c-0.5-0.5-1.5-1.3-2.4-2.3c-11.3-11.3-22.7-22.6-33.9-34c-1.9-1.9-3.8-2.6-6.5-2.6
		c-17.2,0.1-34.5,0.1-51.7,0.1h-4.2L-864.1,64L-864.1,64z"/>
	<path class="st2" d="M-1521.6,27.9c-14-14.9-28.1-29.7-42.4-44.9c5.5-5.9,10.9-11.5,16.6-17.6c13.3,14.1,26.5,28,40.4,42.6
		c0-2,0-3.1,0-4.3c0-11.6,0.1-23.3-0.1-34.9c0-2.6,0.7-3.5,3.4-3.5c6.6,0.2,13.2,0.1,20.1,0.1v87.4h-76.4V28.8h38.1L-1521.6,27.9z"
		/>
	<path class="st2" d="M-1526.3,64c1.7,0,3.2,0,4.6,0c14.9,0,29.8-0.1,44.7,0.1c3,0,3.8-0.8,3.8-3.8c-0.1-17.4,0-34.7-0.1-52.1
		c0-3.3,1-4.2,4.2-4.1c6.8,0.2,13.6,0.1,20.9,0.1v4.3c0,19.9,0.1,39.9-0.1,59.8c0,2.7,0.8,4.5,2.7,6.4c11.1,10.9,22,22,33.1,32.9
		c0.9,0.9,2.2,1.5,3.1,2c-6.4,6.4-12.1,12.1-18.1,18c-0.5-0.5-1.5-1.3-2.4-2.3c-11.3-11.3-22.7-22.6-33.9-34
		c-1.9-1.9-3.8-2.6-6.5-2.6c-17.2,0.1-34.5,0.1-51.7,0.1h-4.2L-1526.3,64L-1526.3,64z"/>
	<path class="st2" d="M950.6,27.9c-14-14.9-28.1-29.7-42.4-44.9c5.5-5.9,10.9-11.5,16.6-17.6c13.3,14.1,26.5,28,40.4,42.6
		c0-2,0-3.1,0-4.3c0-11.6,0.1-23.3,0-34.9c0-2.6,0.7-3.5,3.4-3.5c6.6,0.2,13.2,0.1,20.1,0.1v87.4h-76.4V28.8h38.1L950.6,27.9z"/>
	<path class="st2" d="M945.8,64c1.7,0,3.2,0,4.6,0c14.9,0,29.8-0.1,44.7,0.1c3,0,3.8-0.8,3.7-3.8c-0.1-17.4,0-34.7-0.1-52.1
		c0-3.3,1-4.2,4.2-4.1c6.8,0.2,13.6,0.1,20.9,0.1v4.3c0,19.9,0,39.9-0.1,59.8c0,2.7,0.8,4.5,2.7,6.4c11.1,10.9,22,22,33.1,32.9
		c0.9,0.9,2.2,1.5,3.1,2c-6.4,6.4-12.1,12.1-18.1,18c-0.5-0.5-1.5-1.3-2.4-2.3c-11.3-11.3-22.7-22.6-33.9-34
		c-1.9-1.9-3.8-2.6-6.5-2.6c-17.2,0.1-34.5,0.1-51.7,0.1h-4.2L945.8,64L945.8,64z"/>
	<path class="st2" d="M288.4,27.9c-14-14.9-28.1-29.7-42.4-44.9c5.5-5.9,10.9-11.5,16.6-17.6c13.3,14.1,26.5,28,40.4,42.6
		c0-2,0-3.1,0-4.3c0-11.6,0.1-23.3,0-34.9c0-2.6,0.7-3.5,3.4-3.5c6.6,0.2,13.2,0.1,20.1,0.1v87.4H250V28.8h38.1L288.4,27.9z"/>
	<path class="st2" d="M283.6,64c1.7,0,3.2,0,4.6,0c14.9,0,29.8-0.1,44.7,0.1c3,0,3.8-0.8,3.8-3.8c-0.1-17.4,0-34.7-0.1-52.1
		c0-3.3,1-4.2,4.2-4.1c6.8,0.2,13.6,0.1,20.9,0.1v4.3c0,19.9,0,39.9-0.1,59.8c0,2.7,0.8,4.5,2.7,6.4c11.1,10.9,22,22,33.1,32.9
		c0.9,0.9,2.2,1.5,3.1,2c-6.4,6.4-12.1,12.1-18,18c-0.5-0.5-1.5-1.3-2.4-2.3c-11.3-11.3-22.7-22.6-33.9-34c-1.9-1.9-3.8-2.6-6.5-2.6
		c-17.2,0.1-34.5,0.1-51.7,0.1h-4.2L283.6,64L283.6,64z"/>
	<path class="st2" d="M619.5,27.9c-14-14.9-28.1-29.7-42.4-44.9c5.5-5.9,10.9-11.5,16.6-17.6c13.3,14.1,26.5,28,40.4,42.6
		c0-2,0-3.1,0-4.3c0-11.6,0.1-23.3,0-34.9c0-2.6,0.7-3.5,3.4-3.5c6.6,0.2,13.2,0.1,20.1,0.1v87.4h-76.4V28.8h38.1L619.5,27.9z"/>
	<path class="st2" d="M614.7,64c1.7,0,3.2,0,4.6,0c14.9,0,29.8-0.1,44.7,0.1c3,0,3.8-0.8,3.8-3.8c-0.1-17.4,0-34.7-0.1-52.1
		c0-3.3,1-4.2,4.2-4.1c6.8,0.2,13.6,0.1,20.9,0.1v4.3c0,19.9,0,39.9-0.1,59.8c0,2.7,0.8,4.5,2.7,6.4c11.1,10.9,22,22,33.1,32.9
		c0.9,0.9,2.2,1.5,3.1,2c-6.4,6.4-12.1,12.1-18,18c-0.5-0.5-1.5-1.3-2.4-2.3c-11.3-11.3-22.7-22.6-33.9-34c-1.9-1.9-3.8-2.6-6.5-2.6
		c-17.2,0.1-34.5,0.1-51.7,0.1h-4.2L614.7,64L614.7,64z"/>
	<path class="st2" d="M-42.8,27.9c-14-14.9-28.1-29.7-42.4-44.9c5.5-5.9,10.9-11.5,16.6-17.6C-55.2-20.5-42-6.6-28.1,8.1
		c0-2,0-3.1,0-4.3c0-11.6,0.1-23.3,0-34.9c0-2.6,0.7-3.5,3.4-3.5c6.6,0.2,13.2,0.1,20.1,0.1v87.4h-76.4V28.8H-43L-42.8,27.9z"/>
	<path class="st2" d="M-47.5,64c1.7,0,3.2,0,4.6,0C-28,64-13.1,63.9,1.8,64c3,0,3.8-0.8,3.7-3.8c-0.1-17.4,0-34.7-0.1-52.1
		c0-3.3,1-4.2,4.2-4.1c6.8,0.2,13.6,0.1,20.9,0.1v4.3c0,19.9,0,39.9-0.1,59.8c0,2.7,0.8,4.5,2.7,6.4c11.1,10.9,22,22,33.1,32.9
		c0.9,0.9,2.2,1.5,3.1,2c-6.4,6.4-12.1,12.1-18,18c-0.5-0.5-1.5-1.3-2.4-2.3c-11.3-11.3-22.7-22.6-33.9-34c-1.9-1.9-3.8-2.6-6.5-2.6
		c-17.2,0.1-34.5,0.1-51.7,0.1h-4.2C-47.5,88.8-47.5,64-47.5,64z"/>
	<path class="st2" d="M785,27.9c-14-14.9-28.1-29.7-42.4-44.9c5.5-5.9,10.9-11.5,16.6-17.6c13.3,14.1,26.5,28,40.4,42.6
		c0-2,0-3.1,0-4.3c0-11.6,0.1-23.3,0-34.9c0-2.6,0.7-3.5,3.4-3.5c6.6,0.2,13.2,0.1,20.1,0.1v87.4h-76.4V28.8h38.1L785,27.9z"/>
	<path class="st2" d="M780.3,64c1.7,0,3.2,0,4.6,0c14.9,0,29.8-0.1,44.7,0.1c3,0,3.8-0.8,3.8-3.8c-0.1-17.4,0-34.7-0.1-52.1
		c0-3.3,1-4.2,4.2-4.1c6.8,0.2,13.6,0.1,20.9,0.1v4.3c0,19.9,0,39.9-0.1,59.8c0,2.7,0.8,4.5,2.7,6.4c11.1,10.9,22,22,33.1,32.9
		c0.9,0.9,2.2,1.5,3.1,2c-6.4,6.4-12.1,12.1-18,18c-0.5-0.5-1.5-1.3-2.4-2.3c-11.3-11.3-22.7-22.6-33.9-34c-1.9-1.9-3.8-2.6-6.5-2.6
		c-17.2,0.1-34.5,0.1-51.7,0.1h-4.2L780.3,64L780.3,64z"/>
	<path class="st2" d="M122.8,27.9c-14-14.9-28.1-29.7-42.4-44.9C86-22.8,91.3-28.5,97-34.5c13.3,14.1,26.5,28,40.4,42.6
		c0-2,0-3.1,0-4.3c0-11.6,0.1-23.3-0.1-34.9c0-2.6,0.7-3.5,3.4-3.5c6.6,0.2,13.2,0.1,20.1,0.1v87.4H84.4V28.8h38.1L122.8,27.9z"/>
	<path class="st2" d="M118.1,64c1.7,0,3.2,0,4.6,0c14.9,0,29.8-0.1,44.7,0.1c3,0,3.8-0.8,3.8-3.8c-0.1-17.4,0-34.7-0.1-52.1
		c0-3.3,1-4.2,4.2-4.1c6.8,0.2,13.6,0.1,20.9,0.1v4.3c0,19.9,0.1,39.9-0.1,59.8c0,2.7,0.8,4.5,2.7,6.4c11.1,10.9,22,22,33.1,32.9
		c0.9,0.9,2.2,1.5,3.1,2c-6.4,6.4-12.1,12.1-18.1,18c-0.5-0.5-1.5-1.3-2.4-2.3c-11.3-11.3-22.7-22.6-33.9-34
		c-1.9-1.9-3.8-2.6-6.5-2.6c-17.2,0.1-34.5,0.1-51.7,0.1h-4.2L118.1,64L118.1,64z"/>
	<path class="st2" d="M453.9,27.9c-14-14.9-28.1-29.7-42.4-44.9c5.5-5.9,10.9-11.5,16.6-17.6c13.3,14.1,26.5,28,40.4,42.6
		c0-2,0-3.1,0-4.3c0-11.6,0.1-23.3,0-34.9c0-2.6,0.7-3.5,3.4-3.5c6.6,0.2,13.2,0.1,20.1,0.1v87.4h-76.4V28.8h38.1L453.9,27.9z"/>
	<path class="st2" d="M449.2,64c1.7,0,3.2,0,4.6,0c14.9,0,29.8-0.1,44.7,0.1c3,0,3.8-0.8,3.8-3.8c-0.1-17.4,0-34.7-0.1-52.1
		c0-3.3,1-4.2,4.2-4.1c6.8,0.2,13.6,0.1,20.9,0.1v4.3c0,19.9,0,39.9-0.1,59.8c0,2.7,0.8,4.5,2.7,6.4c11.1,10.9,22,22,33.1,32.9
		c0.9,0.9,2.2,1.5,3.1,2c-6.4,6.4-12.1,12.1-18,18c-0.5-0.5-1.5-1.3-2.4-2.3c-11.3-11.3-22.7-22.6-33.9-34c-1.9-1.9-3.8-2.6-6.5-2.6
		c-17.2,0.1-34.5,0.1-51.7,0.1h-4.2L449.2,64L449.2,64z"/>
	<path class="st2" d="M-208.3,27.9c-14-14.9-28.1-29.7-42.4-44.9c5.5-5.9,10.9-11.5,16.6-17.6c13.3,14.1,26.5,28,40.4,42.6
		c0-2,0-3.1,0-4.3c0-11.6,0.1-23.3-0.1-34.9c0-2.6,0.7-3.5,3.4-3.5c6.6,0.2,13.2,0.1,20.1,0.1v87.4h-76.4V28.8h38.1L-208.3,27.9z"/>
	<path class="st2" d="M-213,64c1.7,0,3.2,0,4.6,0c14.9,0,29.8-0.1,44.7,0.1c3,0,3.8-0.8,3.7-3.8c-0.1-17.4,0-34.7-0.1-52.1
		c0-3.3,1-4.2,4.2-4.1c6.8,0.2,13.6,0.1,20.9,0.1v4.3c0,19.9,0.1,39.9-0.1,59.8c0,2.7,0.8,4.5,2.7,6.4c11.1,10.9,22,22,33.1,32.9
		c0.9,0.9,2.2,1.5,3.1,2c-6.4,6.4-12.1,12.1-18,18c-0.5-0.5-1.5-1.3-2.4-2.3c-11.3-11.3-22.7-22.6-33.9-34c-1.9-1.9-3.8-2.6-6.5-2.6
		c-17.2,0.1-34.5,0.1-51.7,0.1h-4.2V64z"/>
	<path class="st2" d="M335.2,771.6c-14-14.9-28.1-29.7-42.4-44.9c5.5-5.9,10.9-11.5,16.6-17.6c13.3,14.1,26.5,28,40.4,42.6
		c0-2,0-3.1,0-4.3c0-11.6,0.1-23.3,0-34.9c0-2.6,0.7-3.5,3.4-3.5c6.6,0.2,13.2,0.1,20.1,0.1v87.4h-76.4v-24.1h38.1L335.2,771.6z"/>
	<path class="st2" d="M330.4,807.6c1.7,0,3.2,0,4.6,0c14.9,0,29.8-0.1,44.7,0.1c3,0,3.8-0.8,3.8-3.8c-0.1-17.3,0-34.7-0.1-52.1
		c0-3.3,1-4.2,4.2-4.1c6.8,0.2,13.6,0.1,20.9,0.1v4.3c0,19.9,0,39.9-0.1,59.8c0,2.7,0.8,4.5,2.7,6.4c11.1,10.9,22,22,33.1,33
		c0.9,0.9,2.2,1.5,3.1,2c-6.4,6.4-12.1,12.1-18,18c-0.5-0.5-1.5-1.3-2.4-2.3c-11.3-11.3-22.7-22.6-33.9-34c-1.9-1.9-3.8-2.6-6.5-2.6
		c-17.2,0.1-34.5,0.1-51.7,0.1h-4.2L330.4,807.6L330.4,807.6z"/>
	<path class="st2" d="M-327,771.6c-14-14.9-28.1-29.7-42.4-44.9c5.5-5.9,10.9-11.5,16.6-17.6c13.3,14.1,26.5,28,40.4,42.6
		c0-2,0-3.1,0-4.3c0-11.6,0.1-23.3,0-34.9c0-2.6,0.7-3.5,3.4-3.5c6.6,0.2,13.2,0.1,20.1,0.1v87.4h-76.4v-24.1h38.1L-327,771.6z"/>
	<path class="st2" d="M-331.8,807.6c1.7,0,3.2,0,4.6,0c14.9,0,29.8-0.1,44.7,0.1c3,0,3.8-0.8,3.7-3.8c-0.1-17.3,0-34.7-0.1-52.1
		c0-3.3,1-4.2,4.2-4.1c6.8,0.2,13.6,0.1,20.9,0.1v4.3c0,19.9,0.1,39.9-0.1,59.8c0,2.7,0.8,4.5,2.7,6.4c11.1,10.9,22,22,33.1,33
		c0.9,0.9,2.2,1.5,3.1,2c-6.4,6.4-12.1,12.1-18.1,18c-0.5-0.5-1.5-1.3-2.4-2.3c-11.3-11.3-22.7-22.6-33.9-34
		c-1.9-1.9-3.8-2.6-6.5-2.6c-17.2,0.1-34.5,0.1-51.7,0.1h-4.2L-331.8,807.6L-331.8,807.6z"/>
	<path class="st2" d="M4.1,771.6c-14-14.9-28.1-29.7-42.4-44.9c5.5-5.9,10.9-11.5,16.6-17.6c13.3,14.1,26.5,28,40.4,42.6
		c0-2,0-3.1,0-4.3c0-11.6,0.1-23.3,0-34.9c0-2.6,0.7-3.5,3.4-3.5c6.6,0.2,13.2,0.1,20.1,0.1v87.4h-76.4v-24.1H3.8L4.1,771.6z"/>
	<path class="st2" d="M-0.7,807.6c1.7,0,3.2,0,4.6,0c14.9,0,29.8-0.1,44.7,0.1c3,0,3.8-0.8,3.8-3.8c-0.1-17.3,0-34.7-0.1-52.1
		c0-3.3,1-4.2,4.2-4.1c6.8,0.2,13.6,0.1,20.9,0.1v4.3c0,19.9,0.1,39.9-0.1,59.8c0,2.7,0.8,4.5,2.7,6.4c11.1,10.9,22,22,33.1,33
		c0.9,0.9,2.2,1.5,3.1,2c-6.4,6.4-12.1,12.1-18,18c-0.5-0.5-1.5-1.3-2.4-2.3c-11.3-11.3-22.7-22.6-33.9-34c-1.9-1.9-3.8-2.6-6.5-2.6
		c-17.2,0.1-34.5,0.1-51.7,0.1h-4.2L-0.7,807.6L-0.7,807.6z"/>
	<path class="st2" d="M-658.2,771.6c-14-14.9-28.1-29.7-42.4-44.9c5.5-5.9,10.9-11.5,16.6-17.6c13.3,14.1,26.5,28,40.4,42.6
		c0-2,0-3.1,0-4.3c0-11.6,0.1-23.3,0-34.9c0-2.6,0.7-3.5,3.4-3.5c6.6,0.2,13.2,0.1,20.1,0.1v87.4h-76.4v-24.1h38.1L-658.2,771.6z"/>
	<path class="st2" d="M-662.9,807.6c1.7,0,3.2,0,4.6,0c14.9,0,29.8-0.1,44.7,0.1c3,0,3.8-0.8,3.7-3.8c-0.1-17.3,0-34.7-0.1-52.1
		c0-3.3,1-4.2,4.2-4.1c6.8,0.2,13.6,0.1,20.9,0.1v4.3c0,19.9,0,39.9-0.1,59.8c0,2.7,0.8,4.5,2.7,6.4c11.1,10.9,22,22,33.1,33
		c0.9,0.9,2.2,1.5,3.1,2c-6.4,6.4-12.1,12.1-18,18c-0.5-0.5-1.5-1.3-2.4-2.3c-11.3-11.3-22.7-22.6-33.9-34c-1.9-1.9-3.8-2.6-6.5-2.6
		c-17.2,0.1-34.5,0.1-51.7,0.1h-4.2L-662.9,807.6L-662.9,807.6z"/>
	<path class="st2" d="M169.6,771.6c-14-14.9-28.1-29.7-42.4-44.9c5.5-5.9,10.9-11.5,16.6-17.6c13.3,14.1,26.5,28,40.4,42.6
		c0-2,0-3.1,0-4.3c0-11.6,0.1-23.3-0.1-34.9c0-2.6,0.7-3.5,3.4-3.5c6.6,0.2,13.2,0.1,20.1,0.1v87.4h-76.4v-24.1h38.1L169.6,771.6z"
		/>
	<path class="st2" d="M164.9,807.6c1.7,0,3.2,0,4.6,0c14.9,0,29.8-0.1,44.7,0.1c3,0,3.8-0.8,3.8-3.8c-0.1-17.3,0-34.7-0.1-52.1
		c0-3.3,1-4.2,4.2-4.1c6.8,0.2,13.6,0.1,20.9,0.1v4.3c0,19.9,0.1,39.9-0.1,59.8c0,2.7,0.8,4.5,2.7,6.4c11.1,10.9,22,22,33.1,33
		c0.9,0.9,2.2,1.5,3.1,2c-6.4,6.4-12.1,12.1-18,18c-0.5-0.5-1.5-1.3-2.4-2.3c-11.3-11.3-22.7-22.6-33.9-34c-1.9-1.9-3.8-2.6-6.5-2.6
		c-17.2,0.1-34.5,0.1-51.7,0.1h-4.2L164.9,807.6L164.9,807.6z"/>
	<path class="st2" d="M-492.6,771.6c-14-14.9-28.1-29.7-42.4-44.9c5.5-5.9,10.9-11.5,16.6-17.6c13.3,14.1,26.5,28,40.4,42.6
		c0-2,0-3.1,0-4.3c0-11.6,0.1-23.3,0-34.9c0-2.6,0.7-3.5,3.4-3.5c6.6,0.2,13.2,0.1,20.1,0.1v87.4H-531v-24.1h38.1L-492.6,771.6z"/>
	<path class="st2" d="M-497.3,807.6c1.7,0,3.2,0,4.6,0c14.9,0,29.8-0.1,44.7,0.1c3,0,3.8-0.8,3.7-3.8c-0.1-17.3,0-34.7-0.1-52.1
		c0-3.3,1-4.2,4.2-4.1c6.8,0.2,13.6,0.1,20.9,0.1v4.3c0,19.9,0,39.9-0.1,59.8c0,2.7,0.8,4.5,2.7,6.4c11.1,10.9,22,22,33.1,33
		c0.9,0.9,2.2,1.5,3.1,2c-6.4,6.4-12.1,12.1-18,18c-0.5-0.5-1.5-1.3-2.4-2.3c-11.3-11.3-22.7-22.6-33.9-34c-1.9-1.9-3.8-2.6-6.5-2.6
		c-17.2,0.1-34.5,0.1-51.7,0.1h-4.2V807.6z"/>
	<path class="st2" d="M-161.5,771.6c-14-14.9-28.1-29.7-42.4-44.9c5.5-5.9,10.9-11.5,16.6-17.6c13.3,14.1,26.5,28,40.4,42.6
		c0-2,0-3.1,0-4.3c0-11.6,0.1-23.3-0.1-34.9c0-2.6,0.7-3.5,3.4-3.5c6.6,0.2,13.2,0.1,20.1,0.1v87.4h-76.4v-24.1h38.1L-161.5,771.6z"
		/>
	<path class="st2" d="M-166.2,807.6c1.7,0,3.2,0,4.6,0c14.9,0,29.8-0.1,44.7,0.1c3,0,3.8-0.8,3.8-3.8c-0.1-17.3,0-34.7-0.1-52.1
		c0-3.3,1-4.2,4.2-4.1c6.8,0.2,13.6,0.1,20.9,0.1v4.3c0,19.9,0.1,39.9-0.1,59.8c0,2.7,0.8,4.5,2.7,6.4c11.1,10.9,22,22,33.1,33
		c0.9,0.9,2.2,1.5,3.1,2c-6.4,6.4-12.1,12.1-18.1,18c-0.5-0.5-1.5-1.3-2.4-2.3c-11.3-11.3-22.7-22.6-33.9-34
		c-1.9-1.9-3.8-2.6-6.5-2.6c-17.2,0.1-34.5,0.1-51.7,0.1h-4.2L-166.2,807.6L-166.2,807.6z"/>
	<path class="st2" d="M-823.7,771.6c-14-14.9-28.1-29.7-42.4-44.9c5.5-5.9,10.9-11.5,16.6-17.6c13.3,14.1,26.5,28,40.4,42.6
		c0-2,0-3.1,0-4.3c0-11.6,0.1-23.3,0-34.9c0-2.6,0.7-3.5,3.4-3.5c6.6,0.2,13.2,0.1,20.1,0.1v87.4h-76.4v-24.1h38.1L-823.7,771.6z"/>
	<path class="st2" d="M-828.4,807.6c1.7,0,3.2,0,4.6,0c14.9,0,29.8-0.1,44.7,0.1c3,0,3.8-0.8,3.7-3.8c-0.1-17.3,0-34.7-0.1-52.1
		c0-3.3,1-4.2,4.2-4.1c6.8,0.2,13.6,0.1,20.9,0.1v4.3c0,19.9,0,39.9-0.1,59.8c0,2.7,0.8,4.5,2.7,6.4c11.1,10.9,22,22,33.1,33
		c0.9,0.9,2.2,1.5,3.1,2c-6.4,6.4-12.1,12.1-18,18c-0.5-0.5-1.5-1.3-2.4-2.3c-11.3-11.3-22.7-22.6-33.9-34c-1.9-1.9-3.8-2.6-6.5-2.6
		c-17.2,0.1-34.5,0.1-51.7,0.1h-4.2L-828.4,807.6L-828.4,807.6z"/>
	<path class="st2" d="M1648.5,771.6c-14-14.9-28.1-29.7-42.4-44.9c5.5-5.9,10.9-11.5,16.6-17.6c13.3,14.1,26.5,28,40.4,42.6
		c0-2,0-3.1,0-4.3c0-11.6,0.1-23.3-0.1-34.9c0-2.6,0.7-3.5,3.4-3.5c6.6,0.2,13.2,0.1,20.1,0.1v87.4h-76.4v-24.1h38.1L1648.5,771.6z"
		/>
	<path class="st2" d="M1643.7,807.6c1.7,0,3.2,0,4.6,0c14.9,0,29.8-0.1,44.7,0.1c2.9,0,3.8-0.8,3.8-3.8c-0.1-17.3,0-34.7-0.1-52.1
		c0-3.3,1-4.2,4.2-4.1c6.8,0.2,13.6,0.1,20.9,0.1v4.3c0,19.9,0,39.9-0.1,59.8c0,2.7,0.8,4.5,2.8,6.4c11.1,10.9,22,22,33.1,33
		c0.9,0.9,2.2,1.5,3.1,2c-6.4,6.4-12.1,12.1-18.1,18c-0.5-0.5-1.5-1.3-2.4-2.3c-11.3-11.3-22.7-22.6-33.9-34
		c-1.9-1.9-3.8-2.6-6.5-2.6c-17.2,0.1-34.5,0.1-51.7,0.1h-4.2L1643.7,807.6L1643.7,807.6z"/>
	<path class="st2" d="M986.3,771.6c-14-14.9-28.1-29.7-42.4-44.9c5.5-5.9,10.9-11.5,16.6-17.6c13.3,14.1,26.5,28,40.4,42.6
		c0-2,0-3.1,0-4.3c0-11.6,0.1-23.3,0-34.9c0-2.6,0.7-3.5,3.4-3.5c6.6,0.2,13.2,0.1,20.1,0.1v87.4h-76.4v-24.1H986L986.3,771.6z"/>
	<path class="st2" d="M981.5,807.6c1.7,0,3.2,0,4.6,0c14.9,0,29.8-0.1,44.7,0.1c3,0,3.8-0.8,3.8-3.8c-0.1-17.3,0-34.7-0.1-52.1
		c0-3.3,1-4.2,4.2-4.1c6.8,0.2,13.6,0.1,20.9,0.1v4.3c0,19.9,0.1,39.9-0.1,59.8c0,2.7,0.8,4.5,2.7,6.4c11.1,10.9,22,22,33.1,33
		c0.9,0.9,2.2,1.5,3.1,2c-6.4,6.4-12.1,12.1-18.1,18c-0.5-0.5-1.5-1.3-2.4-2.3c-11.3-11.3-22.7-22.6-33.9-34
		c-1.9-1.9-3.8-2.6-6.5-2.6c-17.2,0.1-34.5,0.1-51.7,0.1h-4.2L981.5,807.6L981.5,807.6z"/>
	<path class="st2" d="M1317.4,771.6c-14-14.9-28.1-29.7-42.4-44.9c5.5-5.9,10.9-11.5,16.6-17.6c13.3,14.1,26.5,28,40.4,42.6
		c0-2,0-3.1,0-4.3c0-11.6,0.1-23.3,0-34.9c0-2.6,0.7-3.5,3.4-3.5c6.6,0.2,13.2,0.1,20.1,0.1v87.4H1279v-24.1h38.1L1317.4,771.6z"/>
	<path class="st2" d="M1312.6,807.6c1.7,0,3.2,0,4.6,0c14.9,0,29.8-0.1,44.7,0.1c3,0,3.8-0.8,3.8-3.8c-0.1-17.3,0-34.7-0.1-52.1
		c0-3.3,1-4.2,4.2-4.1c6.8,0.2,13.6,0.1,20.9,0.1v4.3c0,19.9,0.1,39.9-0.1,59.8c0,2.7,0.8,4.5,2.7,6.4c11.1,10.9,22,22,33.1,33
		c0.9,0.9,2.3,1.5,3.1,2c-6.4,6.4-12.1,12.1-18.1,18c-0.5-0.5-1.5-1.3-2.4-2.3c-11.3-11.3-22.7-22.6-33.9-34
		c-1.9-1.9-3.8-2.6-6.4-2.6c-17.2,0.1-34.5,0.1-51.7,0.1h-4.2L1312.6,807.6L1312.6,807.6z"/>
	<path class="st2" d="M655.2,771.6c-14-14.9-28.1-29.7-42.4-44.9c5.5-5.9,10.9-11.5,16.6-17.6c13.3,14.1,26.5,28,40.4,42.6
		c0-2,0-3.1,0-4.3c0-11.6,0.1-23.3,0-34.9c0-2.6,0.7-3.5,3.4-3.5c6.6,0.2,13.2,0.1,20.1,0.1v87.4h-76.4v-24.1h38.1L655.2,771.6z"/>
	<path class="st2" d="M650.4,807.6c1.7,0,3.2,0,4.6,0c14.9,0,29.8-0.1,44.7,0.1c3,0,3.8-0.8,3.7-3.8c-0.1-17.3,0-34.7-0.1-52.1
		c0-3.3,1-4.2,4.2-4.1c6.8,0.2,13.6,0.1,20.9,0.1v4.3c0,19.9,0,39.9-0.1,59.8c0,2.7,0.8,4.5,2.7,6.4c11.1,10.9,22,22,33.1,33
		c0.9,0.9,2.2,1.5,3.1,2c-6.4,6.4-12.1,12.1-18,18c-0.5-0.5-1.5-1.3-2.4-2.3c-11.3-11.3-22.7-22.6-33.9-34c-1.9-1.9-3.8-2.6-6.5-2.6
		c-17.2,0.1-34.5,0.1-51.7,0.1h-4.2L650.4,807.6L650.4,807.6z"/>
	<path class="st2" d="M1482.9,771.6c-14-14.9-28.1-29.7-42.4-44.9c5.5-5.9,10.9-11.5,16.6-17.6c13.3,14.1,26.5,28,40.4,42.6
		c0-2,0-3.1,0-4.3c0-11.6,0.1-23.3-0.1-34.9c0-2.6,0.7-3.5,3.4-3.5c6.6,0.2,13.2,0.1,20.1,0.1v87.4h-76.4v-24.1h38.1L1482.9,771.6z"
		/>
	<path class="st2" d="M1478.2,807.6c1.7,0,3.2,0,4.6,0c14.9,0,29.8-0.1,44.7,0.1c2.9,0,3.8-0.8,3.8-3.8c-0.1-17.3,0-34.7-0.1-52.1
		c0-3.3,1-4.2,4.2-4.1c6.8,0.2,13.6,0.1,20.9,0.1v4.3c0,19.9,0.1,39.9-0.1,59.8c0,2.7,0.8,4.5,2.7,6.4c11.1,10.9,22,22,33.1,33
		c0.9,0.9,2.2,1.5,3.1,2c-6.4,6.4-12.1,12.1-18.1,18c-0.5-0.5-1.5-1.3-2.4-2.3c-11.3-11.3-22.7-22.6-33.9-34
		c-1.9-1.9-3.8-2.6-6.5-2.6c-17.2,0.1-34.5,0.1-51.7,0.1h-4.2L1478.2,807.6L1478.2,807.6z"/>
	<path class="st2" d="M820.7,771.6c-14-14.9-28.1-29.7-42.4-44.9c5.5-5.9,10.9-11.5,16.6-17.6c13.3,14.1,26.5,28,40.4,42.6
		c0-2,0-3.1,0-4.3c0-11.6,0.1-23.3,0-34.9c0-2.6,0.7-3.5,3.4-3.5c6.6,0.2,13.2,0.1,20.1,0.1v87.4h-76.4v-24.1h38.1L820.7,771.6z"/>
	<path class="st2" d="M816,807.6c1.7,0,3.2,0,4.6,0c14.9,0,29.8-0.1,44.7,0.1c3,0,3.8-0.8,3.8-3.8c-0.1-17.3,0-34.7-0.1-52.1
		c0-3.3,1-4.2,4.2-4.1c6.8,0.2,13.6,0.1,20.9,0.1v4.3c0,19.9,0,39.9-0.1,59.8c0,2.7,0.8,4.5,2.7,6.4c11.1,10.9,22,22,33.1,33
		c0.9,0.9,2.2,1.5,3.1,2c-6.4,6.4-12.1,12.1-18,18c-0.5-0.5-1.5-1.3-2.4-2.3c-11.3-11.3-22.7-22.6-33.9-34c-1.9-1.9-3.8-2.6-6.5-2.6
		c-17.2,0.1-34.5,0.1-51.7,0.1H816L816,807.6L816,807.6z"/>
	<path class="st2" d="M1151.8,771.6c-14-14.9-28.1-29.7-42.4-44.9c5.5-5.9,10.9-11.5,16.6-17.6c13.3,14.1,26.5,28,40.4,42.6
		c0-2,0-3.1,0-4.3c0-11.6,0.1-23.3-0.1-34.9c0-2.6,0.7-3.5,3.4-3.5c6.6,0.2,13.2,0.1,20.1,0.1v87.4h-76.4v-24.1h38.1L1151.8,771.6z"
		/>
	<path class="st2" d="M1147.1,807.6c1.7,0,3.2,0,4.6,0c14.9,0,29.8-0.1,44.7,0.1c3,0,3.8-0.8,3.8-3.8c-0.1-17.3,0-34.7-0.1-52.1
		c0-3.3,1-4.2,4.2-4.1c6.8,0.2,13.6,0.1,20.9,0.1v4.3c0,19.9,0.1,39.9-0.1,59.8c0,2.7,0.8,4.5,2.7,6.4c11.1,10.9,22,22,33.1,33
		c0.9,0.9,2.2,1.5,3.1,2c-6.4,6.4-12.1,12.1-18.1,18c-0.5-0.5-1.5-1.3-2.4-2.3c-11.3-11.3-22.7-22.6-33.9-34
		c-1.9-1.9-3.8-2.6-6.5-2.6c-17.2,0.1-34.5,0.1-51.7,0.1h-4.2L1147.1,807.6L1147.1,807.6z"/>
	<path class="st2" d="M489.6,771.6c-14-14.9-28.1-29.7-42.4-44.9c5.5-5.9,10.9-11.5,16.6-17.6c13.3,14.1,26.5,28,40.4,42.6
		c0-2,0-3.1,0-4.3c0-11.6,0.1-23.3,0-34.9c0-2.6,0.7-3.5,3.4-3.5c6.6,0.2,13.2,0.1,20.1,0.1v87.4h-76.4v-24.1h38.1L489.6,771.6z"/>
	<path class="st2" d="M484.9,807.6c1.7,0,3.2,0,4.6,0c14.9,0,29.8-0.1,44.7,0.1c3,0,3.8-0.8,3.7-3.8c-0.1-17.3,0-34.7-0.1-52.1
		c0-3.3,1-4.2,4.2-4.1c6.8,0.2,13.6,0.1,20.9,0.1v4.3c0,19.9,0,39.9-0.1,59.8c0,2.7,0.8,4.5,2.7,6.4c11.1,10.9,22,22,33.1,33
		c0.9,0.9,2.2,1.5,3.1,2c-6.4,6.4-12.1,12.1-18,18c-0.5-0.5-1.5-1.3-2.4-2.3c-11.3-11.3-22.7-22.6-33.9-34c-1.9-1.9-3.8-2.6-6.5-2.6
		c-17.2,0.1-34.5,0.1-51.7,0.1h-4.2V807.6z"/>
	<path class="st2" d="M-13.8,399.8c-14-14.9-28.1-29.7-42.4-44.9c5.5-5.9,10.9-11.5,16.6-17.6c13.3,14.1,26.5,28,40.4,42.6
		c0-2,0-3.1,0-4.3c0-11.6,0.1-23.3-0.1-34.9c0-2.6,0.7-3.5,3.4-3.5c6.6,0.2,13.2,0.1,20.1,0.1v87.4h-76.4v-24.1h38.1L-13.8,399.8z"
		/>
	<path class="st2" d="M-18.5,435.8c1.7,0,3.2,0,4.6,0c14.9,0,29.8-0.1,44.7,0.1c3,0,3.8-0.9,3.8-3.8c-0.1-17.4,0-34.7-0.1-52.1
		c0-3.3,1-4.2,4.2-4.1c6.8,0.2,13.6,0.1,20.9,0.1v4.3c0,19.9,0,39.9-0.1,59.8c0,2.7,0.8,4.5,2.7,6.4c11.1,10.9,22,22,33.1,33
		c0.9,0.9,2.2,1.5,3.1,2c-6.4,6.4-12.1,12.1-18,18c-0.5-0.5-1.5-1.4-2.4-2.3c-11.3-11.3-22.7-22.6-33.9-34c-1.9-1.9-3.8-2.6-6.5-2.6
		c-17.2,0.1-34.5,0.1-51.7,0.1h-4.2L-18.5,435.8L-18.5,435.8z"/>
	<path class="st2" d="M-676,399.8c-14-14.9-28.1-29.7-42.4-44.9c5.5-5.9,10.9-11.5,16.6-17.6c13.3,14.1,26.5,28,40.4,42.6
		c0-2,0-3.1,0-4.3c0-11.6,0.1-23.3,0-34.9c0-2.6,0.7-3.5,3.4-3.5c6.6,0.2,13.2,0.1,20.1,0.1v87.4h-76.4v-24.1h38.1L-676,399.8z"/>
	<path class="st2" d="M-680.7,435.8c1.7,0,3.2,0,4.6,0c14.9,0,29.8-0.1,44.7,0.1c3,0,3.8-0.9,3.7-3.8c-0.1-17.4,0-34.7-0.1-52.1
		c0-3.3,1-4.2,4.2-4.1c6.8,0.2,13.6,0.1,20.9,0.1v4.3c0,19.9,0,39.9-0.1,59.8c0,2.7,0.8,4.5,2.7,6.4c11.1,10.9,22,22,33.1,33
		c0.9,0.9,2.2,1.5,3.1,2c-6.4,6.4-12.1,12.1-18,18c-0.5-0.5-1.5-1.4-2.4-2.3c-11.3-11.3-22.7-22.6-33.9-34c-1.9-1.9-3.8-2.6-6.5-2.6
		c-17.2,0.1-34.5,0.1-51.7,0.1h-4.2L-680.7,435.8L-680.7,435.8z"/>
	<path class="st2" d="M-344.9,399.8c-14-14.9-28.1-29.7-42.4-44.9c5.5-5.9,10.9-11.5,16.6-17.6c13.3,14.1,26.5,28,40.4,42.6
		c0-2,0-3.1,0-4.3c0-11.6,0.1-23.3,0-34.9c0-2.6,0.7-3.5,3.4-3.5c6.6,0.2,13.2,0.1,20.1,0.1v87.4h-76.4v-24.1h38.1L-344.9,399.8z"/>
	<path class="st2" d="M-349.6,435.8c1.7,0,3.2,0,4.6,0c14.9,0,29.8-0.1,44.7,0.1c3,0,3.8-0.9,3.8-3.8c-0.1-17.4,0-34.7-0.1-52.1
		c0-3.3,1-4.2,4.2-4.1c6.8,0.2,13.6,0.1,20.9,0.1v4.3c0,19.9,0,39.9-0.1,59.8c0,2.7,0.8,4.5,2.7,6.4c11.1,10.9,22,22,33.1,33
		c0.9,0.9,2.2,1.5,3.1,2c-6.4,6.4-12.1,12.1-18.1,18c-0.5-0.5-1.5-1.4-2.4-2.3c-11.3-11.3-22.7-22.6-33.9-34
		c-1.9-1.9-3.8-2.6-6.5-2.6c-17.2,0.1-34.5,0.1-51.7,0.1h-4.2L-349.6,435.8L-349.6,435.8z"/>
	<path class="st2" d="M-1007.1,399.8c-14-14.9-28.1-29.7-42.4-44.9c5.5-5.9,10.9-11.5,16.6-17.6c13.3,14.1,26.5,28,40.4,42.6
		c0-2,0-3.1,0-4.3c0-11.6,0.1-23.3,0-34.9c0-2.6,0.7-3.5,3.4-3.5c6.6,0.2,13.2,0.1,20.1,0.1v87.4h-76.4v-24.1h38.1L-1007.1,399.8z"
		/>
	<path class="st2" d="M-1011.8,435.8c1.7,0,3.2,0,4.6,0c14.9,0,29.8-0.1,44.7,0.1c3,0,3.8-0.9,3.7-3.8c-0.1-17.4,0-34.7-0.1-52.1
		c0-3.3,1-4.2,4.2-4.1c6.8,0.2,13.6,0.1,20.9,0.1v4.3c0,19.9,0,39.9-0.1,59.8c0,2.7,0.8,4.5,2.7,6.4c11.1,10.9,22,22,33.1,33
		c0.9,0.9,2.2,1.5,3.1,2c-6.4,6.4-12.1,12.1-18,18c-0.5-0.5-1.5-1.4-2.4-2.3c-11.3-11.3-22.7-22.6-33.9-34c-1.9-1.9-3.8-2.6-6.5-2.6
		c-17.2,0.1-34.5,0.1-51.7,0.1h-4.2L-1011.8,435.8L-1011.8,435.8z"/>
	<path class="st2" d="M-179.4,399.8c-14-14.9-28.1-29.7-42.4-44.9c5.5-5.9,10.9-11.5,16.6-17.6c13.3,14.1,26.5,28,40.4,42.6
		c0-2,0-3.1,0-4.3c0-11.6,0.1-23.3-0.1-34.9c0-2.6,0.7-3.5,3.4-3.5c6.6,0.2,13.2,0.1,20.1,0.1v87.4h-76.4v-24.1h38.1L-179.4,399.8z"
		/>
	<path class="st2" d="M-184.1,435.8c1.7,0,3.2,0,4.6,0c14.9,0,29.8-0.1,44.7,0.1c3,0,3.8-0.9,3.8-3.8c-0.1-17.4,0-34.7-0.1-52.1
		c0-3.3,1-4.2,4.2-4.1c6.8,0.2,13.6,0.1,20.9,0.1v4.3c0,19.9,0.1,39.9-0.1,59.8c0,2.7,0.8,4.5,2.7,6.4c11.1,10.9,22,22,33.1,33
		c0.9,0.9,2.2,1.5,3.1,2c-6.4,6.4-12.1,12.1-18,18c-0.5-0.5-1.5-1.4-2.4-2.3c-11.3-11.3-22.7-22.6-33.9-34c-1.9-1.9-3.8-2.6-6.5-2.6
		c-17.2,0.1-34.5,0.1-51.7,0.1h-4.2L-184.1,435.8L-184.1,435.8z"/>
	<path class="st2" d="M-841.5,399.8c-14-14.9-28.1-29.7-42.4-44.9c5.5-5.9,10.9-11.5,16.6-17.6c13.3,14.1,26.5,28,40.4,42.6
		c0-2,0-3.1,0-4.3c0-11.6,0.1-23.3,0-34.9c0-2.6,0.7-3.5,3.4-3.5c6.6,0.2,13.2,0.1,20.1,0.1v87.4h-76.4v-24.1h38.1L-841.5,399.8z"/>
	<path class="st2" d="M-846.3,435.8c1.7,0,3.2,0,4.6,0c14.9,0,29.8-0.1,44.7,0.1c3,0,3.8-0.9,3.7-3.8c-0.1-17.4,0-34.7-0.1-52.1
		c0-3.3,1-4.2,4.2-4.1c6.8,0.2,13.6,0.1,20.9,0.1v4.3c0,19.9,0,39.9-0.1,59.8c0,2.7,0.8,4.5,2.7,6.4c11.1,10.9,22,22,33.1,33
		c0.9,0.9,2.2,1.5,3.1,2c-6.4,6.4-12.1,12.1-18,18c-0.5-0.5-1.5-1.4-2.4-2.3c-11.3-11.3-22.7-22.6-33.9-34c-1.9-1.9-3.8-2.6-6.5-2.6
		c-17.2,0.1-34.5,0.1-51.7,0.1h-4.2L-846.3,435.8L-846.3,435.8z"/>
	<path class="st2" d="M-510.5,399.8c-14-14.9-28.1-29.7-42.4-44.9c5.5-5.9,10.9-11.5,16.6-17.6c13.3,14.1,26.5,28,40.4,42.6
		c0-2,0-3.1,0-4.3c0-11.6,0.1-23.3,0-34.9c0-2.6,0.7-3.5,3.4-3.5c6.6,0.2,13.2,0.1,20.1,0.1v87.4h-76.4v-24.1h38.1L-510.5,399.8z"/>
	<path class="st2" d="M-515.2,435.8c1.7,0,3.2,0,4.6,0c14.9,0,29.8-0.1,44.7,0.1c3,0,3.8-0.9,3.8-3.8c-0.1-17.4,0-34.7-0.1-52.1
		c0-3.3,1-4.2,4.2-4.1c6.8,0.2,13.6,0.1,20.9,0.1v4.3c0,19.9,0,39.9-0.1,59.8c0,2.7,0.8,4.5,2.7,6.4c11.1,10.9,22,22,33.1,33
		c0.9,0.9,2.2,1.5,3.1,2c-6.4,6.4-12.1,12.1-18,18c-0.5-0.5-1.5-1.4-2.4-2.3c-11.3-11.3-22.7-22.6-33.9-34c-1.9-1.9-3.8-2.6-6.5-2.6
		c-17.2,0.1-34.5,0.1-51.7,0.1h-4.2L-515.2,435.8L-515.2,435.8z"/>
	<path class="st2" d="M-1172.7,399.8c-14-14.9-28.1-29.7-42.4-44.9c5.5-5.9,10.9-11.5,16.6-17.6c13.3,14.1,26.5,28,40.4,42.6
		c0-2,0-3.1,0-4.3c0-11.6,0.1-23.3-0.1-34.9c0-2.6,0.7-3.5,3.4-3.5c6.6,0.2,13.2,0.1,20.1,0.1v87.4h-76.4v-24.1h38.1L-1172.7,399.8z
		"/>
	<path class="st2" d="M-1177.4,435.8c1.7,0,3.2,0,4.6,0c14.9,0,29.8-0.1,44.7,0.1c3,0,3.8-0.9,3.7-3.8c-0.1-17.4,0-34.7-0.1-52.1
		c0-3.3,1-4.2,4.2-4.1c6.8,0.2,13.6,0.1,20.9,0.1v4.3c0,19.9,0.1,39.9-0.1,59.8c0,2.7,0.8,4.5,2.7,6.4c11.1,10.9,22,22,33.1,33
		c0.9,0.9,2.2,1.5,3.1,2c-6.4,6.4-12.1,12.1-18.1,18c-0.5-0.5-1.5-1.4-2.4-2.3c-11.3-11.3-22.7-22.6-33.9-34
		c-1.9-1.9-3.8-2.6-6.5-2.6c-17.2,0.1-34.5,0.1-51.7,0.1h-4.2L-1177.4,435.8L-1177.4,435.8z"/>
	<path class="st2" d="M1299.5,399.8c-14.1-14.9-28.1-29.7-42.4-44.9c5.5-5.9,10.9-11.5,16.6-17.6c13.3,14.1,26.5,28,40.4,42.6
		c0-2,0-3.1,0-4.3c0-11.6,0.1-23.3-0.1-34.9c0-2.6,0.7-3.5,3.4-3.5c6.6,0.2,13.2,0.1,20.1,0.1v87.4h-76.4v-24.1h38.1L1299.5,399.8z"
		/>
	<path class="st2" d="M1294.8,435.8c1.7,0,3.2,0,4.6,0c14.9,0,29.8-0.1,44.7,0.1c2.9,0,3.8-0.9,3.8-3.8c-0.1-17.4,0-34.7-0.1-52.1
		c0-3.3,1-4.2,4.2-4.1c6.8,0.2,13.6,0.1,20.9,0.1v4.3c0,19.9,0,39.9-0.1,59.8c0,2.7,0.8,4.5,2.8,6.4c11.1,10.9,22,22,33.1,33
		c0.9,0.9,2.2,1.5,3.1,2c-6.4,6.4-12.1,12.1-18.1,18c-0.5-0.5-1.5-1.4-2.4-2.3c-11.3-11.3-22.7-22.6-33.9-34
		c-1.9-1.9-3.8-2.6-6.5-2.6c-17.2,0.1-34.5,0.1-51.7,0.1h-4.2L1294.8,435.8L1294.8,435.8z"/>
	<path class="st2" d="M637.3,399.8c-14-14.9-28.1-29.7-42.4-44.9c5.5-5.9,10.9-11.5,16.6-17.6c13.3,14.1,26.5,28,40.4,42.6
		c0-2,0-3.1,0-4.3c0-11.6,0.1-23.3,0-34.9c0-2.6,0.7-3.5,3.4-3.5c6.6,0.2,13.2,0.1,20.1,0.1v87.4h-76.4v-24.1H637L637.3,399.8z"/>
	<path class="st2" d="M632.6,435.8c1.7,0,3.2,0,4.6,0c14.9,0,29.8-0.1,44.7,0.1c3,0,3.8-0.9,3.8-3.8c-0.1-17.4,0-34.7-0.1-52.1
		c0-3.3,1-4.2,4.2-4.1c6.8,0.2,13.6,0.1,20.9,0.1v4.3c0,19.9,0,39.9-0.1,59.8c0,2.7,0.8,4.5,2.7,6.4c11.1,10.9,22,22,33.1,33
		c0.9,0.9,2.2,1.5,3.1,2c-6.4,6.4-12.1,12.1-18,18c-0.5-0.5-1.5-1.4-2.4-2.3c-11.3-11.3-22.7-22.6-33.9-34c-1.9-1.9-3.8-2.6-6.5-2.6
		c-17.2,0.1-34.5,0.1-51.7,0.1h-4.2L632.6,435.8L632.6,435.8z"/>
	<path class="st2" d="M968.4,399.8c-14-14.9-28.1-29.7-42.4-44.9c5.5-5.9,10.9-11.5,16.6-17.6c13.3,14.1,26.5,28,40.4,42.6
		c0-2,0-3.1,0-4.3c0-11.6,0.1-23.3,0-34.9c0-2.6,0.7-3.5,3.4-3.5c6.6,0.2,13.2,0.1,20.1,0.1v87.4H930v-24.1h38.1L968.4,399.8z"/>
	<path class="st2" d="M963.7,435.8c1.7,0,3.2,0,4.6,0c14.9,0,29.8-0.1,44.7,0.1c3,0,3.8-0.9,3.8-3.8c-0.1-17.4,0-34.7-0.1-52.1
		c0-3.3,1-4.2,4.2-4.1c6.8,0.2,13.6,0.1,20.9,0.1v4.3c0,19.9,0.1,39.9-0.1,59.8c0,2.7,0.8,4.5,2.7,6.4c11.1,10.9,22,22,33.1,33
		c0.9,0.9,2.2,1.5,3.1,2c-6.4,6.4-12.1,12.1-18.1,18c-0.5-0.5-1.5-1.4-2.4-2.3c-11.3-11.3-22.7-22.6-33.9-34
		c-1.9-1.9-3.8-2.6-6.5-2.6c-17.2,0.1-34.5,0.1-51.7,0.1h-4.2L963.7,435.8L963.7,435.8z"/>
	<path class="st2" d="M306.2,399.8c-14-14.9-28.1-29.7-42.4-44.9c5.5-5.9,10.9-11.5,16.6-17.6c13.3,14.1,26.5,28,40.4,42.6
		c0-2,0-3.1,0-4.3c0-11.6,0.1-23.3,0-34.9c0-2.6,0.7-3.5,3.4-3.5c6.6,0.2,13.2,0.1,20.1,0.1v87.4h-76.4v-24.1h38.1L306.2,399.8z"/>
	<path class="st2" d="M301.5,435.8c1.7,0,3.2,0,4.6,0c14.9,0,29.8-0.1,44.7,0.1c3,0,3.8-0.9,3.7-3.8c-0.1-17.4,0-34.7-0.1-52.1
		c0-3.3,1-4.2,4.2-4.1c6.8,0.2,13.6,0.1,20.9,0.1v4.3c0,19.9,0,39.9-0.1,59.8c0,2.7,0.8,4.5,2.7,6.4c11.1,10.9,22,22,33.1,33
		c0.9,0.9,2.2,1.5,3.1,2c-6.4,6.4-12.1,12.1-18,18c-0.5-0.5-1.5-1.4-2.4-2.3c-11.3-11.3-22.7-22.6-33.9-34c-1.9-1.9-3.8-2.6-6.5-2.6
		c-17.2,0.1-34.5,0.1-51.7,0.1h-4.2L301.5,435.8L301.5,435.8z"/>
	<path class="st2" d="M1134,399.8c-14-14.9-28.1-29.7-42.4-44.9c5.5-5.9,10.9-11.5,16.6-17.6c13.3,14.1,26.5,28,40.4,42.6
		c0-2,0-3.1,0-4.3c0-11.6,0.1-23.3-0.1-34.9c0-2.6,0.7-3.5,3.4-3.5c6.6,0.2,13.2,0.1,20.1,0.1v87.4h-76.4v-24.1h38.1L1134,399.8z"/>
	<path class="st2" d="M1129.2,435.8c1.7,0,3.2,0,4.6,0c14.9,0,29.8-0.1,44.7,0.1c3,0,3.8-0.9,3.8-3.8c-0.1-17.4,0-34.7-0.1-52.1
		c0-3.3,1-4.2,4.2-4.1c6.8,0.2,13.6,0.1,20.9,0.1v4.3c0,19.9,0.1,39.9-0.1,59.8c0,2.7,0.8,4.5,2.7,6.4c11.1,10.9,22,22,33.1,33
		c0.9,0.9,2.2,1.5,3.1,2c-6.4,6.4-12.1,12.1-18.1,18c-0.5-0.5-1.5-1.4-2.4-2.3c-11.3-11.3-22.7-22.6-33.9-34
		c-1.9-1.9-3.8-2.6-6.5-2.6c-17.2,0.1-34.5,0.1-51.7,0.1h-4.2L1129.2,435.8L1129.2,435.8z"/>
	<path class="st2" d="M471.8,399.8c-14-14.9-28.1-29.7-42.4-44.9c5.5-5.9,10.9-11.5,16.6-17.6c13.3,14.1,26.5,28,40.4,42.6
		c0-2,0-3.1,0-4.3c0-11.6,0.1-23.3,0-34.9c0-2.6,0.7-3.5,3.4-3.5c6.6,0.2,13.2,0.1,20.1,0.1v87.4h-76.4v-24.1h38.1L471.8,399.8z"/>
	<path class="st2" d="M467,435.8c1.7,0,3.2,0,4.6,0c14.9,0,29.8-0.1,44.7,0.1c3,0,3.8-0.9,3.8-3.8c-0.1-17.4,0-34.7-0.1-52.1
		c0-3.3,1-4.2,4.2-4.1c6.8,0.2,13.6,0.1,20.9,0.1v4.3c0,19.9,0,39.9-0.1,59.8c0,2.7,0.8,4.5,2.7,6.4c11.1,10.9,22,22,33.1,33
		c0.9,0.9,2.2,1.5,3.1,2c-6.4,6.4-12.1,12.1-18,18c-0.5-0.5-1.5-1.4-2.4-2.3c-11.3-11.3-22.7-22.6-33.9-34c-1.9-1.9-3.8-2.6-6.5-2.6
		c-17.2,0.1-34.5,0.1-51.7,0.1H467L467,435.8L467,435.8z"/>
	<path class="st2" d="M802.9,399.8c-14-14.9-28.1-29.7-42.4-44.9c5.5-5.9,10.9-11.5,16.6-17.6c13.3,14.1,26.5,28,40.4,42.6
		c0-2,0-3.1,0-4.3c0-11.6,0.1-23.3,0-34.9c0-2.6,0.7-3.5,3.4-3.5c6.6,0.2,13.2,0.1,20.1,0.1v87.4h-76.4v-24.1h38.1L802.9,399.8z"/>
	<path class="st2" d="M798.1,435.8c1.7,0,3.2,0,4.6,0c14.9,0,29.8-0.1,44.7,0.1c3,0,3.8-0.9,3.8-3.8c-0.1-17.4,0-34.7-0.1-52.1
		c0-3.3,1-4.2,4.2-4.1c6.8,0.2,13.6,0.1,20.9,0.1v4.3c0,19.9,0,39.9-0.1,59.8c0,2.7,0.8,4.5,2.7,6.4c11.1,10.9,22,22,33.1,33
		c0.9,0.9,2.2,1.5,3.1,2c-6.4,6.4-12.1,12.1-18,18c-0.5-0.5-1.5-1.4-2.4-2.3c-11.3-11.3-22.7-22.6-33.9-34c-1.9-1.9-3.8-2.6-6.5-2.6
		c-17.2,0.1-34.5,0.1-51.7,0.1h-4.2L798.1,435.8L798.1,435.8z"/>
	<path class="st2" d="M140.7,399.8c-14-14.9-28.1-29.7-42.4-44.9c5.5-5.9,10.9-11.5,16.6-17.6c13.3,14.1,26.5,28,40.4,42.6
		c0-2,0-3.1,0-4.3c0-11.6,0.1-23.3-0.1-34.9c0-2.6,0.7-3.5,3.4-3.5c6.6,0.2,13.2,0.1,20.1,0.1v87.4h-76.4v-24.1h38.1L140.7,399.8z"
		/>
	<path class="st2" d="M135.9,435.8c1.7,0,3.2,0,4.6,0c14.9,0,29.8-0.1,44.7,0.1c3,0,3.8-0.9,3.7-3.8c-0.1-17.4,0-34.7-0.1-52.1
		c0-3.3,1-4.2,4.2-4.1c6.8,0.2,13.6,0.1,20.9,0.1v4.3c0,19.9,0.1,39.9-0.1,59.8c0,2.7,0.8,4.5,2.7,6.4c11.1,10.9,22,22,33.1,33
		c0.9,0.9,2.2,1.5,3.1,2c-6.4,6.4-12.1,12.1-18.1,18c-0.5-0.5-1.5-1.4-2.4-2.3c-11.3-11.3-22.7-22.6-33.9-34
		c-1.9-1.9-3.8-2.6-6.5-2.6c-17.2,0.1-34.5,0.1-51.7,0.1h-4.2V435.8z"/>
	<path class="st2" d="M684.1,1143.4c-14-14.9-28.1-29.7-42.4-44.9c5.5-5.9,10.9-11.5,16.6-17.6c13.3,14.1,26.5,28,40.4,42.6
		c0-2,0-3.1,0-4.3c0-11.6,0.1-23.3,0-34.9c0-2.6,0.7-3.5,3.4-3.5c6.6,0.2,13.2,0.1,20.1,0.1v87.4h-76.4v-24.1h38.1L684.1,1143.4z"/>
	<path class="st2" d="M679.4,1179.5c1.7,0,3.2,0,4.6,0c14.9,0,29.8-0.1,44.7,0.1c3,0,3.8-0.8,3.8-3.8c-0.1-17.3,0-34.7-0.1-52.1
		c0-3.3,1-4.2,4.2-4.1c6.8,0.2,13.6,0.1,20.9,0.1v4.3c0,19.9,0,39.9-0.1,59.8c0,2.7,0.8,4.6,2.7,6.4c11.1,10.9,22,22,33.1,32.9
		c0.9,0.9,2.2,1.5,3.1,2.1c-6.4,6.4-12.1,12.1-18,18c-0.5-0.5-1.5-1.3-2.4-2.3c-11.3-11.3-22.7-22.6-33.9-34
		c-1.9-1.9-3.8-2.6-6.5-2.6c-17.2,0.1-34.5,0.1-51.7,0.1h-4.2L679.4,1179.5L679.4,1179.5z"/>
	<path class="st2" d="M21.9,1143.4c-14-14.9-28.1-29.7-42.4-44.9c5.5-5.9,10.9-11.5,16.6-17.6c13.3,14.1,26.5,28,40.4,42.6
		c0-2,0-3.1,0-4.3c0-11.6,0.1-23.3,0-34.9c0-2.6,0.7-3.5,3.4-3.5c6.6,0.2,13.2,0.1,20.1,0.1v87.4h-76.4v-24.1h38.1L21.9,1143.4z"/>
	<path class="st2" d="M17.2,1179.5c1.7,0,3.2,0,4.6,0c14.9,0,29.8-0.1,44.7,0.1c3,0,3.8-0.8,3.7-3.8c-0.1-17.3,0-34.7-0.1-52.1
		c0-3.3,1-4.2,4.2-4.1c6.8,0.2,13.6,0.1,20.9,0.1v4.3c0,19.9,0.1,39.9-0.1,59.8c0,2.7,0.8,4.6,2.7,6.4c11.1,10.9,22,22,33.1,32.9
		c0.9,0.9,2.2,1.5,3.1,2.1c-6.4,6.4-12.1,12.1-18.1,18c-0.5-0.5-1.5-1.3-2.4-2.3c-11.3-11.3-22.7-22.6-33.9-34
		c-1.9-1.9-3.8-2.6-6.5-2.6c-17.2,0.1-34.5,0.1-51.7,0.1h-4.2L17.2,1179.5L17.2,1179.5z"/>
	<path class="st2" d="M353,1143.4c-14-14.9-28.1-29.7-42.4-44.9c5.5-5.9,10.9-11.5,16.6-17.6c13.3,14.1,26.5,28,40.4,42.6
		c0-2,0-3.1,0-4.3c0-11.6,0.1-23.3,0-34.9c0-2.6,0.7-3.5,3.4-3.5c6.6,0.2,13.2,0.1,20.1,0.1v87.4h-76.4v-24.1h38.1L353,1143.4z"/>
	<path class="st2" d="M348.3,1179.5c1.7,0,3.2,0,4.6,0c14.9,0,29.8-0.1,44.7,0.1c3,0,3.8-0.8,3.8-3.8c-0.1-17.3,0-34.7-0.1-52.1
		c0-3.3,1-4.2,4.2-4.1c6.8,0.2,13.6,0.1,20.9,0.1v4.3c0,19.9,0,39.9-0.1,59.8c0,2.7,0.8,4.6,2.7,6.4c11.1,10.9,22,22,33.1,32.9
		c0.9,0.9,2.2,1.5,3.1,2.1c-6.4,6.4-12.1,12.1-18,18c-0.5-0.5-1.5-1.3-2.4-2.3c-11.3-11.3-22.7-22.6-33.9-34
		c-1.9-1.9-3.8-2.6-6.5-2.6c-17.2,0.1-34.5,0.1-51.7,0.1h-4.2L348.3,1179.5L348.3,1179.5z"/>
	<path class="st2" d="M-309.2,1143.4c-14-14.9-28.1-29.7-42.4-44.9c5.5-5.9,10.9-11.5,16.6-17.6c13.3,14.1,26.5,28,40.4,42.6
		c0-2,0-3.1,0-4.3c0-11.6,0.1-23.3,0-34.9c0-2.6,0.7-3.5,3.4-3.5c6.6,0.2,13.2,0.1,20.1,0.1v87.4h-76.4v-24.1h38.1L-309.2,1143.4z"
		/>
	<path class="st2" d="M-313.9,1179.5c1.7,0,3.2,0,4.6,0c14.9,0,29.8-0.1,44.7,0.1c3,0,3.8-0.8,3.7-3.8c-0.1-17.3,0-34.7-0.1-52.1
		c0-3.3,1-4.2,4.2-4.1c6.8,0.2,13.6,0.1,20.9,0.1v4.3c0,19.9,0.1,39.9-0.1,59.8c0,2.7,0.8,4.6,2.7,6.4c11.1,10.9,22,22,33.1,32.9
		c0.9,0.9,2.2,1.5,3.1,2.1c-6.4,6.4-12.1,12.1-18.1,18c-0.5-0.5-1.5-1.3-2.4-2.3c-11.3-11.3-22.7-22.6-33.9-34
		c-1.9-1.9-3.8-2.6-6.5-2.6c-17.2,0.1-34.5,0.1-51.7,0.1h-4.2V1179.5z"/>
	<path class="st2" d="M518.6,1143.4c-14-14.9-28.1-29.7-42.4-44.9c5.5-5.9,10.9-11.5,16.6-17.6c13.3,14.1,26.5,28,40.4,42.6
		c0-2,0-3.1,0-4.3c0-11.6,0.1-23.3,0-34.9c0-2.6,0.7-3.5,3.4-3.5c6.6,0.2,13.2,0.1,20.1,0.1v87.4h-76.4v-24.1h38.1L518.6,1143.4z"/>
	<path class="st2" d="M513.8,1179.5c1.7,0,3.2,0,4.6,0c14.9,0,29.8-0.1,44.7,0.1c3,0,3.8-0.8,3.8-3.8c-0.1-17.3,0-34.7-0.1-52.1
		c0-3.3,1-4.2,4.2-4.1c6.8,0.2,13.6,0.1,20.9,0.1v4.3c0,19.9,0,39.9-0.1,59.8c0,2.7,0.8,4.6,2.7,6.4c11.1,10.9,22,22,33.1,32.9
		c0.9,0.9,2.2,1.5,3.1,2.1c-6.4,6.4-12.1,12.1-18,18c-0.5-0.5-1.5-1.3-2.4-2.3c-11.3-11.3-22.7-22.6-33.9-34
		c-1.9-1.9-3.8-2.6-6.5-2.6c-17.2,0.1-34.5,0.1-51.7,0.1h-4.2L513.8,1179.5L513.8,1179.5z"/>
	<path class="st2" d="M-143.6,1143.4c-14-14.9-28.1-29.7-42.4-44.9c5.5-5.9,10.9-11.5,16.6-17.6c13.3,14.1,26.5,28,40.4,42.6
		c0-2,0-3.1,0-4.3c0-11.6,0.1-23.3-0.1-34.9c0-2.6,0.7-3.5,3.4-3.5c6.6,0.2,13.2,0.1,20.1,0.1v87.4H-182v-24.1h38.1L-143.6,1143.4z"
		/>
	<path class="st2" d="M-148.4,1179.5c1.7,0,3.2,0,4.6,0c14.9,0,29.8-0.1,44.7,0.1c3,0,3.8-0.8,3.7-3.8c-0.1-17.3,0-34.7-0.1-52.1
		c0-3.3,1-4.2,4.2-4.1c6.8,0.2,13.6,0.1,20.9,0.1v4.3c0,19.9,0.1,39.9-0.1,59.8c0,2.7,0.8,4.6,2.7,6.4c11.1,10.9,22,22,33.1,32.9
		c0.9,0.9,2.2,1.5,3.1,2.1c-6.4,6.4-12.1,12.1-18,18c-0.5-0.5-1.5-1.3-2.4-2.3c-11.3-11.3-22.7-22.6-33.9-34
		c-1.9-1.9-3.8-2.6-6.5-2.6c-17.2,0.1-34.5,0.1-51.7,0.1h-4.2V1179.5z"/>
	<path class="st2" d="M187.5,1143.4c-14-14.9-28.1-29.7-42.4-44.9c5.5-5.9,10.9-11.5,16.6-17.6c13.3,14.1,26.5,28,40.4,42.6
		c0-2,0-3.1,0-4.3c0-11.6,0.1-23.3-0.1-34.9c0-2.6,0.7-3.5,3.4-3.5c6.6,0.2,13.2,0.1,20.1,0.1v87.4h-76.4v-24.1h38.1L187.5,1143.4z"
		/>
	<path class="st2" d="M182.7,1179.5c1.7,0,3.2,0,4.6,0c14.9,0,29.8-0.1,44.7,0.1c3,0,3.8-0.8,3.8-3.8c-0.1-17.3,0-34.7-0.1-52.1
		c0-3.3,1-4.2,4.2-4.1c6.8,0.2,13.6,0.1,20.9,0.1v4.3c0,19.9,0,39.9-0.1,59.8c0,2.7,0.8,4.6,2.7,6.4c11.1,10.9,22,22,33.1,32.9
		c0.9,0.9,2.2,1.5,3.1,2.1c-6.4,6.4-12.1,12.1-18,18c-0.5-0.5-1.5-1.3-2.4-2.3c-11.3-11.3-22.7-22.6-33.9-34
		c-1.9-1.9-3.8-2.6-6.5-2.6c-17.2,0.1-34.5,0.1-51.7,0.1h-4.2L182.7,1179.5L182.7,1179.5z"/>
	<path class="st2" d="M-474.7,1143.4c-14-14.9-28.1-29.7-42.4-44.9c5.5-5.9,10.9-11.5,16.6-17.6c13.3,14.1,26.5,28,40.4,42.6
		c0-2,0-3.1,0-4.3c0-11.6,0.1-23.3,0-34.9c0-2.6,0.7-3.5,3.4-3.5c6.6,0.2,13.2,0.1,20.1,0.1v87.4h-76.4v-24.1h38.1L-474.7,1143.4z"
		/>
	<path class="st2" d="M-479.5,1179.5c1.7,0,3.2,0,4.6,0c14.9,0,29.8-0.1,44.7,0.1c3,0,3.8-0.8,3.7-3.8c-0.1-17.3,0-34.7-0.1-52.1
		c0-3.3,1-4.2,4.2-4.1c6.8,0.2,13.6,0.1,20.9,0.1v4.3c0,19.9,0,39.9-0.1,59.8c0,2.7,0.8,4.6,2.7,6.4c11.1,10.9,22,22,33.1,32.9
		c0.9,0.9,2.2,1.5,3.1,2.1c-6.4,6.4-12.1,12.1-18,18c-0.5-0.5-1.5-1.3-2.4-2.3c-11.3-11.3-22.7-22.6-33.9-34
		c-1.9-1.9-3.8-2.6-6.5-2.6c-17.2,0.1-34.5,0.1-51.7,0.1h-4.2V1179.5z"/>
	<path class="st2" d="M1997.4,1143.4c-14-14.9-28.1-29.7-42.4-44.9c5.5-5.9,10.9-11.5,16.6-17.6c13.3,14.1,26.5,28,40.4,42.6
		c0-2,0-3.1,0-4.3c0-11.6,0.1-23.3-0.1-34.9c0-2.6,0.7-3.5,3.4-3.5c6.6,0.2,13.2,0.1,20.1,0.1v87.4H1959v-24.1h38.1L1997.4,1143.4z"
		/>
	<path class="st2" d="M1992.7,1179.5c1.7,0,3.2,0,4.6,0c14.9,0,29.8-0.1,44.7,0.1c2.9,0,3.8-0.8,3.8-3.8c-0.1-17.3,0-34.7-0.1-52.1
		c0-3.3,1-4.2,4.2-4.1c6.8,0.2,13.6,0.1,20.9,0.1v4.3c0,19.9,0,39.9-0.1,59.8c0,2.7,0.8,4.6,2.8,6.4c11.1,10.9,22,22,33.1,32.9
		c0.9,0.9,2.2,1.5,3.1,2.1c-6.4,6.4-12.1,12.1-18.1,18c-0.5-0.5-1.5-1.3-2.4-2.3c-11.3-11.3-22.7-22.6-33.9-34
		c-1.9-1.9-3.8-2.6-6.5-2.6c-17.2,0.1-34.5,0.1-51.7,0.1h-4.2L1992.7,1179.5L1992.7,1179.5z"/>
	<path class="st2" d="M1335.2,1143.4c-14-14.9-28.1-29.7-42.4-44.9c5.5-5.9,10.9-11.5,16.6-17.6c13.3,14.1,26.5,28,40.4,42.6
		c0-2,0-3.1,0-4.3c0-11.6,0.1-23.3-0.1-34.9c0-2.6,0.7-3.5,3.4-3.5c6.6,0.2,13.2,0.1,20.1,0.1v87.4h-76.4v-24.1h38.1L1335.2,1143.4z
		"/>
	<path class="st2" d="M1330.5,1179.5c1.7,0,3.2,0,4.6,0c14.9,0,29.8-0.1,44.7,0.1c3,0,3.8-0.8,3.8-3.8c-0.1-17.3,0-34.7-0.1-52.1
		c0-3.3,1.1-4.2,4.2-4.1c6.8,0.2,13.6,0.1,20.9,0.1v4.3c0,19.9,0.1,39.9-0.1,59.8c0,2.7,0.8,4.6,2.7,6.4
		c11.1,10.9,22.1,22,33.1,32.9c0.9,0.9,2.2,1.5,3.1,2.1c-6.4,6.4-12.1,12.1-18.1,18c-0.5-0.5-1.5-1.3-2.4-2.3
		c-11.3-11.3-22.7-22.6-33.9-34c-1.9-1.9-3.8-2.6-6.5-2.6c-17.2,0.1-34.5,0.1-51.7,0.1h-4.2L1330.5,1179.5L1330.5,1179.5z"/>
	<path class="st2" d="M1666.3,1143.4c-14-14.9-28.1-29.7-42.4-44.9c5.5-5.9,10.9-11.5,16.6-17.6c13.3,14.1,26.5,28,40.4,42.6
		c0-2,0-3.1,0-4.3c0-11.6,0.1-23.3,0-34.9c0-2.6,0.7-3.5,3.4-3.5c6.6,0.2,13.2,0.1,20.1,0.1v87.4H1628v-24.1h38.1L1666.3,1143.4z"/>
	<path class="st2" d="M1661.6,1179.5c1.7,0,3.2,0,4.6,0c14.9,0,29.8-0.1,44.7,0.1c3,0,3.8-0.8,3.8-3.8c-0.1-17.3,0-34.7-0.1-52.1
		c0-3.3,1-4.2,4.2-4.1c6.8,0.2,13.6,0.1,20.9,0.1v4.3c0,19.9,0.1,39.9-0.1,59.8c0,2.7,0.8,4.6,2.7,6.4c11.1,10.9,22,22,33.1,32.9
		c0.9,0.9,2.3,1.5,3.1,2.1c-6.4,6.4-12.1,12.1-18.1,18c-0.5-0.5-1.5-1.3-2.4-2.3c-11.3-11.3-22.7-22.6-33.9-34
		c-1.9-1.9-3.8-2.6-6.4-2.6c-17.2,0.1-34.5,0.1-51.7,0.1h-4.2L1661.6,1179.5L1661.6,1179.5z"/>
	<path class="st2" d="M1004.1,1143.4c-14-14.9-28.1-29.7-42.4-44.9c5.5-5.9,10.9-11.5,16.6-17.6c13.3,14.1,26.5,28,40.4,42.6
		c0-2,0-3.1,0-4.3c0-11.6,0.1-23.3,0-34.9c0-2.6,0.7-3.5,3.4-3.5c6.6,0.2,13.2,0.1,20.1,0.1v87.4h-76.4v-24.1h38.1L1004.1,1143.4z"
		/>
	<path class="st2" d="M999.4,1179.5c1.7,0,3.2,0,4.6,0c14.9,0,29.8-0.1,44.7,0.1c3,0,3.8-0.8,3.7-3.8c-0.1-17.3,0-34.7-0.1-52.1
		c0-3.3,1-4.2,4.2-4.1c6.8,0.2,13.6,0.1,20.9,0.1v4.3c0,19.9,0.1,39.9-0.1,59.8c0,2.7,0.8,4.6,2.7,6.4c11.1,10.9,22,22,33.1,32.9
		c0.9,0.9,2.2,1.5,3.1,2.1c-6.4,6.4-12.1,12.1-18.1,18c-0.5-0.5-1.5-1.3-2.4-2.3c-11.3-11.3-22.7-22.6-33.9-34
		c-1.9-1.9-3.8-2.6-6.5-2.6c-17.2,0.1-34.5,0.1-51.7,0.1h-4.2L999.4,1179.5L999.4,1179.5z"/>
	<path class="st2" d="M1831.9,1143.4c-14-14.9-28.1-29.7-42.4-44.9c5.5-5.9,10.9-11.5,16.6-17.6c13.3,14.1,26.5,28,40.4,42.6
		c0-2,0-3.1,0-4.3c0-11.6,0.1-23.3-0.1-34.9c0-2.6,0.7-3.5,3.4-3.5c6.6,0.2,13.2,0.1,20.1,0.1v87.4h-76.4v-24.1h38.1L1831.9,1143.4z
		"/>
	<path class="st2" d="M1827.1,1179.5c1.7,0,3.2,0,4.6,0c14.9,0,29.8-0.1,44.7,0.1c2.9,0,3.8-0.8,3.8-3.8c-0.1-17.3,0-34.7-0.1-52.1
		c0-3.3,1-4.2,4.2-4.1c6.8,0.2,13.6,0.1,20.9,0.1v4.3c0,19.9,0.1,39.9-0.1,59.8c0,2.7,0.8,4.6,2.7,6.4c11.1,10.9,22,22,33.1,32.9
		c0.9,0.9,2.2,1.5,3.1,2.1c-6.4,6.4-12.1,12.1-18.1,18c-0.5-0.5-1.5-1.3-2.4-2.3c-11.3-11.3-22.7-22.6-33.9-34
		c-1.9-1.9-3.8-2.6-6.5-2.6c-17.2,0.1-34.5,0.1-51.7,0.1h-4.2L1827.1,1179.5L1827.1,1179.5z"/>
	<path class="st2" d="M1169.7,1143.4c-14-14.9-28.1-29.7-42.4-44.9c5.5-5.9,10.9-11.5,16.6-17.6c13.3,14.1,26.5,28,40.4,42.6
		c0-2,0-3.1,0-4.3c0-11.6,0.1-23.3-0.1-34.9c0-2.6,0.7-3.5,3.4-3.5c6.6,0.2,13.2,0.1,20.1,0.1v87.4h-76.4v-24.1h38.1L1169.7,1143.4z
		"/>
	<path class="st2" d="M1164.9,1179.5c1.7,0,3.2,0,4.6,0c14.9,0,29.8-0.1,44.7,0.1c3,0,3.8-0.8,3.8-3.8c-0.1-17.3,0-34.7-0.1-52.1
		c0-3.3,1-4.2,4.2-4.1c6.8,0.2,13.6,0.1,20.9,0.1v4.3c0,19.9,0.1,39.9-0.1,59.8c0,2.7,0.8,4.6,2.7,6.4c11.1,10.9,22,22,33.1,32.9
		c0.9,0.9,2.2,1.5,3.1,2.1c-6.4,6.4-12.1,12.1-18.1,18c-0.5-0.5-1.5-1.3-2.4-2.3c-11.3-11.3-22.7-22.6-33.9-34
		c-1.9-1.9-3.8-2.6-6.5-2.6c-17.2,0.1-34.5,0.1-51.7,0.1h-4.2L1164.9,1179.5L1164.9,1179.5z"/>
	<path class="st2" d="M1500.8,1143.4c-14-14.9-28.1-29.7-42.4-44.9c5.5-5.9,10.9-11.5,16.6-17.6c13.3,14.1,26.5,28,40.4,42.6
		c0-2,0-3.1,0-4.3c0-11.6,0.1-23.3-0.1-34.9c0-2.6,0.7-3.5,3.4-3.5c6.6,0.2,13.2,0.1,20.1,0.1v87.4h-76.4v-24.1h38.1L1500.8,1143.4z
		"/>
	<path class="st2" d="M1496.1,1179.5c1.7,0,3.2,0,4.6,0c14.9,0,29.8-0.1,44.7,0.1c3,0,3.8-0.8,3.8-3.8c-0.1-17.3,0-34.7-0.1-52.1
		c0-3.3,1.1-4.2,4.2-4.1c6.8,0.2,13.6,0.1,20.9,0.1v4.3c0,19.9,0.1,39.9-0.1,59.8c0,2.7,0.8,4.6,2.7,6.4c11.1,10.9,22,22,33.1,32.9
		c0.9,0.9,2.2,1.5,3.1,2.1c-6.4,6.4-12.1,12.1-18.1,18c-0.5-0.5-1.5-1.3-2.4-2.3c-11.3-11.3-22.7-22.6-33.9-34
		c-1.9-1.9-3.8-2.6-6.5-2.6c-17.2,0.1-34.5,0.1-51.7,0.1h-4.2L1496.1,1179.5L1496.1,1179.5z"/>
	<path class="st2" d="M838.6,1143.4c-14-14.9-28.1-29.7-42.4-44.9c5.5-5.9,10.9-11.5,16.6-17.6c13.3,14.1,26.5,28,40.4,42.6
		c0-2,0-3.1,0-4.3c0-11.6,0.1-23.3,0-34.9c0-2.6,0.7-3.5,3.4-3.5c6.6,0.2,13.2,0.1,20.1,0.1v87.4h-76.4v-24.1h38.1L838.6,1143.4z"/>
	<path class="st2" d="M833.8,1179.5c1.7,0,3.2,0,4.6,0c14.9,0,29.8-0.1,44.7,0.1c3,0,3.8-0.8,3.7-3.8c-0.1-17.3,0-34.7-0.1-52.1
		c0-3.3,1-4.2,4.2-4.1c6.8,0.2,13.6,0.1,20.9,0.1v4.3c0,19.9,0,39.9-0.1,59.8c0,2.7,0.8,4.6,2.7,6.4c11.1,10.9,22,22,33.1,32.9
		c0.9,0.9,2.2,1.5,3.1,2.1c-6.4,6.4-12.1,12.1-18,18c-0.5-0.5-1.5-1.3-2.4-2.3c-11.3-11.3-22.7-22.6-33.9-34
		c-1.9-1.9-3.8-2.6-6.5-2.6c-17.2,0.1-34.5,0.1-51.7,0.1h-4.2L833.8,1179.5L833.8,1179.5z"/>
	<path class="st2" d="M-188.3,213.8c-14-14.9-28.1-29.7-42.4-44.9c5.5-5.9,10.9-11.5,16.6-17.6c13.3,14.1,26.5,28,40.4,42.6
		c0-2,0-3.1,0-4.3c0-11.6,0.1-23.3-0.1-34.9c0-2.6,0.7-3.5,3.4-3.5c6.6,0.2,13.2,0.1,20.1,0.1v87.4h-76.4v-24.1h38.1L-188.3,213.8z"
		/>
	<path class="st2" d="M-193,249.9c1.7,0,3.2,0,4.6,0c14.9,0,29.8-0.1,44.7,0.1c3,0,3.8-0.9,3.8-3.8c-0.1-17.4,0-34.7-0.1-52.1
		c0-3.3,1-4.2,4.2-4.1c6.8,0.2,13.6,0.1,20.9,0.1v4.3c0,19.9,0.1,39.9-0.1,59.8c0,2.7,0.8,4.5,2.7,6.4c11.1,10.9,22,22,33.1,33
		c0.9,0.9,2.2,1.5,3.1,2c-6.4,6.4-12.1,12.1-18,18c-0.5-0.5-1.5-1.4-2.4-2.3c-11.3-11.3-22.7-22.6-33.9-34c-1.9-1.9-3.8-2.6-6.5-2.6
		c-17.2,0.1-34.5,0.1-51.7,0.1h-4.2L-193,249.9L-193,249.9z"/>
	<path class="st2" d="M-850.5,213.8c-14-14.9-28.1-29.7-42.4-44.9c5.5-5.9,10.9-11.5,16.6-17.6c13.3,14.1,26.5,28,40.4,42.6
		c0-2,0-3.1,0-4.3c0-11.6,0.1-23.3,0-34.9c0-2.6,0.7-3.5,3.4-3.5c6.6,0.2,13.2,0.1,20.1,0.1v87.4h-76.4v-24.1h38.1L-850.5,213.8z"/>
	<path class="st2" d="M-855.2,249.9c1.7,0,3.2,0,4.6,0c14.9,0,29.8-0.1,44.7,0.1c3,0,3.8-0.9,3.7-3.8c-0.1-17.4,0-34.7-0.1-52.1
		c0-3.3,1-4.2,4.2-4.1c6.8,0.2,13.6,0.1,20.9,0.1v4.3c0,19.9,0,39.9-0.1,59.8c0,2.7,0.8,4.5,2.7,6.4c11.1,10.9,22,22,33.1,33
		c0.9,0.9,2.2,1.5,3.1,2c-6.4,6.4-12.1,12.1-18,18c-0.5-0.5-1.5-1.4-2.4-2.3c-11.3-11.3-22.7-22.6-33.9-34c-1.9-1.9-3.8-2.6-6.5-2.6
		c-17.2,0.1-34.5,0.1-51.7,0.1h-4.2L-855.2,249.9L-855.2,249.9z"/>
	<path class="st2" d="M-519.4,213.8c-14-14.9-28.1-29.7-42.4-44.9c5.5-5.9,10.9-11.5,16.6-17.6c13.3,14.1,26.5,28,40.4,42.6
		c0-2,0-3.1,0-4.3c0-11.6,0.1-23.3,0-34.9c0-2.6,0.7-3.5,3.4-3.5c6.6,0.2,13.2,0.1,20.1,0.1v87.4h-76.4v-24.1h38.1L-519.4,213.8z"/>
	<path class="st2" d="M-524.1,249.9c1.7,0,3.2,0,4.6,0c14.9,0,29.8-0.1,44.7,0.1c3,0,3.8-0.9,3.8-3.8c-0.1-17.4,0-34.7-0.1-52.1
		c0-3.3,1-4.2,4.2-4.1c6.8,0.2,13.6,0.1,20.9,0.1v4.3c0,19.9,0,39.9-0.1,59.8c0,2.7,0.8,4.5,2.7,6.4c11.1,10.9,22,22,33.1,33
		c0.9,0.9,2.2,1.5,3.1,2c-6.4,6.4-12.1,12.1-18,18c-0.5-0.5-1.5-1.4-2.4-2.3c-11.3-11.3-22.7-22.6-33.9-34c-1.9-1.9-3.8-2.6-6.5-2.6
		c-17.2,0.1-34.5,0.1-51.7,0.1h-4.2L-524.1,249.9L-524.1,249.9z"/>
	<path class="st2" d="M-1181.6,213.8c-14-14.9-28.1-29.7-42.4-44.9c5.5-5.9,10.9-11.5,16.6-17.6c13.3,14.1,26.5,28,40.4,42.6
		c0-2,0-3.1,0-4.3c0-11.6,0.1-23.3-0.1-34.9c0-2.6,0.7-3.5,3.4-3.5c6.6,0.2,13.2,0.1,20.1,0.1v87.4h-76.4v-24.1h38.1L-1181.6,213.8z
		"/>
	<path class="st2" d="M-1186.3,249.9c1.7,0,3.2,0,4.6,0c14.9,0,29.8-0.1,44.7,0.1c3,0,3.8-0.9,3.7-3.8c-0.1-17.4,0-34.7-0.1-52.1
		c0-3.3,1-4.2,4.2-4.1c6.8,0.2,13.6,0.1,20.9,0.1v4.3c0,19.9,0.1,39.9-0.1,59.8c0,2.7,0.8,4.5,2.7,6.4c11.1,10.9,22,22,33.1,33
		c0.9,0.9,2.2,1.5,3.1,2c-6.4,6.4-12.1,12.1-18.1,18c-0.5-0.5-1.5-1.4-2.4-2.3c-11.3-11.3-22.7-22.6-33.9-34
		c-1.9-1.9-3.8-2.6-6.5-2.6c-17.2,0.1-34.5,0.1-51.7,0.1h-4.2L-1186.3,249.9L-1186.3,249.9z"/>
	<path class="st2" d="M-353.8,213.8c-14-14.9-28.1-29.7-42.4-44.9c5.5-5.9,10.9-11.5,16.6-17.6c13.3,14.1,26.5,28,40.4,42.6
		c0-2,0-3.1,0-4.3c0-11.6,0.1-23.3,0-34.9c0-2.6,0.7-3.5,3.4-3.5c6.6,0.2,13.2,0.1,20.1,0.1v87.4h-76.4v-24.1h38.1L-353.8,213.8z"/>
	<path class="st2" d="M-358.6,249.9c1.7,0,3.2,0,4.6,0c14.9,0,29.8-0.1,44.7,0.1c3,0,3.8-0.9,3.8-3.8c-0.1-17.4,0-34.7-0.1-52.1
		c0-3.3,1-4.2,4.2-4.1c6.8,0.2,13.6,0.1,20.9,0.1v4.3c0,19.9,0,39.9-0.1,59.8c0,2.7,0.8,4.5,2.7,6.4c11.1,10.9,22,22,33.1,33
		c0.9,0.9,2.2,1.5,3.1,2c-6.4,6.4-12.1,12.1-18.1,18c-0.5-0.5-1.5-1.4-2.4-2.3c-11.3-11.3-22.7-22.6-33.9-34
		c-1.9-1.9-3.8-2.6-6.5-2.6c-17.2,0.1-34.5,0.1-51.7,0.1h-4.2L-358.6,249.9L-358.6,249.9z"/>
	<path class="st2" d="M-1016,213.8c-14-14.9-28.1-29.7-42.4-44.9c5.5-5.9,10.9-11.5,16.6-17.6c13.3,14.1,26.5,28,40.4,42.6
		c0-2,0-3.1,0-4.3c0-11.6,0.1-23.3,0-34.9c0-2.6,0.7-3.5,3.4-3.5c6.6,0.2,13.2,0.1,20.1,0.1v87.4h-76.4v-24.1h38.1L-1016,213.8z"/>
	<path class="st2" d="M-1020.8,249.9c1.7,0,3.2,0,4.6,0c14.9,0,29.8-0.1,44.7,0.1c3,0,3.8-0.9,3.7-3.8c-0.1-17.4,0-34.7-0.1-52.1
		c0-3.3,1-4.2,4.2-4.1c6.8,0.2,13.6,0.1,20.9,0.1v4.3c0,19.9,0,39.9-0.1,59.8c0,2.7,0.8,4.5,2.7,6.4c11.1,10.9,22,22,33.1,33
		c0.9,0.9,2.2,1.5,3.1,2c-6.4,6.4-12.1,12.1-18,18c-0.5-0.5-1.5-1.4-2.4-2.3c-11.3-11.3-22.7-22.6-33.9-34c-1.9-1.9-3.8-2.6-6.5-2.6
		c-17.2,0.1-34.5,0.1-51.7,0.1h-4.2L-1020.8,249.9L-1020.8,249.9z"/>
	<path class="st2" d="M-684.9,213.8c-14-14.9-28.1-29.7-42.4-44.9c5.5-5.9,10.9-11.5,16.6-17.6c13.3,14.1,26.5,28,40.4,42.6
		c0-2,0-3.1,0-4.3c0-11.6,0.1-23.3,0-34.9c0-2.6,0.7-3.5,3.4-3.5c6.6,0.2,13.2,0.1,20.1,0.1v87.4h-76.4v-24.1h38.1L-684.9,213.8z"/>
	<path class="st2" d="M-689.7,249.9c1.7,0,3.2,0,4.6,0c14.9,0,29.8-0.1,44.7,0.1c3,0,3.8-0.9,3.8-3.8c-0.1-17.4,0-34.7-0.1-52.1
		c0-3.3,1-4.2,4.2-4.1c6.8,0.2,13.6,0.1,20.9,0.1v4.3c0,19.9,0,39.9-0.1,59.8c0,2.7,0.8,4.5,2.7,6.4c11.1,10.9,22,22,33.1,33
		c0.9,0.9,2.2,1.5,3.1,2c-6.4,6.4-12.1,12.1-18,18c-0.5-0.5-1.5-1.4-2.4-2.3c-11.3-11.3-22.7-22.6-33.9-34c-1.9-1.9-3.8-2.6-6.5-2.6
		c-17.2,0.1-34.5,0.1-51.7,0.1h-4.2L-689.7,249.9L-689.7,249.9z"/>
	<path class="st2" d="M-1347.1,213.8c-14-14.9-28.1-29.7-42.4-44.9c5.5-5.9,10.9-11.5,16.6-17.6c13.3,14.1,26.5,28,40.4,42.6
		c0-2,0-3.1,0-4.3c0-11.6,0.1-23.3-0.1-34.9c0-2.6,0.7-3.5,3.4-3.5c6.6,0.2,13.2,0.1,20.1,0.1v87.4h-76.4v-24.1h38.1L-1347.1,213.8z
		"/>
	<path class="st2" d="M-1351.9,249.9c1.7,0,3.2,0,4.6,0c14.9,0,29.8-0.1,44.7,0.1c3,0,3.8-0.9,3.8-3.8c-0.1-17.4,0-34.7-0.1-52.1
		c0-3.3,1-4.2,4.2-4.1c6.8,0.2,13.6,0.1,20.9,0.1v4.3c0,19.9,0.1,39.9-0.1,59.8c0,2.7,0.8,4.5,2.7,6.4c11.1,10.9,22,22,33.1,33
		c0.9,0.9,2.2,1.5,3.1,2c-6.4,6.4-12.1,12.1-18.1,18c-0.5-0.5-1.5-1.4-2.4-2.3c-11.3-11.3-22.7-22.6-33.9-34
		c-1.9-1.9-3.8-2.6-6.5-2.6c-17.2,0.1-34.5,0.1-51.7,0.1h-4.2L-1351.9,249.9L-1351.9,249.9z"/>
	<path class="st2" d="M1125,213.8c-14-14.9-28.1-29.7-42.4-44.9c5.5-5.9,10.9-11.5,16.6-17.6c13.3,14.1,26.5,28,40.4,42.6
		c0-2,0-3.1,0-4.3c0-11.6,0.1-23.3-0.1-34.9c0-2.6,0.7-3.5,3.4-3.5c6.6,0.2,13.2,0.1,20.1,0.1v87.4h-76.4v-24.1h38.1L1125,213.8z"/>
	<path class="st2" d="M1120.3,249.9c1.7,0,3.2,0,4.6,0c14.9,0,29.8-0.1,44.7,0.1c3,0,3.8-0.9,3.7-3.8c-0.1-17.4,0-34.7-0.1-52.1
		c0-3.3,1-4.2,4.2-4.1c6.8,0.2,13.6,0.1,20.9,0.1v4.3c0,19.9,0.1,39.9-0.1,59.8c0,2.7,0.8,4.5,2.7,6.4c11.1,10.9,22,22,33.1,33
		c0.9,0.9,2.2,1.5,3.1,2c-6.4,6.4-12.1,12.1-18.1,18c-0.5-0.5-1.5-1.4-2.4-2.3c-11.3-11.3-22.7-22.6-33.9-34
		c-1.9-1.9-3.8-2.6-6.5-2.6c-17.2,0.1-34.5,0.1-51.7,0.1h-4.2L1120.3,249.9L1120.3,249.9z"/>
	<path class="st2" d="M462.8,213.8c-14-14.9-28.1-29.7-42.4-44.9c5.5-5.9,10.9-11.5,16.6-17.6c13.3,14.1,26.5,28,40.4,42.6
		c0-2,0-3.1,0-4.3c0-11.6,0.1-23.3,0-34.9c0-2.6,0.7-3.5,3.4-3.5c6.6,0.2,13.2,0.1,20.1,0.1v87.4h-76.4v-24.1h38.1L462.8,213.8z"/>
	<path class="st2" d="M458.1,249.9c1.7,0,3.2,0,4.6,0c14.9,0,29.8-0.1,44.7,0.1c3,0,3.8-0.9,3.8-3.8c-0.1-17.4,0-34.7-0.1-52.1
		c0-3.3,1-4.2,4.2-4.1c6.8,0.2,13.6,0.1,20.9,0.1v4.3c0,19.9,0,39.9-0.1,59.8c0,2.7,0.8,4.5,2.7,6.4c11.1,10.9,22,22,33.1,33
		c0.9,0.9,2.2,1.5,3.1,2c-6.4,6.4-12.1,12.1-18,18c-0.5-0.5-1.5-1.4-2.4-2.3c-11.3-11.3-22.7-22.6-33.9-34c-1.9-1.9-3.8-2.6-6.5-2.6
		c-17.2,0.1-34.5,0.1-51.7,0.1h-4.2L458.1,249.9L458.1,249.9z"/>
	<path class="st2" d="M793.9,213.8c-14-14.9-28.1-29.7-42.4-44.9c5.5-5.9,10.9-11.5,16.6-17.6c13.3,14.1,26.5,28,40.4,42.6
		c0-2,0-3.1,0-4.3c0-11.6,0.1-23.3,0-34.9c0-2.6,0.7-3.5,3.4-3.5c6.6,0.2,13.2,0.1,20.1,0.1v87.4h-76.4v-24.1h38.1L793.9,213.8z"/>
	<path class="st2" d="M789.2,249.9c1.7,0,3.2,0,4.6,0c14.9,0,29.8-0.1,44.7,0.1c3,0,3.8-0.9,3.8-3.8c-0.1-17.4,0-34.7-0.1-52.1
		c0-3.3,1-4.2,4.2-4.1c6.8,0.2,13.6,0.1,20.9,0.1v4.3c0,19.9,0,39.9-0.1,59.8c0,2.7,0.8,4.5,2.7,6.4c11.1,10.9,22,22,33.1,33
		c0.9,0.9,2.2,1.5,3.1,2c-6.4,6.4-12.1,12.1-18,18c-0.5-0.5-1.5-1.4-2.4-2.3c-11.3-11.3-22.7-22.6-33.9-34c-1.9-1.9-3.8-2.6-6.5-2.6
		c-17.2,0.1-34.5,0.1-51.7,0.1h-4.2L789.2,249.9L789.2,249.9z"/>
	<path class="st2" d="M131.7,213.8c-14-14.9-28.1-29.7-42.4-44.9c5.5-5.9,10.9-11.5,16.6-17.6c13.3,14.1,26.5,28,40.4,42.6
		c0-2,0-3.1,0-4.3c0-11.6,0.1-23.3-0.1-34.9c0-2.6,0.7-3.5,3.4-3.5c6.6,0.2,13.2,0.1,20.1,0.1v87.4H93.4v-24.1h38.1L131.7,213.8z"/>
	<path class="st2" d="M127,249.9c1.7,0,3.2,0,4.6,0c14.9,0,29.8-0.1,44.7,0.1c3,0,3.8-0.9,3.7-3.8c-0.1-17.4,0-34.7-0.1-52.1
		c0-3.3,1-4.2,4.2-4.1c6.8,0.2,13.6,0.1,20.9,0.1v4.3c0,19.9,0.1,39.9-0.1,59.8c0,2.7,0.8,4.5,2.7,6.4c11.1,10.9,22,22,33.1,33
		c0.9,0.9,2.2,1.5,3.1,2c-6.4,6.4-12.1,12.1-18.1,18c-0.5-0.5-1.5-1.4-2.4-2.3c-11.3-11.3-22.7-22.6-33.9-34
		c-1.9-1.9-3.8-2.6-6.5-2.6c-17.2,0.1-34.5,0.1-51.7,0.1H127V249.9z"/>
	<path class="st2" d="M959.5,213.8c-14-14.9-28.1-29.7-42.4-44.9c5.5-5.9,10.9-11.5,16.6-17.6c13.3,14.1,26.5,28,40.4,42.6
		c0-2,0-3.1,0-4.3c0-11.6,0.1-23.3,0-34.9c0-2.6,0.7-3.5,3.4-3.5c6.6,0.2,13.2,0.1,20.1,0.1v87.4h-76.4v-24.1h38.1L959.5,213.8z"/>
	<path class="st2" d="M954.8,249.9c1.7,0,3.2,0,4.6,0c14.9,0,29.8-0.1,44.7,0.1c3,0,3.8-0.9,3.8-3.8c-0.1-17.4,0-34.7-0.1-52.1
		c0-3.3,1-4.2,4.2-4.1c6.8,0.2,13.6,0.1,20.9,0.1v4.3c0,19.9,0.1,39.9-0.1,59.8c0,2.7,0.8,4.5,2.7,6.4c11.1,10.9,22,22,33.1,33
		c0.9,0.9,2.2,1.5,3.1,2c-6.4,6.4-12.1,12.1-18.1,18c-0.5-0.5-1.5-1.4-2.4-2.3c-11.3-11.3-22.7-22.6-33.9-34
		c-1.9-1.9-3.8-2.6-6.5-2.6c-17.2,0.1-34.5,0.1-51.7,0.1h-4.2L954.8,249.9L954.8,249.9z"/>
	<path class="st2" d="M297.3,213.8c-14-14.9-28.1-29.7-42.4-44.9c5.5-5.9,10.9-11.5,16.6-17.6c13.3,14.1,26.5,28,40.4,42.6
		c0-2,0-3.1,0-4.3c0-11.6,0.1-23.3,0-34.9c0-2.6,0.7-3.5,3.4-3.5c6.6,0.2,13.2,0.1,20.1,0.1v87.4h-76.4v-24.1H297L297.3,213.8z"/>
	<path class="st2" d="M292.5,249.9c1.7,0,3.2,0,4.6,0c14.9,0,29.8-0.1,44.7,0.1c3,0,3.8-0.9,3.8-3.8c-0.1-17.4,0-34.7-0.1-52.1
		c0-3.3,1-4.2,4.2-4.1c6.8,0.2,13.6,0.1,20.9,0.1v4.3c0,19.9,0,39.9-0.1,59.8c0,2.7,0.8,4.5,2.7,6.4c11.1,10.9,22,22,33.1,33
		c0.9,0.9,2.2,1.5,3.1,2c-6.4,6.4-12.1,12.1-18,18c-0.5-0.5-1.5-1.4-2.4-2.3c-11.3-11.3-22.7-22.6-33.9-34c-1.9-1.9-3.8-2.6-6.5-2.6
		c-17.2,0.1-34.5,0.1-51.7,0.1h-4.2L292.5,249.9L292.5,249.9z"/>
	<path class="st2" d="M628.4,213.8c-14-14.9-28.1-29.7-42.4-44.9c5.5-5.9,10.9-11.5,16.6-17.6c13.3,14.1,26.5,28,40.4,42.6
		c0-2,0-3.1,0-4.3c0-11.6,0.1-23.3,0-34.9c0-2.6,0.7-3.5,3.4-3.5c6.6,0.2,13.2,0.1,20.1,0.1v87.4H590v-24.1h38.1L628.4,213.8z"/>
	<path class="st2" d="M623.7,249.9c1.7,0,3.2,0,4.6,0c14.9,0,29.8-0.1,44.7,0.1c3,0,3.8-0.9,3.8-3.8c-0.1-17.4,0-34.7-0.1-52.1
		c0-3.3,1-4.2,4.2-4.1c6.8,0.2,13.6,0.1,20.9,0.1v4.3c0,19.9,0,39.9-0.1,59.8c0,2.7,0.8,4.5,2.7,6.4c11.1,10.9,22,22,33.1,33
		c0.9,0.9,2.2,1.5,3.1,2c-6.4,6.4-12.1,12.1-18,18c-0.5-0.5-1.5-1.4-2.4-2.3c-11.3-11.3-22.7-22.6-33.9-34c-1.9-1.9-3.8-2.6-6.5-2.6
		c-17.2,0.1-34.5,0.1-51.7,0.1h-4.2L623.7,249.9L623.7,249.9z"/>
	<path class="st2" d="M-33.8,213.8c-14-14.9-28.1-29.7-42.4-44.9c5.5-5.9,10.9-11.5,16.6-17.6c13.3,14.1,26.5,28,40.4,42.6
		c0-2,0-3.1,0-4.3c0-11.6,0.1-23.3,0-34.9c0-2.6,0.7-3.5,3.4-3.5c6.6,0.2,13.2,0.1,20.1,0.1v87.4h-76.4v-24.1h38.1L-33.8,213.8z"/>
	<path class="st2" d="M-38.5,249.9c1.7,0,3.2,0,4.6,0c14.9,0,29.8-0.1,44.7,0.1c3,0,3.8-0.9,3.7-3.8c-0.1-17.4,0-34.7-0.1-52.1
		c0-3.3,1-4.2,4.2-4.1c6.8,0.2,13.6,0.1,20.9,0.1v4.3c0,19.9,0,39.9-0.1,59.8c0,2.7,0.8,4.5,2.7,6.4c11.1,10.9,22,22,33.1,33
		c0.9,0.9,2.2,1.5,3.1,2c-6.4,6.4-12.1,12.1-18,18c-0.5-0.5-1.5-1.4-2.4-2.3c-11.3-11.3-22.7-22.6-33.9-34c-1.9-1.9-3.8-2.6-6.5-2.6
		c-17.2,0.1-34.5,0.1-51.7,0.1h-4.2C-38.6,274.7-38.6,249.9-38.5,249.9z"/>
	<path class="st2" d="M509.6,957.5c-14-14.9-28.1-29.7-42.4-44.9c5.5-5.9,10.9-11.5,16.6-17.6c13.3,14.1,26.5,28,40.4,42.6
		c0-2,0-3.1,0-4.3c0-11.6,0.1-23.3,0-34.9c0-2.6,0.7-3.5,3.4-3.5c6.6,0.2,13.2,0.1,20.1,0.1v87.4h-76.4v-24.1h38.1L509.6,957.5z"/>
	<path class="st2" d="M504.9,993.5c1.7,0,3.2,0,4.6,0c14.9,0,29.8-0.1,44.7,0.1c3,0,3.8-0.8,3.8-3.8c-0.1-17.3,0-34.7-0.1-52.1
		c0-3.3,1-4.2,4.2-4.1c6.8,0.2,13.6,0.1,20.9,0.1v4.3c0,19.9,0,39.9-0.1,59.8c0,2.7,0.8,4.5,2.7,6.4c11.1,10.9,22,22,33.1,32.9
		c0.9,0.9,2.2,1.5,3.1,2.1c-6.4,6.4-12.1,12.1-18,18c-0.5-0.5-1.5-1.3-2.4-2.3c-11.3-11.3-22.7-22.6-33.9-34
		c-1.9-1.9-3.8-2.6-6.5-2.6c-17.2,0.1-34.5,0.1-51.7,0.1h-4.2L504.9,993.5L504.9,993.5z"/>
	<path class="st2" d="M-152.6,957.5c-14-14.9-28.1-29.7-42.4-44.9c5.5-5.9,10.9-11.5,16.6-17.6c13.3,14.1,26.5,28,40.4,42.6
		c0-2,0-3.1,0-4.3c0-11.6,0.1-23.3-0.1-34.9c0-2.6,0.7-3.5,3.4-3.5c6.6,0.2,13.2,0.1,20.1,0.1v87.4h-76.4v-24.1h38.1L-152.6,957.5z"
		/>
	<path class="st2" d="M-157.3,993.5c1.7,0,3.2,0,4.6,0c14.9,0,29.8-0.1,44.7,0.1c3,0,3.8-0.8,3.7-3.8c-0.1-17.3,0-34.7-0.1-52.1
		c0-3.3,1-4.2,4.2-4.1c6.8,0.2,13.6,0.1,20.9,0.1v4.3c0,19.9,0.1,39.9-0.1,59.8c0,2.7,0.8,4.5,2.7,6.4c11.1,10.9,22,22,33.1,32.9
		c0.9,0.9,2.2,1.5,3.1,2.1c-6.4,6.4-12.1,12.1-18,18c-0.5-0.5-1.5-1.3-2.4-2.3c-11.3-11.3-22.7-22.6-33.9-34
		c-1.9-1.9-3.8-2.6-6.5-2.6c-17.2,0.1-34.5,0.1-51.7,0.1h-4.2L-157.3,993.5L-157.3,993.5z"/>
	<path class="st2" d="M178.5,957.5c-14-14.9-28.1-29.7-42.4-44.9c5.5-5.9,10.9-11.5,16.6-17.6c13.3,14.1,26.5,28,40.4,42.6
		c0-2,0-3.1,0-4.3c0-11.6,0.1-23.3-0.1-34.9c0-2.6,0.7-3.5,3.4-3.5c6.6,0.2,13.2,0.1,20.1,0.1v87.4h-76.4v-24.1h38.1L178.5,957.5z"
		/>
	<path class="st2" d="M173.8,993.5c1.7,0,3.2,0,4.6,0c14.9,0,29.8-0.1,44.7,0.1c3,0,3.8-0.8,3.8-3.8c-0.1-17.3,0-34.7-0.1-52.1
		c0-3.3,1-4.2,4.2-4.1c6.8,0.2,13.6,0.1,20.9,0.1v4.3c0,19.9,0.1,39.9-0.1,59.8c0,2.7,0.8,4.5,2.7,6.4c11.1,10.9,22,22,33.1,32.9
		c0.9,0.9,2.2,1.5,3.1,2.1c-6.4,6.4-12.1,12.1-18,18c-0.5-0.5-1.5-1.3-2.4-2.3c-11.3-11.3-22.7-22.6-33.9-34
		c-1.9-1.9-3.8-2.6-6.5-2.6c-17.2,0.1-34.5,0.1-51.7,0.1h-4.2L173.8,993.5L173.8,993.5z"/>
	<path class="st2" d="M-483.7,957.5c-14-14.9-28.1-29.7-42.4-44.9c5.5-5.9,10.9-11.5,16.6-17.6c13.3,14.1,26.5,28,40.4,42.6
		c0-2,0-3.1,0-4.3c0-11.6,0.1-23.3,0-34.9c0-2.6,0.7-3.5,3.4-3.5c6.6,0.2,13.2,0.1,20.1,0.1v87.4H-522v-24.1h38.1L-483.7,957.5z"/>
	<path class="st2" d="M-488.4,993.5c1.7,0,3.2,0,4.6,0c14.9,0,29.8-0.1,44.7,0.1c3,0,3.8-0.8,3.7-3.8c-0.1-17.3,0-34.7-0.1-52.1
		c0-3.3,1-4.2,4.2-4.1c6.8,0.2,13.6,0.1,20.9,0.1v4.3c0,19.9,0,39.9-0.1,59.8c0,2.7,0.8,4.5,2.7,6.4c11.1,10.9,22,22,33.1,32.9
		c0.9,0.9,2.2,1.5,3.1,2.1c-6.4,6.4-12.1,12.1-18,18c-0.5-0.5-1.5-1.3-2.4-2.3c-11.3-11.3-22.7-22.6-33.9-34
		c-1.9-1.9-3.8-2.6-6.5-2.6c-17.2,0.1-34.5,0.1-51.7,0.1h-4.2V993.5z"/>
	<path class="st2" d="M344.1,957.5c-14-14.9-28.1-29.7-42.4-44.9c5.5-5.9,10.9-11.5,16.6-17.6c13.3,14.1,26.5,28,40.4,42.6
		c0-2,0-3.1,0-4.3c0-11.6,0.1-23.3,0-34.9c0-2.6,0.7-3.5,3.4-3.5c6.6,0.2,13.2,0.1,20.1,0.1v87.4h-76.4v-24.1h38.1L344.1,957.5z"/>
	<path class="st2" d="M339.4,993.5c1.7,0,3.2,0,4.6,0c14.9,0,29.8-0.1,44.7,0.1c3,0,3.8-0.8,3.8-3.8c-0.1-17.3,0-34.7-0.1-52.1
		c0-3.3,1-4.2,4.2-4.1c6.8,0.2,13.6,0.1,20.9,0.1v4.3c0,19.9,0,39.9-0.1,59.8c0,2.7,0.8,4.5,2.7,6.4c11.1,10.9,22,22,33.1,32.9
		c0.9,0.9,2.2,1.5,3.1,2.1c-6.4,6.4-12.1,12.1-18,18c-0.5-0.5-1.5-1.3-2.4-2.3c-11.3-11.3-22.7-22.6-33.9-34
		c-1.9-1.9-3.8-2.6-6.5-2.6c-17.2,0.1-34.5,0.1-51.7,0.1h-4.2L339.4,993.5L339.4,993.5z"/>
	<path class="st2" d="M-318.1,957.5c-14-14.9-28.1-29.7-42.4-44.9c5.5-5.9,10.9-11.5,16.6-17.6c13.3,14.1,26.5,28,40.4,42.6
		c0-2,0-3.1,0-4.3c0-11.6,0.1-23.3,0-34.9c0-2.6,0.7-3.5,3.4-3.5c6.6,0.2,13.2,0.1,20.1,0.1v87.4h-76.4v-24.1h38.1L-318.1,957.5z"/>
	<path class="st2" d="M-322.9,993.5c1.7,0,3.2,0,4.6,0c14.9,0,29.8-0.1,44.7,0.1c3,0,3.8-0.8,3.7-3.8c-0.1-17.3,0-34.7-0.1-52.1
		c0-3.3,1-4.2,4.2-4.1c6.8,0.2,13.6,0.1,20.9,0.1v4.3c0,19.9,0.1,39.9-0.1,59.8c0,2.7,0.8,4.5,2.7,6.4c11.1,10.9,22,22,33.1,32.9
		c0.9,0.9,2.2,1.5,3.1,2.1c-6.4,6.4-12.1,12.1-18.1,18c-0.5-0.5-1.5-1.3-2.4-2.3c-11.3-11.3-22.7-22.6-33.9-34
		c-1.9-1.9-3.8-2.6-6.5-2.6c-17.2,0.1-34.5,0.1-51.7,0.1h-4.2V993.5z"/>
	<path class="st2" d="M13,957.5c-14-14.9-28.1-29.7-42.4-44.9c5.5-5.9,10.9-11.5,16.6-17.6c13.3,14.1,26.5,28,40.4,42.6
		c0-2,0-3.1,0-4.3c0-11.6,0.1-23.3,0-34.9c0-2.6,0.7-3.5,3.4-3.5c6.6,0.2,13.2,0.1,20.1,0.1v87.4h-76.4v-24.1h38.1L13,957.5z"/>
	<path class="st2" d="M8.2,993.5c1.7,0,3.2,0,4.6,0c14.9,0,29.8-0.1,44.7,0.1c3,0,3.8-0.8,3.8-3.8c-0.1-17.3,0-34.7-0.1-52.1
		c0-3.3,1-4.2,4.2-4.1c6.8,0.2,13.6,0.1,20.9,0.1v4.3c0,19.9,0.1,39.9-0.1,59.8c0,2.7,0.8,4.5,2.7,6.4c11.1,10.9,22,22,33.1,32.9
		c0.9,0.9,2.2,1.5,3.1,2.1c-6.4,6.4-12.1,12.1-18.1,18c-0.5-0.5-1.5-1.3-2.4-2.3c-11.3-11.3-22.7-22.6-33.9-34
		c-1.9-1.9-3.8-2.6-6.5-2.6c-17.2,0.1-34.5,0.1-51.7,0.1H8.2V993.5z"/>
	<path class="st2" d="M-649.2,957.5c-14-14.9-28.1-29.7-42.4-44.9c5.5-5.9,10.9-11.5,16.6-17.6c13.3,14.1,26.5,28,40.4,42.6
		c0-2,0-3.1,0-4.3c0-11.6,0.1-23.3,0-34.9c0-2.6,0.7-3.5,3.4-3.5c6.6,0.2,13.2,0.1,20.1,0.1v87.4h-76.4v-24.1h38.1L-649.2,957.5z"/>
	<path class="st2" d="M-654,993.5c1.7,0,3.2,0,4.6,0c14.9,0,29.8-0.1,44.7,0.1c3,0,3.8-0.8,3.7-3.8c-0.1-17.3,0-34.7-0.1-52.1
		c0-3.3,1-4.2,4.2-4.1c6.8,0.2,13.6,0.1,20.9,0.1v4.3c0,19.9,0,39.9-0.1,59.8c0,2.7,0.8,4.5,2.7,6.4c11.1,10.9,22,22,33.1,32.9
		c0.9,0.9,2.2,1.5,3.1,2.1c-6.4,6.4-12.1,12.1-18,18c-0.5-0.5-1.5-1.3-2.4-2.3c-11.3-11.3-22.7-22.6-33.9-34
		c-1.9-1.9-3.8-2.6-6.5-2.6c-17.2,0.1-34.5,0.1-51.7,0.1h-4.2L-654,993.5L-654,993.5z"/>
	<path class="st2" d="M1823,957.5c-14-14.9-28.1-29.7-42.4-44.9c5.5-5.9,10.9-11.5,16.6-17.6c13.3,14.1,26.5,28,40.4,42.6
		c0-2,0-3.1,0-4.3c0-11.6,0.1-23.3-0.1-34.9c0-2.6,0.7-3.5,3.4-3.5c6.6,0.2,13.2,0.1,20.1,0.1v87.4h-76.4v-24.1h38.1L1823,957.5z"/>
	<path class="st2" d="M1818.2,993.5c1.7,0,3.2,0,4.6,0c14.9,0,29.8-0.1,44.7,0.1c2.9,0,3.8-0.8,3.8-3.8c-0.1-17.3,0-34.7-0.1-52.1
		c0-3.3,1-4.2,4.2-4.1c6.8,0.2,13.6,0.1,20.9,0.1v4.3c0,19.9,0,39.9-0.1,59.8c0,2.7,0.8,4.5,2.8,6.4c11.1,10.9,22,22,33.1,32.9
		c0.9,0.9,2.2,1.5,3.1,2.1c-6.4,6.4-12.1,12.1-18.1,18c-0.5-0.5-1.5-1.3-2.4-2.3c-11.3-11.3-22.7-22.6-33.9-34
		c-1.9-1.9-3.8-2.6-6.5-2.6c-17.2,0.1-34.5,0.1-51.7,0.1h-4.2L1818.2,993.5L1818.2,993.5z"/>
	<path class="st2" d="M1160.8,957.5c-14-14.9-28.1-29.7-42.4-44.9c5.5-5.9,10.9-11.5,16.6-17.6c13.3,14.1,26.5,28,40.4,42.6
		c0-2,0-3.1,0-4.3c0-11.6,0.1-23.3-0.1-34.9c0-2.6,0.7-3.5,3.4-3.5c6.6,0.2,13.2,0.1,20.1,0.1v87.4h-76.4v-24.1h38.1L1160.8,957.5z"
		/>
	<path class="st2" d="M1156,993.5c1.7,0,3.2,0,4.6,0c14.9,0,29.8-0.1,44.7,0.1c3,0,3.8-0.8,3.8-3.8c-0.1-17.3,0-34.7-0.1-52.1
		c0-3.3,1-4.2,4.2-4.1c6.8,0.2,13.6,0.1,20.9,0.1v4.3c0,19.9,0.1,39.9-0.1,59.8c0,2.7,0.8,4.5,2.7,6.4c11.1,10.9,22,22,33.1,32.9
		c0.9,0.9,2.2,1.5,3.1,2.1c-6.4,6.4-12.1,12.1-18.1,18c-0.5-0.5-1.5-1.3-2.4-2.3c-11.3-11.3-22.7-22.6-33.9-34
		c-1.9-1.9-3.8-2.6-6.5-2.6c-17.2,0.1-34.5,0.1-51.7,0.1h-4.2L1156,993.5L1156,993.5z"/>
	<path class="st2" d="M1491.8,957.5c-14-14.9-28.1-29.7-42.4-44.9c5.5-5.9,10.9-11.5,16.6-17.6c13.3,14.1,26.5,28,40.4,42.6
		c0-2,0-3.1,0-4.3c0-11.6,0.1-23.3,0-34.9c0-2.6,0.7-3.5,3.4-3.5c6.6,0.2,13.2,0.1,20.1,0.1v87.4h-76.4v-24.1h38.1L1491.8,957.5z"/>
	<path class="st2" d="M1487.1,993.5c1.7,0,3.2,0,4.6,0c14.9,0,29.8-0.1,44.7,0.1c3,0,3.8-0.8,3.8-3.8c-0.1-17.3,0-34.7-0.1-52.1
		c0-3.3,1-4.2,4.2-4.1c6.8,0.2,13.6,0.1,20.9,0.1v4.3c0,19.9,0.1,39.9-0.1,59.8c0,2.7,0.8,4.5,2.7,6.4c11.1,10.9,22,22,33.1,32.9
		c0.9,0.9,2.3,1.5,3.1,2.1c-6.4,6.4-12.1,12.1-18.1,18c-0.5-0.5-1.5-1.3-2.4-2.3c-11.3-11.3-22.7-22.6-33.9-34
		c-1.9-1.9-3.8-2.6-6.4-2.6c-17.2,0.1-34.5,0.1-51.7,0.1h-4.2L1487.1,993.5L1487.1,993.5z"/>
	<path class="st2" d="M829.7,957.5c-14-14.9-28.1-29.7-42.4-44.9c5.5-5.9,10.9-11.5,16.6-17.6c13.3,14.1,26.5,28,40.4,42.6
		c0-2,0-3.1,0-4.3c0-11.6,0.1-23.3,0-34.9c0-2.6,0.7-3.5,3.4-3.5c6.6,0.2,13.2,0.1,20.1,0.1v87.4h-76.4v-24.1h38.1L829.7,957.5z"/>
	<path class="st2" d="M824.9,993.5c1.7,0,3.2,0,4.6,0c14.9,0,29.8-0.1,44.7,0.1c3,0,3.8-0.8,3.7-3.8c-0.1-17.3,0-34.7-0.1-52.1
		c0-3.3,1-4.2,4.2-4.1c6.8,0.2,13.6,0.1,20.9,0.1v4.3c0,19.9,0,39.9-0.1,59.8c0,2.7,0.8,4.5,2.7,6.4c11.1,10.9,22,22,33.1,32.9
		c0.9,0.9,2.2,1.5,3.1,2.1c-6.4,6.4-12.1,12.1-18,18c-0.5-0.5-1.5-1.3-2.4-2.3c-11.3-11.3-22.7-22.6-33.9-34
		c-1.9-1.9-3.8-2.6-6.5-2.6c-17.2,0.1-34.5,0.1-51.7,0.1h-4.2L824.9,993.5L824.9,993.5z"/>
	<path class="st2" d="M1657.4,957.5c-14-14.9-28.1-29.7-42.4-44.9c5.5-5.9,10.9-11.5,16.6-17.6c13.3,14.1,26.5,28,40.4,42.6
		c0-2,0-3.1,0-4.3c0-11.6,0.1-23.3-0.1-34.9c0-2.6,0.7-3.5,3.4-3.5c6.6,0.2,13.2,0.1,20.1,0.1v87.4H1619v-24.1h38.1L1657.4,957.5z"
		/>
	<path class="st2" d="M1652.7,993.5c1.7,0,3.2,0,4.6,0c14.9,0,29.8-0.1,44.7,0.1c2.9,0,3.8-0.8,3.8-3.8c-0.1-17.3,0-34.7-0.1-52.1
		c0-3.3,1-4.2,4.2-4.1c6.8,0.2,13.6,0.1,20.9,0.1v4.3c0,19.9,0.1,39.9-0.1,59.8c0,2.7,0.8,4.5,2.7,6.4c11.1,10.9,22,22,33.1,32.9
		c0.9,0.9,2.2,1.5,3.1,2.1c-6.4,6.4-12.1,12.1-18.1,18c-0.5-0.5-1.5-1.3-2.4-2.3c-11.3-11.3-22.7-22.6-33.9-34
		c-1.9-1.9-3.8-2.6-6.5-2.6c-17.2,0.1-34.5,0.1-51.7,0.1h-4.2L1652.7,993.5L1652.7,993.5z"/>
	<path class="st2" d="M995.2,957.5c-14-14.9-28.1-29.7-42.4-44.9c5.5-5.9,10.9-11.5,16.6-17.6c13.3,14.1,26.5,28,40.4,42.6
		c0-2,0-3.1,0-4.3c0-11.6,0.1-23.3,0-34.9c0-2.6,0.7-3.5,3.4-3.5c6.6,0.2,13.2,0.1,20.1,0.1v87.4h-76.4v-24.1h38.1L995.2,957.5z"/>
	<path class="st2" d="M990.5,993.5c1.7,0,3.2,0,4.6,0c14.9,0,29.8-0.1,44.7,0.1c3,0,3.8-0.8,3.8-3.8c-0.1-17.3,0-34.7-0.1-52.1
		c0-3.3,1-4.2,4.2-4.1c6.8,0.2,13.6,0.1,20.9,0.1v4.3c0,19.9,0.1,39.9-0.1,59.8c0,2.7,0.8,4.5,2.7,6.4c11.1,10.9,22,22,33.1,32.9
		c0.9,0.9,2.2,1.5,3.1,2.1c-6.4,6.4-12.1,12.1-18.1,18c-0.5-0.5-1.5-1.3-2.4-2.3c-11.3-11.3-22.7-22.6-33.9-34
		c-1.9-1.9-3.8-2.6-6.5-2.6c-17.2,0.1-34.5,0.1-51.7,0.1h-4.2L990.5,993.5L990.5,993.5z"/>
	<path class="st2" d="M1326.3,957.5c-14-14.9-28.1-29.7-42.4-44.9c5.5-5.9,10.9-11.5,16.6-17.6c13.3,14.1,26.5,28,40.4,42.6
		c0-2,0-3.1,0-4.3c0-11.6,0.1-23.3-0.1-34.9c0-2.6,0.7-3.5,3.4-3.5c6.6,0.2,13.2,0.1,20.1,0.1v87.4h-76.4v-24.1h38.1L1326.3,957.5z"
		/>
	<path class="st2" d="M1321.6,993.5c1.7,0,3.2,0,4.6,0c14.9,0,29.8-0.1,44.7,0.1c3,0,3.8-0.8,3.8-3.8c-0.1-17.3,0-34.7-0.1-52.1
		c0-3.3,1.1-4.2,4.2-4.1c6.8,0.2,13.6,0.1,20.9,0.1v4.3c0,19.9,0.1,39.9-0.1,59.8c0,2.7,0.8,4.5,2.7,6.4c11.1,10.9,22,22,33.1,32.9
		c0.9,0.9,2.2,1.5,3.1,2.1c-6.4,6.4-12.1,12.1-18.1,18c-0.5-0.5-1.5-1.3-2.4-2.3c-11.3-11.3-22.7-22.6-33.9-34
		c-1.9-1.9-3.8-2.6-6.5-2.6c-17.2,0.1-34.5,0.1-51.7,0.1h-4.2L1321.6,993.5L1321.6,993.5z"/>
	<path class="st2" d="M664.1,957.5c-14-14.9-28.1-29.7-42.4-44.9c5.5-5.9,10.9-11.5,16.6-17.6c13.3,14.1,26.5,28,40.4,42.6
		c0-2,0-3.1,0-4.3c0-11.6,0.1-23.3,0-34.9c0-2.6,0.7-3.5,3.4-3.5c6.6,0.2,13.2,0.1,20.1,0.1v87.4h-76.4v-24.1h38.1L664.1,957.5z"/>
	<path class="st2" d="M659.4,993.5c1.7,0,3.2,0,4.6,0c14.9,0,29.8-0.1,44.7,0.1c3,0,3.8-0.8,3.7-3.8c-0.1-17.3,0-34.7-0.1-52.1
		c0-3.3,1-4.2,4.2-4.1c6.8,0.2,13.6,0.1,20.9,0.1v4.3c0,19.9,0,39.9-0.1,59.8c0,2.7,0.8,4.5,2.7,6.4c11.1,10.9,22,22,33.1,32.9
		c0.9,0.9,2.2,1.5,3.1,2.1c-6.4,6.4-12.1,12.1-18,18c-0.5-0.5-1.5-1.3-2.4-2.3c-11.3-11.3-22.7-22.6-33.9-34
		c-1.9-1.9-3.8-2.6-6.5-2.6c-17.2,0.1-34.5,0.1-51.7,0.1h-4.2L659.4,993.5L659.4,993.5z"/>
	<path class="st2" d="M160.7,585.7c-14-14.9-28.1-29.7-42.4-44.9c5.5-5.9,10.9-11.5,16.6-17.6c13.3,14.1,26.5,28,40.4,42.6
		c0-2,0-3.1,0-4.3c0-11.6,0.1-23.3-0.1-34.9c0-2.6,0.7-3.5,3.4-3.5c6.6,0.2,13.2,0.1,20.1,0.1v87.4h-76.4v-24.1h38.1L160.7,585.7z"
		/>
	<path class="st2" d="M155.9,621.7c1.7,0,3.2,0,4.6,0c14.9,0,29.8-0.1,44.7,0.1c3,0,3.8-0.8,3.8-3.8c-0.1-17.3,0-34.7-0.1-52.1
		c0-3.3,1-4.2,4.2-4.1c6.8,0.2,13.6,0.1,20.9,0.1v4.3c0,19.9,0.1,39.9-0.1,59.8c0,2.7,0.8,4.5,2.7,6.4c11.1,10.9,22,22,33.1,33
		c0.9,0.9,2.2,1.5,3.1,2c-6.4,6.4-12.1,12.1-18.1,18c-0.5-0.5-1.5-1.3-2.4-2.3c-11.3-11.3-22.7-22.6-33.9-34
		c-1.9-1.9-3.8-2.6-6.5-2.6c-17.2,0.1-34.5,0.1-51.7,0.1H156L155.9,621.7L155.9,621.7z"/>
	<path class="st2" d="M-501.5,585.7c-14-14.9-28.1-29.7-42.4-44.9c5.5-5.9,10.9-11.5,16.6-17.6c13.3,14.1,26.5,28,40.4,42.6
		c0-2,0-3.1,0-4.3c0-11.6,0.1-23.3,0-34.9c0-2.6,0.7-3.5,3.4-3.5c6.6,0.2,13.2,0.1,20.1,0.1v87.4h-76.4v-24.1h38.1L-501.5,585.7z"/>
	<path class="st2" d="M-506.3,621.7c1.7,0,3.2,0,4.6,0c14.9,0,29.8-0.1,44.7,0.1c3,0,3.8-0.8,3.7-3.8c-0.1-17.3,0-34.7-0.1-52.1
		c0-3.3,1-4.2,4.2-4.1c6.8,0.2,13.6,0.1,20.9,0.1v4.3c0,19.9,0,39.9-0.1,59.8c0,2.7,0.8,4.5,2.7,6.4c11.1,10.9,22,22,33.1,33
		c0.9,0.9,2.2,1.5,3.1,2c-6.4,6.4-12.1,12.1-18,18c-0.5-0.5-1.5-1.3-2.4-2.3c-11.3-11.3-22.7-22.6-33.9-34c-1.9-1.9-3.8-2.6-6.5-2.6
		c-17.2,0.1-34.5,0.1-51.7,0.1h-4.2L-506.3,621.7L-506.3,621.7z"/>
	<path class="st2" d="M-170.4,585.7c-14-14.9-28.1-29.7-42.4-44.9c5.5-5.9,10.9-11.5,16.6-17.6c13.3,14.1,26.5,28,40.4,42.6
		c0-2,0-3.1,0-4.3c0-11.6,0.1-23.3-0.1-34.9c0-2.6,0.7-3.5,3.4-3.5c6.6,0.2,13.2,0.1,20.1,0.1v87.4h-76.4v-24.1h38.1L-170.4,585.7z"
		/>
	<path class="st2" d="M-175.2,621.7c1.7,0,3.2,0,4.6,0c14.9,0,29.8-0.1,44.7,0.1c3,0,3.8-0.8,3.8-3.8c-0.1-17.3,0-34.7-0.1-52.1
		c0-3.3,1-4.2,4.2-4.1c6.8,0.2,13.6,0.1,20.9,0.1v4.3c0,19.9,0.1,39.9-0.1,59.8c0,2.7,0.8,4.5,2.7,6.4c11.1,10.9,22,22,33.1,33
		c0.9,0.9,2.2,1.5,3.1,2c-6.4,6.4-12.1,12.1-18.1,18c-0.5-0.5-1.5-1.3-2.4-2.3c-11.3-11.3-22.7-22.6-33.9-34
		c-1.9-1.9-3.8-2.6-6.5-2.6c-17.2,0.1-34.5,0.1-51.7,0.1h-4.2L-175.2,621.7L-175.2,621.7z"/>
	<path class="st2" d="M-832.6,585.7c-14-14.9-28.1-29.7-42.4-44.9c5.5-5.9,10.9-11.5,16.6-17.6c13.3,14.1,26.5,28,40.4,42.6
		c0-2,0-3.1,0-4.3c0-11.6,0.1-23.3,0-34.9c0-2.6,0.7-3.5,3.4-3.5c6.6,0.2,13.2,0.1,20.1,0.1v87.4H-871v-24.1h38.1L-832.6,585.7z"/>
	<path class="st2" d="M-837.4,621.7c1.7,0,3.2,0,4.6,0c14.9,0,29.8-0.1,44.7,0.1c3,0,3.8-0.8,3.7-3.8c-0.1-17.3,0-34.7-0.1-52.1
		c0-3.3,1-4.2,4.2-4.1c6.8,0.2,13.6,0.1,20.9,0.1v4.3c0,19.9,0,39.9-0.1,59.8c0,2.7,0.8,4.5,2.7,6.4c11.1,10.9,22,22,33.1,33
		c0.9,0.9,2.2,1.5,3.1,2c-6.4,6.4-12.1,12.1-18,18c-0.5-0.5-1.5-1.3-2.4-2.3c-11.3-11.3-22.7-22.6-33.9-34c-1.9-1.9-3.8-2.6-6.5-2.6
		c-17.2,0.1-34.5,0.1-51.7,0.1h-4.2L-837.4,621.7L-837.4,621.7z"/>
	<path class="st2" d="M-4.9,585.7c-14-14.9-28.1-29.7-42.4-44.9c5.5-5.9,10.9-11.5,16.6-17.6c13.3,14.1,26.5,28,40.4,42.6
		c0-2,0-3.1,0-4.3c0-11.6,0.1-23.3-0.1-34.9c0-2.6,0.7-3.5,3.4-3.5c6.6,0.2,13.2,0.1,20.1,0.1v87.4h-76.4v-24.1h38.1L-4.9,585.7z"/>
	<path class="st2" d="M-9.6,621.7c1.7,0,3.2,0,4.6,0c14.9,0,29.8-0.1,44.7,0.1c3,0,3.8-0.8,3.8-3.8c-0.1-17.3,0-34.7-0.1-52.1
		c0-3.3,1-4.2,4.2-4.1c6.8,0.2,13.6,0.1,20.9,0.1v4.3c0,19.9,0.1,39.9-0.1,59.8c0,2.7,0.8,4.5,2.7,6.4c11.1,10.9,22,22,33.1,33
		c0.9,0.9,2.2,1.5,3.1,2c-6.4,6.4-12.1,12.1-18.1,18c-0.5-0.5-1.5-1.3-2.4-2.3c-11.3-11.3-22.7-22.6-33.9-34
		c-1.9-1.9-3.8-2.6-6.5-2.6c-17.2,0.1-34.5,0.1-51.7,0.1h-4.2L-9.6,621.7L-9.6,621.7z"/>
	<path class="st2" d="M-667.1,585.7c-14-14.9-28.1-29.7-42.4-44.9c5.5-5.9,10.9-11.5,16.6-17.6c13.3,14.1,26.5,28,40.4,42.6
		c0-2,0-3.1,0-4.3c0-11.6,0.1-23.3,0-34.9c0-2.6,0.7-3.5,3.4-3.5c6.6,0.2,13.2,0.1,20.1,0.1v87.4h-76.4v-24.1h38.1L-667.1,585.7z"/>
	<path class="st2" d="M-671.8,621.7c1.7,0,3.2,0,4.6,0c14.9,0,29.8-0.1,44.7,0.1c3,0,3.8-0.8,3.7-3.8c-0.1-17.3,0-34.7-0.1-52.1
		c0-3.3,1-4.2,4.2-4.1c6.8,0.2,13.6,0.1,20.9,0.1v4.3c0,19.9,0,39.9-0.1,59.8c0,2.7,0.8,4.5,2.7,6.4c11.1,10.9,22,22,33.1,33
		c0.9,0.9,2.2,1.5,3.1,2c-6.4,6.4-12.1,12.1-18,18c-0.5-0.5-1.5-1.3-2.4-2.3c-11.3-11.3-22.7-22.6-33.9-34c-1.9-1.9-3.8-2.6-6.5-2.6
		c-17.2,0.1-34.5,0.1-51.7,0.1h-4.2L-671.8,621.7L-671.8,621.7z"/>
	<path class="st2" d="M-336,585.7c-14-14.9-28.1-29.7-42.4-44.9c5.5-5.9,10.9-11.5,16.6-17.6c13.3,14.1,26.5,28,40.4,42.6
		c0-2,0-3.1,0-4.3c0-11.6,0.1-23.3,0-34.9c0-2.6,0.7-3.5,3.4-3.5c6.6,0.2,13.2,0.1,20.1,0.1v87.4h-76.4v-24.1h38.1L-336,585.7z"/>
	<path class="st2" d="M-340.7,621.7c1.7,0,3.2,0,4.6,0c14.9,0,29.8-0.1,44.7,0.1c3,0,3.8-0.8,3.8-3.8c-0.1-17.3,0-34.7-0.1-52.1
		c0-3.3,1-4.2,4.2-4.1c6.8,0.2,13.6,0.1,20.9,0.1v4.3c0,19.9,0,39.9-0.1,59.8c0,2.7,0.8,4.5,2.7,6.4c11.1,10.9,22,22,33.1,33
		c0.9,0.9,2.2,1.5,3.1,2c-6.4,6.4-12.1,12.1-18.1,18c-0.5-0.5-1.5-1.3-2.4-2.3c-11.3-11.3-22.7-22.6-33.9-34
		c-1.9-1.9-3.8-2.6-6.5-2.6c-17.2,0.1-34.5,0.1-51.7,0.1h-4.2L-340.7,621.7L-340.7,621.7z"/>
	<path class="st2" d="M-998.2,585.7c-14-14.9-28.1-29.7-42.4-44.9c5.5-5.9,10.9-11.5,16.6-17.6c13.3,14.1,26.5,28,40.4,42.6
		c0-2,0-3.1,0-4.3c0-11.6,0.1-23.3,0-34.9c0-2.6,0.7-3.5,3.4-3.5c6.6,0.2,13.2,0.1,20.1,0.1v87.4h-76.4v-24.1h38.1L-998.2,585.7z"/>
	<path class="st2" d="M-1002.9,621.7c1.7,0,3.2,0,4.6,0c14.9,0,29.8-0.1,44.7,0.1c3,0,3.8-0.8,3.7-3.8c-0.1-17.3,0-34.7-0.1-52.1
		c0-3.3,1-4.2,4.2-4.1c6.8,0.2,13.6,0.1,20.9,0.1v4.3c0,19.9,0,39.9-0.1,59.8c0,2.7,0.8,4.5,2.7,6.4c11.1,10.9,22,22,33.1,33
		c0.9,0.9,2.2,1.5,3.1,2c-6.4,6.4-12.1,12.1-18,18c-0.5-0.5-1.5-1.3-2.4-2.3c-11.3-11.3-22.7-22.6-33.9-34c-1.9-1.9-3.8-2.6-6.5-2.6
		c-17.2,0.1-34.5,0.1-51.7,0.1h-4.2L-1002.9,621.7L-1002.9,621.7z"/>
	<path class="st2" d="M1474,585.7c-14-14.9-28.1-29.7-42.4-44.9c5.5-5.9,10.9-11.5,16.6-17.6c13.3,14.1,26.5,28,40.4,42.6
		c0-2,0-3.1,0-4.3c0-11.6,0.1-23.3-0.1-34.9c0-2.6,0.7-3.5,3.4-3.5c6.6,0.2,13.2,0.1,20.1,0.1v87.4h-76.4v-24.1h38.1L1474,585.7z"/>
	<path class="st2" d="M1469.3,621.7c1.7,0,3.2,0,4.6,0c14.9,0,29.8-0.1,44.7,0.1c2.9,0,3.8-0.8,3.8-3.8c-0.1-17.3,0-34.7-0.1-52.1
		c0-3.3,1-4.2,4.2-4.1c6.8,0.2,13.6,0.1,20.9,0.1v4.3c0,19.9,0,39.9-0.1,59.8c0,2.7,0.8,4.5,2.8,6.4c11.1,10.9,22,22,33.1,33
		c0.9,0.9,2.2,1.5,3.1,2c-6.4,6.4-12.1,12.1-18.1,18c-0.5-0.5-1.5-1.3-2.4-2.3c-11.3-11.3-22.7-22.6-33.9-34
		c-1.9-1.9-3.8-2.6-6.5-2.6c-17.2,0.1-34.5,0.1-51.7,0.1h-4.2L1469.3,621.7L1469.3,621.7z"/>
	<path class="st2" d="M811.8,585.7c-14-14.9-28.1-29.7-42.4-44.9c5.5-5.9,10.9-11.5,16.6-17.6c13.3,14.1,26.5,28,40.4,42.6
		c0-2,0-3.1,0-4.3c0-11.6,0.1-23.3,0-34.9c0-2.6,0.7-3.5,3.4-3.5c6.6,0.2,13.2,0.1,20.1,0.1v87.4h-76.4v-24.1h38.1L811.8,585.7z"/>
	<path class="st2" d="M807.1,621.7c1.7,0,3.2,0,4.6,0c14.9,0,29.8-0.1,44.7,0.1c3,0,3.8-0.8,3.8-3.8c-0.1-17.3,0-34.7-0.1-52.1
		c0-3.3,1-4.2,4.2-4.1c6.8,0.2,13.6,0.1,20.9,0.1v4.3c0,19.9,0,39.9-0.1,59.8c0,2.7,0.8,4.5,2.7,6.4c11.1,10.9,22,22,33.1,33
		c0.9,0.9,2.2,1.5,3.1,2c-6.4,6.4-12.1,12.1-18,18c-0.5-0.5-1.5-1.3-2.4-2.3c-11.3-11.3-22.7-22.6-33.9-34c-1.9-1.9-3.8-2.6-6.5-2.6
		c-17.2,0.1-34.5,0.1-51.7,0.1h-4.2L807.1,621.7L807.1,621.7z"/>
	<path class="st2" d="M1142.9,585.7c-14-14.9-28.1-29.7-42.4-44.9c5.5-5.9,10.9-11.5,16.6-17.6c13.3,14.1,26.5,28,40.4,42.6
		c0-2,0-3.1,0-4.3c0-11.6,0.1-23.3-0.1-34.9c0-2.6,0.7-3.5,3.4-3.5c6.6,0.2,13.2,0.1,20.1,0.1v87.4h-76.4v-24.1h38.1L1142.9,585.7z"
		/>
	<path class="st2" d="M1138.2,621.7c1.7,0,3.2,0,4.6,0c14.9,0,29.8-0.1,44.7,0.1c3,0,3.8-0.8,3.8-3.8c-0.1-17.3,0-34.7-0.1-52.1
		c0-3.3,1-4.2,4.2-4.1c6.8,0.2,13.6,0.1,20.9,0.1v4.3c0,19.9,0.1,39.9-0.1,59.8c0,2.7,0.8,4.5,2.7,6.4c11.1,10.9,22,22,33.1,33
		c0.9,0.9,2.2,1.5,3.1,2c-6.4,6.4-12.1,12.1-18.1,18c-0.5-0.5-1.5-1.3-2.4-2.3c-11.3-11.3-22.7-22.6-33.9-34
		c-1.9-1.9-3.8-2.6-6.5-2.6c-17.2,0.1-34.5,0.1-51.7,0.1h-4.2L1138.2,621.7L1138.2,621.7z"/>
	<path class="st2" d="M480.7,585.7c-14-14.9-28.1-29.7-42.4-44.9c5.5-5.9,10.9-11.5,16.6-17.6c13.3,14.1,26.5,28,40.4,42.6
		c0-2,0-3.1,0-4.3c0-11.6,0.1-23.3,0-34.9c0-2.6,0.7-3.5,3.4-3.5c6.6,0.2,13.2,0.1,20.1,0.1v87.4h-76.4v-24.1h38.1L480.7,585.7z"/>
	<path class="st2" d="M476,621.7c1.7,0,3.2,0,4.6,0c14.9,0,29.8-0.1,44.7,0.1c3,0,3.8-0.8,3.7-3.8c-0.1-17.3,0-34.7-0.1-52.1
		c0-3.3,1-4.2,4.2-4.1c6.8,0.2,13.6,0.1,20.9,0.1v4.3c0,19.9,0,39.9-0.1,59.8c0,2.7,0.8,4.5,2.7,6.4c11.1,10.9,22,22,33.1,33
		c0.9,0.9,2.2,1.5,3.1,2c-6.4,6.4-12.1,12.1-18,18c-0.5-0.5-1.5-1.3-2.4-2.3c-11.3-11.3-22.7-22.6-33.9-34c-1.9-1.9-3.8-2.6-6.5-2.6
		c-17.2,0.1-34.5,0.1-51.7,0.1H476L476,621.7L476,621.7z"/>
	<path class="st2" d="M1308.4,585.7c-14.1-14.9-28.1-29.7-42.4-44.9c5.5-5.9,10.9-11.5,16.6-17.6c13.3,14.1,26.5,28,40.4,42.6
		c0-2,0-3.1,0-4.3c0-11.6,0.1-23.3-0.1-34.9c0-2.6,0.7-3.5,3.4-3.5c6.6,0.2,13.2,0.1,20.1,0.1v87.4h-76.4v-24.1h38.1L1308.4,585.7z"
		/>
	<path class="st2" d="M1303.7,621.7c1.7,0,3.2,0,4.6,0c14.9,0,29.8-0.1,44.7,0.1c2.9,0,3.8-0.8,3.8-3.8c-0.1-17.3,0-34.7-0.1-52.1
		c0-3.3,1-4.2,4.2-4.1c6.8,0.2,13.6,0.1,20.9,0.1v4.3c0,19.9,0.1,39.9-0.1,59.8c0,2.7,0.8,4.5,2.7,6.4c11.1,10.9,22,22,33.1,33
		c0.9,0.9,2.2,1.5,3.1,2c-6.4,6.4-12.1,12.1-18.1,18c-0.5-0.5-1.5-1.3-2.4-2.3c-11.3-11.3-22.7-22.6-33.9-34
		c-1.9-1.9-3.8-2.6-6.5-2.6c-17.2,0.1-34.5,0.1-51.7,0.1h-4.2L1303.7,621.7L1303.7,621.7z"/>
	<path class="st2" d="M646.2,585.7c-14-14.9-28.1-29.7-42.4-44.9c5.5-5.9,10.9-11.5,16.6-17.6c13.3,14.1,26.5,28,40.4,42.6
		c0-2,0-3.1,0-4.3c0-11.6,0.1-23.3,0-34.9c0-2.6,0.7-3.5,3.4-3.5c6.6,0.2,13.2,0.1,20.1,0.1v87.4h-76.4v-24.1H646L646.2,585.7z"/>
	<path class="st2" d="M641.5,621.7c1.7,0,3.2,0,4.6,0c14.9,0,29.8-0.1,44.7,0.1c3,0,3.8-0.8,3.8-3.8c-0.1-17.3,0-34.7-0.1-52.1
		c0-3.3,1-4.2,4.2-4.1c6.8,0.2,13.6,0.1,20.9,0.1v4.3c0,19.9,0,39.9-0.1,59.8c0,2.7,0.8,4.5,2.7,6.4c11.1,10.9,22,22,33.1,33
		c0.9,0.9,2.2,1.5,3.1,2c-6.4,6.4-12.1,12.1-18,18c-0.5-0.5-1.5-1.3-2.4-2.3c-11.3-11.3-22.7-22.6-33.9-34c-1.9-1.9-3.8-2.6-6.5-2.6
		c-17.2,0.1-34.5,0.1-51.7,0.1h-4.2L641.5,621.7L641.5,621.7z"/>
	<path class="st2" d="M977.3,585.7c-14-14.9-28.1-29.7-42.4-44.9c5.5-5.9,10.9-11.5,16.6-17.6c13.3,14.1,26.5,28,40.4,42.6
		c0-2,0-3.1,0-4.3c0-11.6,0.1-23.3,0-34.9c0-2.6,0.7-3.5,3.4-3.5c6.6,0.2,13.2,0.1,20.1,0.1v87.4H939v-24.1h38.1L977.3,585.7z"/>
	<path class="st2" d="M972.6,621.7c1.7,0,3.2,0,4.6,0c14.9,0,29.8-0.1,44.7,0.1c3,0,3.8-0.8,3.7-3.8c-0.1-17.3,0-34.7-0.1-52.1
		c0-3.3,1-4.2,4.2-4.1c6.8,0.2,13.6,0.1,20.9,0.1v4.3c0,19.9,0.1,39.9-0.1,59.8c0,2.7,0.8,4.5,2.7,6.4c11.1,10.9,22,22,33.1,33
		c0.9,0.9,2.2,1.5,3.1,2c-6.4,6.4-12.1,12.1-18.1,18c-0.5-0.5-1.5-1.3-2.4-2.3c-11.3-11.3-22.7-22.6-33.9-34
		c-1.9-1.9-3.8-2.6-6.5-2.6c-17.2,0.1-34.5,0.1-51.7,0.1h-4.2L972.6,621.7L972.6,621.7z"/>
	<path class="st2" d="M315.1,585.7c-14-14.9-28.1-29.7-42.4-44.9c5.5-5.9,10.9-11.5,16.6-17.6c13.3,14.1,26.5,28,40.4,42.6
		c0-2,0-3.1,0-4.3c0-11.6,0.1-23.3,0-34.9c0-2.6,0.7-3.5,3.4-3.5c6.6,0.2,13.2,0.1,20.1,0.1v87.4h-76.4v-24.1h38.1L315.1,585.7z"/>
	<path class="st2" d="M310.4,621.7c1.7,0,3.2,0,4.6,0c14.9,0,29.8-0.1,44.7,0.1c3,0,3.8-0.8,3.7-3.8c-0.1-17.3,0-34.7-0.1-52.1
		c0-3.3,1-4.2,4.2-4.1c6.8,0.2,13.6,0.1,20.9,0.1v4.3c0,19.9,0,39.9-0.1,59.8c0,2.7,0.8,4.5,2.7,6.4c11.1,10.9,22,22,33.1,33
		c0.9,0.9,2.2,1.5,3.1,2c-6.4,6.4-12.1,12.1-18,18c-0.5-0.5-1.5-1.3-2.4-2.3c-11.3-11.3-22.7-22.6-33.9-34c-1.9-1.9-3.8-2.6-6.5-2.6
		c-17.2,0.1-34.5,0.1-51.7,0.1h-4.2V621.7z"/>
	<path class="st2" d="M858.6,1329.4c-14-14.9-28.1-29.7-42.4-44.9c5.5-5.9,10.9-11.5,16.6-17.6c13.3,14.1,26.5,28,40.4,42.6
		c0-2,0-3.1,0-4.3c0-11.6,0.1-23.3,0-34.9c0-2.6,0.7-3.5,3.4-3.5c6.6,0.2,13.2,0.1,20.1,0.1v87.4h-76.4v-24.1h38.1L858.6,1329.4z"/>
	<path class="st2" d="M853.9,1365.4c1.7,0,3.2,0,4.6,0c14.9,0,29.8-0.1,44.7,0.1c3,0,3.8-0.8,3.8-3.8c-0.1-17.3,0-34.7-0.1-52.1
		c0-3.3,1-4.2,4.2-4.1c6.8,0.2,13.6,0.1,20.9,0.1v4.3c0,19.9,0,39.9-0.1,59.8c0,2.7,0.8,4.6,2.7,6.4c11.1,10.9,22,22,33.1,32.9
		c0.9,0.9,2.2,1.5,3.1,2.1c-6.4,6.4-12.1,12.1-18,18c-0.5-0.5-1.5-1.3-2.4-2.3c-11.3-11.3-22.7-22.6-33.9-34
		c-1.9-1.9-3.8-2.6-6.5-2.6c-17.2,0.1-34.5,0.1-51.7,0.1h-4.2L853.9,1365.4L853.9,1365.4z"/>
	<path class="st2" d="M196.4,1329.4c-14-14.9-28.1-29.7-42.4-44.9c5.5-5.9,10.9-11.5,16.6-17.6c13.3,14.1,26.5,28,40.4,42.6
		c0-2,0-3.1,0-4.3c0-11.6,0.1-23.3-0.1-34.9c0-2.6,0.7-3.5,3.4-3.5c6.6,0.2,13.2,0.1,20.1,0.1v87.4H158v-24.1h38.1L196.4,1329.4z"/>
	<path class="st2" d="M191.7,1365.4c1.7,0,3.2,0,4.6,0c14.9,0,29.8-0.1,44.7,0.1c3,0,3.8-0.8,3.7-3.8c-0.1-17.3,0-34.7-0.1-52.1
		c0-3.3,1-4.2,4.2-4.1c6.8,0.2,13.6,0.1,20.9,0.1v4.3c0,19.9,0,39.9-0.1,59.8c0,2.7,0.8,4.6,2.7,6.4c11.1,10.9,22,22,33.1,32.9
		c0.9,0.9,2.2,1.5,3.1,2.1c-6.4,6.4-12.1,12.1-18,18c-0.5-0.5-1.5-1.3-2.4-2.3c-11.3-11.3-22.7-22.6-33.9-34
		c-1.9-1.9-3.8-2.6-6.5-2.6c-17.2,0.1-34.5,0.1-51.7,0.1h-4.2L191.7,1365.4L191.7,1365.4z"/>
	<path class="st2" d="M527.5,1329.4c-14-14.9-28.1-29.7-42.4-44.9c5.5-5.9,10.9-11.5,16.6-17.6c13.3,14.1,26.5,28,40.4,42.6
		c0-2,0-3.1,0-4.3c0-11.6,0.1-23.3,0-34.9c0-2.6,0.7-3.5,3.4-3.5c6.6,0.2,13.2,0.1,20.1,0.1v87.4h-76.4v-24.1h38.1L527.5,1329.4z"/>
	<path class="st2" d="M522.8,1365.4c1.7,0,3.2,0,4.6,0c14.9,0,29.8-0.1,44.7,0.1c3,0,3.8-0.8,3.8-3.8c-0.1-17.3,0-34.7-0.1-52.1
		c0-3.3,1-4.2,4.2-4.1c6.8,0.2,13.6,0.1,20.9,0.1v4.3c0,19.9,0,39.9-0.1,59.8c0,2.7,0.8,4.6,2.7,6.4c11.1,10.9,22,22,33.1,32.9
		c0.9,0.9,2.2,1.5,3.1,2.1c-6.4,6.4-12.1,12.1-18,18c-0.5-0.5-1.5-1.3-2.4-2.3c-11.3-11.3-22.7-22.6-33.9-34
		c-1.9-1.9-3.8-2.6-6.5-2.6c-17.2,0.1-34.5,0.1-51.7,0.1h-4.2L522.8,1365.4L522.8,1365.4z"/>
	<path class="st2" d="M-134.7,1329.4c-14-14.9-28.1-29.7-42.4-44.9c5.5-5.9,10.9-11.5,16.6-17.6c13.3,14.1,26.5,28,40.4,42.6
		c0-2,0-3.1,0-4.3c0-11.6,0.1-23.3-0.1-34.9c0-2.6,0.7-3.5,3.4-3.5c6.6,0.2,13.2,0.1,20.1,0.1v87.4h-76.4v-24.1h38.1L-134.7,1329.4z
		"/>
	<path class="st2" d="M-139.4,1365.4c1.7,0,3.2,0,4.6,0c14.9,0,29.8-0.1,44.7,0.1c3,0,3.8-0.8,3.7-3.8c-0.1-17.3,0-34.7-0.1-52.1
		c0-3.3,1-4.2,4.2-4.1c6.8,0.2,13.6,0.1,20.9,0.1v4.3c0,19.9,0,39.9-0.1,59.8c0,2.7,0.8,4.6,2.7,6.4c11.1,10.9,22,22,33.1,32.9
		c0.9,0.9,2.2,1.5,3.1,2.1c-6.4,6.4-12.1,12.1-18,18c-0.5-0.5-1.5-1.3-2.4-2.3c-11.3-11.3-22.7-22.6-33.9-34
		c-1.9-1.9-3.8-2.6-6.5-2.6c-17.2,0.1-34.5,0.1-51.7,0.1h-4.2V1365.4z"/>
	<path class="st2" d="M693,1329.4c-14-14.9-28.1-29.7-42.4-44.9c5.5-5.9,10.9-11.5,16.6-17.6c13.3,14.1,26.5,28,40.4,42.6
		c0-2,0-3.1,0-4.3c0-11.6,0.1-23.3,0-34.9c0-2.6,0.7-3.5,3.4-3.5c6.6,0.2,13.2,0.1,20.1,0.1v87.4h-76.4v-24.1h38.1L693,1329.4z"/>
	<path class="st2" d="M688.3,1365.4c1.7,0,3.2,0,4.6,0c14.9,0,29.8-0.1,44.7,0.1c3,0,3.8-0.8,3.8-3.8c-0.1-17.3,0-34.7-0.1-52.1
		c0-3.3,1-4.2,4.2-4.1c6.8,0.2,13.6,0.1,20.9,0.1v4.3c0,19.9,0,39.9-0.1,59.8c0,2.7,0.8,4.6,2.7,6.4c11.1,10.9,22,22,33.1,32.9
		c0.9,0.9,2.2,1.5,3.1,2.1c-6.4,6.4-12.1,12.1-18,18c-0.5-0.5-1.5-1.3-2.4-2.3c-11.3-11.3-22.7-22.6-33.9-34
		c-1.9-1.9-3.8-2.6-6.5-2.6c-17.2,0.1-34.5,0.1-51.7,0.1h-4.2L688.3,1365.4L688.3,1365.4z"/>
	<path class="st2" d="M30.8,1329.4c-14-14.9-28.1-29.7-42.4-44.9c5.5-5.9,10.9-11.5,16.6-17.6c13.3,14.1,26.5,28,40.4,42.6
		c0-2,0-3.1,0-4.3c0-11.6,0.1-23.3,0-34.9c0-2.6,0.7-3.5,3.4-3.5c6.6,0.2,13.2,0.1,20.1,0.1v87.4H-7.5v-24.1h38.1L30.8,1329.4z"/>
	<path class="st2" d="M26.1,1365.4c1.7,0,3.2,0,4.6,0c14.9,0,29.8-0.1,44.7,0.1c3,0,3.8-0.8,3.7-3.8c-0.1-17.3,0-34.7-0.1-52.1
		c0-3.3,1-4.2,4.2-4.1c6.8,0.2,13.6,0.1,20.9,0.1v4.3c0,19.9,0.1,39.9-0.1,59.8c0,2.7,0.8,4.6,2.7,6.4c11.1,10.9,22,22,33.1,32.9
		c0.9,0.9,2.2,1.5,3.1,2.1c-6.4,6.4-12.1,12.1-18.1,18c-0.5-0.5-1.5-1.3-2.4-2.3c-11.3-11.3-22.7-22.6-33.9-34
		c-1.9-1.9-3.8-2.6-6.5-2.6c-17.2,0.1-34.5,0.1-51.7,0.1h-4.2L26.1,1365.4L26.1,1365.4z"/>
	<path class="st2" d="M361.9,1329.4c-14-14.9-28.1-29.7-42.4-44.9c5.5-5.9,10.9-11.5,16.6-17.6c13.3,14.1,26.5,28,40.4,42.6
		c0-2,0-3.1,0-4.3c0-11.6,0.1-23.3,0-34.9c0-2.6,0.7-3.5,3.4-3.5c6.6,0.2,13.2,0.1,20.1,0.1v87.4h-76.4v-24.1h38.1L361.9,1329.4z"/>
	<path class="st2" d="M357.2,1365.4c1.7,0,3.2,0,4.6,0c14.9,0,29.8-0.1,44.7,0.1c3,0,3.8-0.8,3.8-3.8c-0.1-17.3,0-34.7-0.1-52.1
		c0-3.3,1-4.2,4.2-4.1c6.8,0.2,13.6,0.1,20.9,0.1v4.3c0,19.9,0,39.9-0.1,59.8c0,2.7,0.8,4.6,2.7,6.4c11.1,10.9,22,22,33.1,32.9
		c0.9,0.9,2.2,1.5,3.1,2.1c-6.4,6.4-12.1,12.1-18,18c-0.5-0.5-1.5-1.3-2.4-2.3c-11.3-11.3-22.7-22.6-33.9-34
		c-1.9-1.9-3.8-2.6-6.5-2.6c-17.2,0.1-34.5,0.1-51.7,0.1h-4.2L357.2,1365.4L357.2,1365.4z"/>
	<path class="st2" d="M-300.3,1329.4c-14-14.9-28.1-29.7-42.4-44.9c5.5-5.9,10.9-11.5,16.6-17.6c13.3,14.1,26.5,28,40.4,42.6
		c0-2,0-3.1,0-4.3c0-11.6,0.1-23.3,0-34.9c0-2.6,0.7-3.5,3.4-3.5c6.6,0.2,13.2,0.1,20.1,0.1v87.4h-76.4v-24.1h38.1L-300.3,1329.4z"
		/>
	<path class="st2" d="M-305,1365.4c1.7,0,3.2,0,4.6,0c14.9,0,29.8-0.1,44.7,0.1c3,0,3.8-0.8,3.7-3.8c-0.1-17.3,0-34.7-0.1-52.1
		c0-3.3,1-4.2,4.2-4.1c6.8,0.2,13.6,0.1,20.9,0.1v4.3c0,19.9,0.1,39.9-0.1,59.8c0,2.7,0.8,4.6,2.7,6.4c11.1,10.9,22,22,33.1,32.9
		c0.9,0.9,2.2,1.5,3.1,2.1c-6.4,6.4-12.1,12.1-18.1,18c-0.5-0.5-1.5-1.3-2.4-2.3c-11.3-11.3-22.7-22.6-33.9-34
		c-1.9-1.9-3.8-2.6-6.5-2.6c-17.2,0.1-34.5,0.1-51.7,0.1h-4.2V1365.4z"/>
	<path class="st2" d="M2171.9,1329.4c-14-14.9-28.1-29.7-42.4-44.9c5.5-5.9,10.9-11.5,16.6-17.6c13.3,14.1,26.5,28,40.4,42.6
		c0-2,0-3.1,0-4.3c0-11.6,0.1-23.3-0.1-34.9c0-2.6,0.7-3.5,3.4-3.5c6.6,0.2,13.2,0.1,20.1,0.1v87.4h-76.4v-24.1h38.1L2171.9,1329.4z
		"/>
	<path class="st2" d="M2167.2,1365.4c1.7,0,3.2,0,4.6,0c14.9,0,29.8-0.1,44.7,0.1c2.9,0,3.8-0.8,3.8-3.8c-0.1-17.3,0-34.7-0.1-52.1
		c0-3.3,1-4.2,4.2-4.1c6.8,0.2,13.6,0.1,20.9,0.1v4.3c0,19.9,0,39.9-0.1,59.8c0,2.7,0.8,4.6,2.8,6.4c11.1,10.9,22,22,33.1,32.9
		c0.9,0.9,2.2,1.5,3.1,2.1c-6.4,6.4-12.1,12.1-18.1,18c-0.5-0.5-1.5-1.3-2.4-2.3c-11.3-11.3-22.7-22.6-33.9-34
		c-1.9-1.9-3.8-2.6-6.5-2.6c-17.2,0.1-34.5,0.1-51.7,0.1h-4.2L2167.2,1365.4L2167.2,1365.4z"/>
	<path class="st2" d="M1509.7,1329.4c-14-14.9-28.1-29.7-42.4-44.9c5.5-5.9,10.9-11.5,16.6-17.6c13.3,14.1,26.5,28,40.4,42.6
		c0-2,0-3.1,0-4.3c0-11.6,0.1-23.3-0.1-34.9c0-2.6,0.7-3.5,3.4-3.5c6.6,0.2,13.2,0.1,20.1,0.1v87.4h-76.4v-24.1h38.1L1509.7,1329.4z
		"/>
	<path class="st2" d="M1505,1365.4c1.7,0,3.2,0,4.6,0c14.9,0,29.8-0.1,44.7,0.1c3,0,3.8-0.8,3.8-3.8c-0.1-17.3,0-34.7-0.1-52.1
		c0-3.3,1.1-4.2,4.2-4.1c6.8,0.2,13.6,0.1,20.9,0.1v4.3c0,19.9,0.1,39.9-0.1,59.8c0,2.7,0.8,4.6,2.7,6.4
		c11.1,10.9,22.1,22,33.1,32.9c0.9,0.9,2.2,1.5,3.1,2.1c-6.4,6.4-12.1,12.1-18.1,18c-0.5-0.5-1.5-1.3-2.4-2.3
		c-11.3-11.3-22.7-22.6-33.9-34c-1.9-1.9-3.8-2.6-6.5-2.6c-17.2,0.1-34.5,0.1-51.7,0.1h-4.2L1505,1365.4L1505,1365.4z"/>
	<path class="st2" d="M1840.8,1329.4c-14-14.9-28.1-29.7-42.4-44.9c5.5-5.9,10.9-11.5,16.6-17.6c13.3,14.1,26.5,28,40.4,42.6
		c0-2,0-3.1,0-4.3c0-11.6,0.1-23.3,0-34.9c0-2.6,0.7-3.5,3.4-3.5c6.6,0.2,13.2,0.1,20.1,0.1v87.4h-76.4v-24.1h38.1L1840.8,1329.4z"
		/>
	<path class="st2" d="M1836.1,1365.4c1.7,0,3.2,0,4.6,0c14.9,0,29.8-0.1,44.7,0.1c3,0,3.8-0.8,3.8-3.8c-0.1-17.3,0-34.7-0.1-52.1
		c0-3.3,1-4.2,4.2-4.1c6.8,0.2,13.6,0.1,20.9,0.1v4.3c0,19.9,0.1,39.9-0.1,59.8c0,2.7,0.8,4.6,2.7,6.4c11.1,10.9,22,22,33.1,32.9
		c0.9,0.9,2.3,1.5,3.1,2.1c-6.4,6.4-12.1,12.1-18.1,18c-0.5-0.5-1.5-1.3-2.4-2.3c-11.3-11.3-22.7-22.6-33.9-34
		c-1.9-1.9-3.8-2.6-6.4-2.6c-17.2,0.1-34.5,0.1-51.7,0.1h-4.2L1836.1,1365.4L1836.1,1365.4z"/>
	<path class="st2" d="M1178.6,1329.4c-14-14.9-28.1-29.7-42.4-44.9c5.5-5.9,10.9-11.5,16.6-17.6c13.3,14.1,26.5,28,40.4,42.6
		c0-2,0-3.1,0-4.3c0-11.6,0.1-23.3-0.1-34.9c0-2.6,0.7-3.5,3.4-3.5c6.6,0.2,13.2,0.1,20.1,0.1v87.4h-76.4v-24.1h38.1L1178.6,1329.4z
		"/>
	<path class="st2" d="M1173.9,1365.4c1.7,0,3.2,0,4.6,0c14.9,0,29.8-0.1,44.7,0.1c3,0,3.8-0.8,3.7-3.8c-0.1-17.3,0-34.7-0.1-52.1
		c0-3.3,1-4.2,4.2-4.1c6.8,0.2,13.6,0.1,20.9,0.1v4.3c0,19.9,0.1,39.9-0.1,59.8c0,2.7,0.8,4.6,2.7,6.4c11.1,10.9,22,22,33.1,32.9
		c0.9,0.9,2.2,1.5,3.1,2.1c-6.4,6.4-12.1,12.1-18.1,18c-0.5-0.5-1.5-1.3-2.4-2.3c-11.3-11.3-22.7-22.6-33.9-34
		c-1.9-1.9-3.8-2.6-6.5-2.6c-17.2,0.1-34.5,0.1-51.7,0.1h-4.2L1173.9,1365.4L1173.9,1365.4z"/>
	<path class="st2" d="M2006.4,1329.4c-14-14.9-28.1-29.7-42.4-44.9c5.5-5.9,10.9-11.5,16.6-17.6c13.3,14.1,26.5,28,40.4,42.6
		c0-2,0-3.1,0-4.3c0-11.6,0.1-23.3-0.1-34.9c0-2.6,0.7-3.5,3.4-3.5c6.6,0.2,13.2,0.1,20.1,0.1v87.4H1968v-24.1h38.1L2006.4,1329.4z"
		/>
	<path class="st2" d="M2001.6,1365.4c1.7,0,3.2,0,4.6,0c14.9,0,29.8-0.1,44.7,0.1c2.9,0,3.8-0.8,3.8-3.8c-0.1-17.3,0-34.7-0.1-52.1
		c0-3.3,1-4.2,4.2-4.1c6.8,0.2,13.6,0.1,20.9,0.1v4.3c0,19.9,0.1,39.9-0.1,59.8c0,2.7,0.8,4.6,2.7,6.4c11.1,10.9,22,22,33.1,32.9
		c0.9,0.9,2.2,1.5,3.1,2.1c-6.4,6.4-12.1,12.1-18.1,18c-0.5-0.5-1.5-1.3-2.4-2.3c-11.3-11.3-22.7-22.6-33.9-34
		c-1.9-1.9-3.8-2.6-6.5-2.6c-17.2,0.1-34.5,0.1-51.7,0.1h-4.2L2001.6,1365.4L2001.6,1365.4z"/>
	<path class="st2" d="M1344.2,1329.4c-14-14.9-28.1-29.7-42.4-44.9c5.5-5.9,10.9-11.5,16.6-17.6c13.3,14.1,26.5,28,40.4,42.6
		c0-2,0-3.1,0-4.3c0-11.6,0.1-23.3-0.1-34.9c0-2.6,0.7-3.5,3.4-3.5c6.6,0.2,13.2,0.1,20.1,0.1v87.4h-76.4v-24.1h38.1L1344.2,1329.4z
		"/>
	<path class="st2" d="M1339.4,1365.4c1.7,0,3.2,0,4.6,0c14.9,0,29.8-0.1,44.7,0.1c3,0,3.8-0.8,3.8-3.8c-0.1-17.3,0-34.7-0.1-52.1
		c0-3.3,1.1-4.2,4.2-4.1c6.8,0.2,13.6,0.1,20.9,0.1v4.3c0,19.9,0.1,39.9-0.1,59.8c0,2.7,0.8,4.6,2.7,6.4
		c11.1,10.9,22.1,22,33.1,32.9c0.9,0.9,2.2,1.5,3.1,2.1c-6.4,6.4-12.1,12.1-18.1,18c-0.5-0.5-1.5-1.3-2.4-2.3
		c-11.3-11.3-22.7-22.6-33.9-34c-1.9-1.9-3.8-2.6-6.5-2.6c-17.2,0.1-34.5,0.1-51.7,0.1h-4.2L1339.4,1365.4L1339.4,1365.4z"/>
	<path class="st2" d="M1675.3,1329.4c-14-14.9-28.1-29.7-42.4-44.9c5.5-5.9,10.9-11.5,16.6-17.6c13.3,14.1,26.5,28,40.4,42.6
		c0-2,0-3.1,0-4.3c0-11.6,0.1-23.3-0.1-34.9c0-2.6,0.7-3.5,3.4-3.5c6.6,0.2,13.2,0.1,20.1,0.1v87.4h-76.4v-24.1h38.1L1675.3,1329.4z
		"/>
	<path class="st2" d="M1670.5,1365.4c1.7,0,3.2,0,4.6,0c14.9,0,29.8-0.1,44.7,0.1c3,0,3.8-0.8,3.8-3.8c-0.1-17.3,0-34.7-0.1-52.1
		c0-3.3,1.1-4.2,4.2-4.1c6.8,0.2,13.6,0.1,20.9,0.1v4.3c0,19.9,0.1,39.9-0.1,59.8c0,2.7,0.8,4.6,2.7,6.4c11.1,10.9,22,22,33.1,32.9
		c0.9,0.9,2.2,1.5,3.1,2.1c-6.4,6.4-12.1,12.1-18.1,18c-0.5-0.5-1.5-1.3-2.4-2.3c-11.3-11.3-22.7-22.6-33.9-34
		c-1.9-1.9-3.8-2.6-6.5-2.6c-17.2,0.1-34.5,0.1-51.7,0.1h-4.2L1670.5,1365.4L1670.5,1365.4z"/>
	<path class="st2" d="M1013,1329.4c-14-14.9-28.1-29.7-42.4-44.9c5.5-5.9,10.9-11.5,16.6-17.6c13.3,14.1,26.5,28,40.4,42.6
		c0-2,0-3.1,0-4.3c0-11.6,0.1-23.3-0.1-34.9c0-2.6,0.7-3.5,3.4-3.5c6.6,0.2,13.2,0.1,20.1,0.1v87.4h-76.4v-24.1h38.1L1013,1329.4z"
		/>
	<path class="st2" d="M1008.3,1365.4c1.7,0,3.2,0,4.6,0c14.9,0,29.8-0.1,44.7,0.1c3,0,3.8-0.8,3.7-3.8c-0.1-17.3,0-34.7-0.1-52.1
		c0-3.3,1-4.2,4.2-4.1c6.8,0.2,13.6,0.1,20.9,0.1v4.3c0,19.9,0.1,39.9-0.1,59.8c0,2.7,0.8,4.6,2.7,6.4c11.1,10.9,22,22,33.1,32.9
		c0.9,0.9,2.2,1.5,3.1,2.1c-6.4,6.4-12.1,12.1-18.1,18c-0.5-0.5-1.5-1.3-2.4-2.3c-11.3-11.3-22.7-22.6-33.9-34
		c-1.9-1.9-3.8-2.6-6.5-2.6c-17.2,0.1-34.5,0.1-51.7,0.1h-4.2L1008.3,1365.4L1008.3,1365.4z"/>
</g>
</svg>
